<svg
   xmlns:dc="http://purl.org/dc/elements/1.1/"
   xmlns:cc="http://creativecommons.org/ns#"
   xmlns:rdf="http://www.w3.org/1999/02/22-rdf-syntax-ns#"
   xmlns:svg="http://www.w3.org/2000/svg"
   xmlns="http://www.w3.org/2000/svg"
   xmlns:xlink="http://www.w3.org/1999/xlink"
   xmlns:sodipodi="http://sodipodi.sourceforge.net/DTD/sodipodi-0.dtd"
   xmlns:inkscape="http://www.inkscape.org/namespaces/inkscape"
   width="517.477"
   height="1101.894"
   viewBox="0 0 517.477 1101.894"
   version="1.1"
   id="svg261">
  
  <path
     d="m 86.663,563.323 c -0.22,18.948 -9.267,35.359 -14.354,53.272 -2.961,10.472 -6.548,20.349 -12.8,29.388 a 4.545,4.545 0 0 1 -1.56,-1.568 8.568,8.568 0 0 1 -0.771,-4.055 10.176,10.176 0 0 0 -0.959,-4.865 1.02,1.02 0 0 0 -0.22,-0.252 c 4.247,-8.121 7.759,-16.637 8.024,-26.471 a 1.01,1.01 0 0 0 -2.019,-0.05 v 0 c -0.363,14.544 -8.32,26.362 -15.1,38.865 a 3.866,3.866 0 0 1 -2.21,1.639 12.541,12.541 0 0 1 -4.156,0.61 c -4.352,0.018 -9.74,-1.589 -12.549,-4.069 7.053,-13.841 9.413,-28.441 11.8,-42.908 a 1.009,1.009 0 1 0 -1.99,-0.329 c -2.37,14.384 -4.723,28.649 -11.494,42.053 a 7.082,7.082 0 0 1 -2.192,-2.281 5.974,5.974 0 0 1 -0.733,-3.02 16.329,16.329 0 0 1 0.379,-3.066 c 3.68,-19.136 4.36,-38.53 6.869,-57.624 a 29.662,29.662 0 0 0 0.311,-3.851 12.029,12.029 0 0 0 -2.124,-7.144 1.01,1.01 0 0 0 -1.358,-0.283 c -3.236,2 -6.193,4.83 -9.316,7.109 -3.123,2.279 -6.342,4 -10.079,3.995 A 16.039,16.039 0 0 1 0,575.971 c 7.983,-8.25 17.767,-14.451 24.542,-23.813 a 20.015,20.015 0 0 1 2,-2.4 l 1.8,-1.8 a 18.366,18.366 0 0 1 2.166,-1.851 c 5.854,-4.257 12.485,-8.787 19.675,-9.824 a 12.126,12.126 0 0 0 -0.692,3.944 13.024,13.024 0 0 0 1.728,6.332 22.749,22.749 0 0 0 19.76,11.373 20.7,20.7 0 0 0 5.418,-0.706 c 3.353,-0.908 6.643,-1.97 9.927,-2.959 -0.028,0.458 -0.044,0.916 -0.044,1.369 0,2.648 0.388,5.182 0.386,7.444 z"
     stroke="none"
     data-name="hand"
     id="1"
     style="fill:none;stroke-miterlimit:10" />
  <path
     d="m 49.46575,536.9012 c -6.68283,1.20859 -12.87791,5.39819 -18.66307,9.60541 -0.73918,0.53793 -1.44812,1.14383 -2.1066,1.80029 l -1.79953,1.79953 c -0.63519,0.6388 -1.27296,1.40439 -1.94987,2.34067 -4.20154,5.80649 -9.62863,10.47357 -14.87703,14.98694 -3.10983,2.67431 -6.32041,5.43527 -9.25586,8.41507 2.56168,1.38815 4.93841,2.06427 7.24832,2.06427 h 0.007 c 1.68651,0 3.34397,-0.35947 5.06706,-1.09897 1.46091,-0.62698 2.95745,-1.51645 4.71027,-2.79965 1.21831,-0.88913 2.43742,-1.88431 3.61643,-2.84671 1.83924,-1.50138 3.74111,-3.0539 5.73204,-4.2847 0.23844,-0.14664 0.51199,-0.22415 0.79104,-0.22415 0.49373,0 0.95709,0.24176 1.23915,0.64624 1.4971,2.14157 2.22122,4.57242 2.21373,7.43014 0,1.37992 -0.15564,2.69116 -0.31515,3.91654 -0.95346,7.2557 -1.65508,14.68817 -2.33359,21.87588 -1.10913,11.74927 -2.25603,23.89853 -4.54047,35.77808 -0.18737,0.96393 -0.3703,1.9873 -0.3703,2.96988 0.002,1.08767 0.21445,1.96957 0.6679,2.7745 0.35369,0.62509 0.88282,1.21887 1.57663,1.77017 2.89691,-5.8475 5.2191,-12.40438 7.09182,-20.02081 1.7289,-7.03155 2.92862,-14.31369 4.0889,-21.35641 0.12114,-0.73221 0.74646,-1.26361 1.48686,-1.26361 0.0822,0 0.16526,0.007 0.2464,0.0203 0.39835,0.0657 0.747,0.28226 0.98171,0.60989 0.23459,0.32746 0.32763,0.72715 0.26199,1.12549 l -0.0709,0.43003 c -2.31882,14.06274 -4.71566,28.59963 -11.59621,42.27023 2.66745,2.15652 7.56549,3.69641 11.85162,3.69641 l 0.0741,-1.5e-4 h 0.0217 c 1.54446,0 2.91498,-0.20047 3.96396,-0.58002 0.96249,-0.34689 1.63298,-0.83258 1.94032,-1.40704 0.99216,-1.82956 2.02449,-3.6713 3.02284,-5.45237 2.89548,-5.16561 5.88954,-10.50711 8.11901,-15.96005 1.19563,-2.92431 2.08741,-5.65719 2.72633,-8.35483 0.71513,-3.01928 1.09857,-5.92141 1.1723,-8.87222 h 5e-5 c 0.0218,-0.82388 0.68281,-1.46893 1.50567,-1.46893 0.0147,0 0.0296,2.1e-4 0.0423,5.8e-4 0.40292,0.0102 0.77773,0.17651 1.05534,0.46832 0.27779,0.29196 0.42513,0.67471 0.41488,1.07846 -0.27681,10.29535 -4.13248,19.10199 -7.91994,26.3819 0.0169,0.0247 0.0333,0.0505 0.049,0.0776 l 10e-4,0.003 0.001,0.003 c 0.90032,1.59671 0.95954,3.2887 1.0118,4.78153 0.004,0.104 0.007,0.20733 0.0113,0.31466 0.0426,1.50208 0.12489,2.82614 0.70329,3.81766 0.24983,0.42877 0.5733,0.79254 1.00094,1.12186 6.46587,-9.50589 9.91825,-19.89411 12.44404,-28.82645 1.61285,-5.6796 3.64906,-11.28122 5.61819,-16.69846 2.11426,-5.81628 4.30042,-11.83059 5.9231,-17.85733 1.81283,-6.73303 2.72668,-12.81228 2.7937,-18.58337 l 0.002,-0.24475 c 9.5e-4,-1.0734 -0.0869,-2.20914 -0.17996,-3.41159 -0.10056,-1.29971 -0.20453,-2.64368 -0.2056,-4.03235 0,-0.22134 0.004,-0.45019 0.0115,-0.68497 -0.73389,0.22293 -1.47144,0.44968 -2.19031,0.67069 -2.30478,0.70859 -4.68805,1.44128 -7.07315,2.08749 -1.77101,0.48035 -3.63788,0.72391 -5.54897,0.72391 -8.35202,-0.004 -16.27966,-4.5694 -20.19693,-11.63059 -1.18797,-2.14791 -1.79033,-4.3598 -1.79033,-6.57412 0,-1.08136 0.15946,-2.19522 0.47478,-3.32114 m 0.71758,-0.6232 c -0.44004,1.28382 -0.69236,2.59992 -0.69236,3.94434 0,2.10534 0.57126,4.2409 1.72788,6.33215 4.05933,7.31726 12.04068,11.36853 19.75964,11.37256 1.83692,0 3.66165,-0.23016 5.41782,-0.70648 3.35281,-0.90839 6.643,-1.97016 9.92728,-2.95923 -0.0283,0.45819 -0.0444,0.91644 -0.0444,1.36859 0.002,2.64832 0.38757,5.18164 0.38556,7.4444 l -0.002,0.24835 c -0.22004,18.94818 -9.26722,35.35901 -14.35398,53.27167 -2.96121,10.47229 -6.54821,20.34906 -12.79763,29.38818 -0.76099,-0.48444 -1.23337,-1.00726 -1.56034,-1.56842 -0.63586,-1.09003 -0.72668,-2.48883 -0.77109,-4.05524 -0.0586,-1.55029 -0.0586,-3.26812 -0.95883,-4.86474 -0.0585,-0.10095 -0.13727,-0.17969 -0.22,-0.25232 4.24704,-8.12067 7.75931,-16.63697 8.02373,-26.47138 0.0141,-0.55713 -0.42592,-1.01941 -0.98305,-1.0335 -0.01,-3.1e-4 -0.0198,-4.3e-4 -0.0296,-4.3e-4 -0.54385,0 -0.99199,0.43423 -1.00587,0.98346 v -0.002 c -0.36334,14.54377 -8.3205,26.36237 -15.1008,38.8653 -0.35529,0.66412 -1.09006,1.23535 -2.21033,1.6391 -1.10495,0.39975 -2.5478,0.60962 -4.13348,0.60962 -0.008,0 -0.0151,0 -0.0227,0 -0.0242,9e-5 -0.0488,1.5e-4 -0.0731,1.5e-4 -4.33917,0 -9.68208,-1.6026 -12.47628,-4.06961 7.05279,-13.84125 9.4125,-28.44147 11.79846,-42.90845 0.0908,-0.55108 -0.28061,-1.06982 -0.83167,-1.16064 -0.0555,-0.009 -0.11065,-0.0136 -0.1651,-0.0136 -0.48443,0 -0.91191,0.35165 -0.99356,0.84521 -2.36978,14.38428 -4.72342,28.64935 -11.49365,42.05261 -1.06781,-0.74487 -1.75818,-1.51391 -2.19217,-2.28094 -0.547,-0.97101 -0.73073,-1.97016 -0.73273,-3.01978 0,-1.01532 0.18369,-2.0589 0.37949,-3.06622 3.67984,-19.13586 4.36008,-38.53015 6.86914,-57.62372 0.15949,-1.22528 0.31088,-2.51514 0.31088,-3.85138 0.006,-2.30121 -0.46832,-4.77594 -2.12353,-7.14367 -0.19591,-0.28095 -0.50949,-0.43271 -0.82936,-0.43271 -0.18111,0 -0.36422,0.0486 -0.52913,0.15005 -3.23575,2.00043 -6.1929,4.83045 -9.31562,7.10938 -3.12486,2.28766 -6.33865,3.99475 -10.07208,3.99475 -0.002,0 -0.004,0 -0.007,0 -2.36978,0 -5.00806,-0.68634 -8.0621,-2.44654 7.98337,-8.24975 17.7673,-14.4508 24.54159,-23.81286 0.62171,-0.85993 1.27773,-1.67334 2.0004,-2.40009 l 1.80054,-1.80053 c 0.67624,-0.6742 1.39483,-1.28986 2.16592,-1.85102 5.85381,-4.25714 12.48477,-8.78674 19.67487,-9.82434 z"
     stroke="none"
     fill="#1a1818"
     data-name="arm"
     id="2"
     style="stroke-miterlimit:10" />
  <path
     d="m 88.301,547.602 a 13.184,13.184 0 0 0 -1.748,4.7 0.984,0.984 0 0 0 -0.616,-0.028 c -3.377,1.013 -6.716,2.093 -10.071,3 a 18.732,18.732 0 0 1 -4.889,0.636 20.741,20.741 0 0 1 -17.993,-10.331 11,11 0 0 1 -1.476,-5.355 c 0,-3.308 1.7,-6.583 4.976,-9.62 a 11.342,11.342 0 0 0 2.677,-4.493 c 0.614,-1.647 1.1,-3.341 1.748,-4.748 a 125.159,125.159 0 0 0 5.87,-15.563 c 6.409,0.517 13.809,1 20.68,2.788 6.871,1.788 13.159,4.867 17.525,10.519 -5.054,9.719 -10.913,19.095 -16.683,28.495 z"
     stroke="none"
     data-name="wrist"
     id="3"
     style="fill:none;stroke-miterlimit:10" />
  <path
     d="m 70.96905,555.40871 h 0.009 c 1.64044,0 3.24138,-0.2081 4.758,-0.6184 2.30769,-0.62626 4.65547,-1.3476 6.92595,-2.0452 1.02467,-0.31485 2.08424,-0.64041 3.12971,-0.9541 0.11636,-0.0355 0.23755,-0.0551 0.36076,-0.0584 0.33526,-1.61499 0.90102,-3.05616 1.72275,-4.39188 0.52539,-0.8558 1.0515,-1.7114 1.57765,-2.56708 5.1074,-8.30606 10.38706,-16.89239 14.93953,-25.61459 -3.79776,-4.78436 -9.38197,-8.08627 -17.05893,-10.08951 -6.29072,-1.63919 -13.08061,-2.17712 -19.07121,-2.65173 -0.37723,-0.0299 -0.75154,-0.0595 -1.12269,-0.0892 -1.65339,5.35407 -3.59575,10.47995 -5.77594,15.24167 -0.40694,0.88367 -0.74845,1.88315 -1.10999,2.94129 -0.19821,0.58011 -0.40317,1.17996 -0.62419,1.77319 -0.62337,1.65826 -1.39456,3.37335 -2.8049,4.6842 -1.59036,1.4729 -2.80614,3.01105 -3.61359,4.57169 -0.7975,1.54147 -1.20187,3.1167 -1.20187,4.68137 0.002,1.69748 0.47749,3.41812 1.4134,5.11432 1.69486,3.0737 4.29613,5.64703 7.52257,7.4418 3.09386,1.72101 6.55733,2.63067 10.01599,2.63061 v 0 h 0.008 m -0.008,0.5 c -7.0235,9e-5 -14.34184,-3.73956 -17.97641,-10.33099 -1.01132,-1.83282 -1.47354,-3.61517 -1.47555,-5.35516 0,-3.30848 1.69555,-6.58258 4.97571,-9.62049 1.31613,-1.22326 2.05896,-2.85022 2.67663,-4.49328 0.61365,-1.64716 1.1001,-3.3407 1.74805,-4.74768 2.33548,-5.1009 4.2612,-10.29865 5.86999,-15.56305 6.40891,0.51672 13.80893,0.99719 20.68009,2.78766 6.86914,1.79241 13.15899,4.86669 17.5251,10.51867 -5.05443,9.72132 -10.91231,19.09754 -16.68334,28.49793 -0.94873,1.54217 -1.47155,3.12475 -1.74807,4.69519 -0.11626,-0.04 -0.23836,-0.0654 -0.36318,-0.0654 -0.0833,0 -0.16771,0.0113 -0.25248,0.0372 -3.37708,1.01336 -6.71573,2.0932 -10.07059,3.0036 -1.57446,0.42596 -3.22159,0.63586 -4.88895,0.63586 -0.006,0 -0.0114,0 -0.017,0 z"
     stroke="none"
     fill="#1a1818"
     data-name="arm"
     id="4"
     style="stroke-miterlimit:10" />
  <path
     d="m 219.012,164.472 a 14.206,14.206 0 0 0 2.495,-8.571 v -0.339 c -0.057,-3.47 -0.073,-7.263 -0.073,-11.122 0,-5.41 -0.238,-10.462 -0.232,-15.438 1.371,0.783 2.887,3.494 3.981,4.919 8.381,10.928 21.4,20.488 32.624,18.9 v 30.569 c -8.468,-0.256 -17.039,-3.183 -25.743,-8.446 -4.548,-2.753 -10.016,-5.926 -14.838,-8.534 a 12.661,12.661 0 0 0 1.786,-1.938 z"
     stroke="none"
     id="path40"
     data-name="neck"
     style="fill:none;stroke-miterlimit:10" />
  <path
     d="m 259.824,152.862 h 0.246 c 9.378,0 14.112,-2.2 29.824,-17.58 2.089,-2.045 3.835,-5.315 5.916,-6.744 0.03,1.453 0.036,2.331 0.036,3.859 0,5.285 -0.141,10.866 -0.141,15.771 0,1.738 0.018,3.391 0.067,4.919 0.131,4.023 0.363,7.321 1.75,10.151 a 10.94,10.94 0 0 0 0.537,0.963 c -3.948,3 -8.8,6.926 -12.6,9.744 -8.549,6.338 -17.063,9.283 -25.638,9.463 z"
     stroke="none"
     id="path45"
     data-name="neck"
     style="fill:none;stroke-miterlimit:10" />
  <path
     d="m 257.809,464.773 a 7.974,7.974 0 0 1 -4.814,-2.055 6.762,6.762 0 0 1 0,-10.052 7.979,7.979 0 0 1 4.814,-2.055 z"
     stroke="none"
     id="path51"
     data-name="navel"
     style="fill:none;stroke-miterlimit:10" />
  <path
     d="m 259.824,450.673 a 7.933,7.933 0 0 1 4.144,1.99 6.768,6.768 0 0 1 0,10.054 7.919,7.919 0 0 1 -4.144,1.99 z"
     stroke="none"
     id="path56"
     data-name="navel"
     style="fill:none;stroke-miterlimit:10" />
  <path
     d="m 242.306,1040.802 a 33.591,33.591 0 0 1 -1.453,9.764 58.342,58.342 0 0 0 -2.576,16.818 52.618,52.618 0 0 0 3.246,18.159 24.577,24.577 0 0 1 1.8,7.957 6.862,6.862 0 0 1 -2.5,5.719 12.712,12.712 0 0 1 -7.987,2.674 15.014,15.014 0 0 1 -6.8,-1.647 17.9,17.9 0 0 0 -4.576,-1.587 c 0,-0.3 -0.008,-0.608 -0.008,-0.91 a 30.229,30.229 0 0 1 1.06,-8.75 14.233,14.233 0 0 1 4.647,-7.13 1.0092413,1.0092413 0 1 0 -1.276,-1.564 v 0 a 16.28,16.28 0 0 0 -5.3,8.107 32.182,32.182 0 0 0 -1.147,9.338 c 0,0.2 0,0.392 0,0.587 a 30.863,30.863 0 0 0 -3.436,-0.18 c -1.7,0 -3.371,0.083 -5.022,0.153 a 8.1,8.1 0 0 1 -1.046,-3.894 15.062,15.062 0 0 1 1.9,-6.359 24.328,24.328 0 0 0 2.562,-6.831 1.0098219,1.0098219 0 1 0 -2,-0.281 v 0 a 22.814,22.814 0 0 1 -2.384,6.241 16.884,16.884 0 0 0 -2.1,7.228 9.881,9.881 0 0 0 0.84,3.963 c -0.2,0 -0.4,0.02 -0.6,0.018 -0.6,0 -1.185,-0.012 -1.77,-0.042 -2.225,-0.115 -4.483,0.026 -6.427,-0.271 a 6.439,6.439 0 0 1 -4.7,-2.638 c -0.01,-0.016 -0.026,-0.022 -0.036,-0.036 0.719,-2.158 1.407,-4.219 2.077,-6.223 h 0.063 a 7.781,7.781 0 0 0 4.5,-1.661 c 1.245,-0.894 2.289,-1.942 3.119,-2.646 a 1.009,1.009 0 1 0 -1.308,-1.536 v 0 c -0.922,0.789 -1.912,1.774 -2.985,2.542 a 6.479,6.479 0 0 1 -2.687,1.215 q 0.618,-1.85 1.227,-3.678 a 1.0090832,1.0090832 0 1 0 -1.914,-0.64 c -1.245,3.726 -2.495,7.467 -3.859,11.554 a 6.779,6.779 0 0 0 -1.849,-0.246 c -1.447,0.01 -2.836,0.295 -3.993,0.289 a 3.661,3.661 0 0 1 -1.99,-0.46 3.89,3.89 0 0 1 -1.494,-2.1 5.034,5.034 0 0 1 -0.353,-1.73 2.761,2.761 0 0 1 0.545,-1.686 10.07,10.07 0 0 1 2.537,-2.144 10.964,10.964 0 0 0 3.016,-2.691 c 2.428,-3.589 5.258,-7.13 7.511,-10.983 a 25.239,25.239 0 0 0 3.922,-12.9 22.735,22.735 0 0 0 -0.878,-6.175 12.4,12.4 0 0 1 -0.414,-3.286 12.108,12.108 0 0 1 1.36,-5.852 15.633,15.633 0 0 0 2.051,-6.023 53.3,53.3 0 0 0 16.528,2.5 54.777,54.777 0 0 0 22.067,-4.394 35.636,35.636 0 0 1 0.29,4.348 z"
     stroke="none"
     id="path62"
     data-name="foot"
     style="fill:none;stroke-miterlimit:10" />
  <path
     d="m 318.023,1051.13 a 8.515,8.515 0 0 1 -0.386,2.491 21.419,21.419 0 0 0 -0.939,6.211 25.764,25.764 0 0 0 3.769,12.715 130.783,130.783 0 0 0 7.424,10.957 c 1.179,1.629 3.018,2.525 4.443,3.532 a 7.525,7.525 0 0 1 1.722,1.522 2.8,2.8 0 0 1 0.616,1.77 4.673,4.673 0 0 1 -0.277,1.478 3.383,3.383 0 0 1 -3.666,2.7 c -1.459,0.01 -3.256,-0.426 -5.075,-0.436 a 7.82,7.82 0 0 0 -1.476,0.149 c -1.324,-3.928 -2.59,-7.691 -3.851,-11.435 a 1.01,1.01 0 0 0 -1.914,0.644 c 0.418,1.239 0.84,2.489 1.258,3.734 a 4.955,4.955 0 0 1 -3.732,-1.651 25.8,25.8 0 0 1 -2.786,-3.96 1.0102554,1.0102554 0 1 0 -1.7,1.092 v 0 a 26.97,26.97 0 0 0 3.032,4.273 7.014,7.014 0 0 0 5.246,2.273 c 0.2,0 0.4,-0.012 0.61,-0.026 q 0.99,2.943 2.019,6 a 11.415,11.415 0 0 1 -7.854,3.161 h -0.172 c -0.985,-0.016 -1.972,-0.024 -2.955,-0.024 -0.848,0 -1.7,0.01 -2.543,0.024 a 20.612,20.612 0 0 0 1,-6.07 13.968,13.968 0 0 0 -4.952,-10.916 1.01,1.01 0 0 0 -1.32,1.528 11.919,11.919 0 0 1 4.253,9.388 18.965,18.965 0 0 1 -1.124,6.126 c -2.828,0.093 -5.654,0.287 -8.488,0.62 0.006,-1 0.022,-2.035 0.022,-3.113 a 28.736,28.736 0 0 0 -1.009,-8.627 11.845,11.845 0 0 0 -5.622,-7.049 1.0093152,1.0093152 0 0 0 -0.985,1.762 v 0 a 9.8,9.8 0 0 1 4.683,5.9 26.819,26.819 0 0 1 0.914,8.016 c 0,1.149 -0.02,2.273 -0.024,3.371 a 73.735,73.735 0 0 0 -8.462,1.7 16.315,16.315 0 0 1 -4.16,0.583 8.607,8.607 0 0 1 -6.415,-2.414 9.091,9.091 0 0 1 -2.309,-6.494 18.1,18.1 0 0 1 1.173,-6.108 57.894,57.894 0 0 0 3.6,-19.766 54.143,54.143 0 0 0 -2.218,-15.291 c -0.321,-1.07 -0.961,-2.384 -1.526,-3.95 a 15.245,15.245 0 0 1 -1.038,-5.119 8.953,8.953 0 0 1 2.358,-6.116 9.3,9.3 0 0 0 3.514,1.922 c 1.694,0.557 3.5,0.894 5.081,1.395 a 28.278,28.278 0 0 0 8.569,1.173 c 5.9,-0.01 11.849,-1.189 17.372,-1.183 1.023,0 2.027,0.05 3.016,0.143 a 24.144,24.144 0 0 0 1.542,5.474 c 0.858,2.023 1.748,3.797 1.742,5.921 z"
     stroke="none"
     id="path67"
     data-name="foot"
     style="fill:none;stroke-miterlimit:10" />
  <path
     d="m 228.276,579.712 c -9.146,-8.809 -17.933,-18.246 -30,-23.5 0.172,-0.717 0.311,-1.425 0.466,-2.138 a 0.954,0.954 0 0 0 0.527,0.168 c 9.443,-0.03 17.4,-3.7 23.942,-10.383 5.652,-5.759 11.469,-11.385 17.131,-17.186 4.368,-4.455 9.293,-6.837 15.252,-6.847 0.69,0 1.4,0.032 2.115,0.1 0.032,0 0.061,-0.01 0.093,-0.01 v 72.977 c -10.229,-0.374 -20.58,-4.554 -29.526,-13.181 z"
     stroke="none"
     id="path73"
     data-name="groin"
     style="fill:none;stroke-miterlimit:10" />
  <path
     d="m 259.824,519.912 a 0.8,0.8 0 0 0 0.139,0.008 21.123,21.123 0 0 1 2.909,-0.2 19.628,19.628 0 0 1 10.737,3.24 38.659,38.659 0 0 1 8.536,7.822 c 9.608,11.334 22.186,21.548 38.137,23.405 0.238,0.785 0.474,1.57 0.745,2.342 -12.646,5.924 -23.407,16.891 -33.363,25.492 a 43.383,43.383 0 0 1 -27.84,10.922 z"
     stroke="none"
     id="path78"
     data-name="groin"
     style="fill:none;stroke-miterlimit:10" />
  <path
     d="m 148.755,588.775 a 484.608,484.608 0 0 1 7.152,-80.783 c 1.357,-8.062 3.133,-16.157 4.164,-24.342 12.822,2.283 22.485,8.278 29,16.954 6.574,8.756 9.958,20.286 9.96,33.538 a 93.578,93.578 0 0 1 -2.895,22.392 c -0.006,0.026 0,0.051 0,0.075 a 5.254,5.254 0 0 0 -2.055,1.278 7.945,7.945 0 0 0 -1.665,3.795 11.4,11.4 0 0 1 -0.969,3.212 59.91,59.91 0 0 1 -19.5,20.527 c -7.051,4.582 -14.85,7.769 -23.118,10.832 -0.044,-2.49 -0.074,-4.983 -0.074,-7.478 z"
     stroke="none"
     id="path84"
     data-name="hip"
     style="fill:none;stroke-miterlimit:10" />
  <path
     d="m 357.957,483.568 c 0.2,1.72 0.424,3.432 0.646,5.127 a 16.7,16.7 0 0 0 0.462,2.283 l 0.291,1.05 a 14.8,14.8 0 0 1 0.513,3.7 c 0.311,18.23 6.153,35.7 7.319,53.514 0.866,13.115 1.478,26.185 1.639,39.3 l -0.41,6.978 a 25.63,25.63 0 0 1 -8.2,-2.85 c -3.28,-1.645 -6.51,-3.639 -9.09,-5 -20.555,-10.819 -31.518,-29.687 -31.536,-51.988 a 74.005,74.005 0 0 1 1.706,-15.557 c 2.194,-10.216 6.4,-18.179 12.507,-24.184 6.107,-6.005 14.164,-10.073 24.146,-12.372 z"
     stroke="none"
     id="path89"
     data-name="hip"
     style="fill:none;stroke-miterlimit:10" />
  <path
     d="m 428.275,546.672 q -7.309,-13.1 -14.566,-26.223 a 1.215,1.215 0 0 0 0.141,-0.129 c 4.6,-6.356 10.622,-9.5 17.307,-11.461 6.387,-1.867 13.337,-2.6 19.976,-3.932 2.394,4.392 4.174,9.669 6.225,14.893 2.124,5.4 4.552,10.735 8.423,14.925 a 0.843,0.843 0 0 0 0.1,0.073 c -0.137,4.705 -1,8.736 -2.9,11.964 a 17.582,17.582 0 0 1 -9.687,7.618 21.382,21.382 0 0 1 -7.358,1.225 c -5.24,0 -10.606,-1.576 -15.422,-3.208 a 24.042,24.042 0 0 0 -2.239,-5.745 z"
     stroke="none"
     id="path95"
     data-name="wrist"
     style="fill:none;stroke-miterlimit:10" />
  <path
     d="m 510.473,578.656 a 21.1,21.1 0 0 1 -8.02,-2.134 42.43,42.43 0 0 1 -5.842,-3.615 14.93,14.93 0 0 0 -6.728,-2.642 c 0.026,-0.61 0.018,-1.217 0.057,-1.827 a 1.0094991,1.0094991 0 1 0 -2.015,-0.127 v 0 c -0.135,2.128 -0.2,4.249 -0.2,6.362 0,14.635 2.88,28.932 3.886,43.25 0.428,5.884 2.344,11.643 2.333,17.9 a 26.942,26.942 0 0 1 -1.657,9.437 C 484.247,631.06 482.251,617 480.85,602.594 a 1.01,1.01 0 0 0 -2.01,0.2 c 1.367,14.041 3.306,28.068 11,42.232 a 4.472,4.472 0 0 1 -2.658,2.271 c -1.954,0.711 -4.7,0.64 -7.3,0.971 a 10.388,10.388 0 0 0 -3.732,1.1 5.839,5.839 0 0 0 -1.91,1.724 67.4,67.4 0 0 1 -9.881,-15.345 c -2.963,-6.314 -5.593,-14.114 -8.769,-25.252 a 1.01,1.01 0 0 0 -1.942,0.555 v 0 c 3.189,11.177 5.844,19.075 8.882,25.555 l 0.006,0.012 a 6.771,6.771 0 0 0 -1.185,2.463 c -0.422,1.584 -0.535,3.187 -1,4.427 a 4.28,4.28 0 0 1 -0.945,1.578 4.009,4.009 0 0 1 -1.27,0.854 c -6.37,-7.2 -8.684,-16.344 -11.582,-25.4 a 94.815,94.815 0 0 1 -2.148,-9.762 26.813,26.813 0 0 0 -3.381,-9.439 c -6.677,-10.212 -7.868,-21.179 -8.906,-33.018 -0.4,-4.342 -0.275,-9 -1.1,-13.6 4.586,1.51 9.711,2.927 14.913,2.929 a 23.36,23.36 0 0 0 8.048,-1.344 19.617,19.617 0 0 0 10.739,-8.494 26.1,26.1 0 0 0 3.157,-12.115 c 10.924,3.331 20.452,7.947 25.9,16.316 3.351,5.129 7.761,9 12.148,12.727 4.15,3.52 8.252,6.938 11.546,11.084 a 10.318,10.318 0 0 1 -6.997,2.833 z"
     stroke="none"
     id="path101"
     data-name="hand"
     style="fill:none;stroke-miterlimit:10" />
  <path
     d="m 363.578,654.917 c -7.622,35.458 -17.1,70.551 -24.8,106.065 a 78.018,78.018 0 0 0 -1.413,9.259 55.465,55.465 0 0 0 -25.24,-6.08 c -13.349,0 -26.362,4.612 -38.692,11.144 a 9.511,9.511 0 0 0 -2.687,2.047 c -0.793,-23.528 -2.2,-53.748 -2.862,-75.781 -0.616,-20.511 -0.86,-41.074 -2.184,-61.588 -0.809,-12.43 -0.378,-25.327 -4.931,-37.64 a 1,1 0 0 0 -0.947,-0.652 v -6.73 a 45.385,45.385 0 0 0 29.16,-11.415 c 9.994,-8.656 20.636,-19.418 32.765,-25.125 5.075,12.989 14.693,23.829 28.439,31.039 2.479,1.3 5.743,3.317 9.122,5.012 a 26.652,26.652 0 0 0 9.11,3.064 130.458,130.458 0 0 1 0.658,13.05 c 0.002,14.931 -2.359,29.731 -5.498,44.331 z"
     stroke="none"
     id="path107"
     data-name="thigh"
     style="fill:none;stroke-miterlimit:10" />
  <path
     d="m 257.804,601.696 a 1,1 0 0 0 -0.967,0.7 v 0 c -3.886,13.022 -4.12,26.463 -4.909,39.6 -1.326,22.19 -1.938,44.434 -2.1,66.657 -0.166,22.392 -0.684,44.741 -2.321,67.016 a 80.512,80.512 0 0 0 -40.957,-11.3 79.7,79.7 0 0 0 -10.46,0.688 42.2,42.2 0 0 0 -14.756,4.871 c -4.792,-26.49 -11.231,-52.765 -18.627,-78.651 a 367.245,367.245 0 0 1 -13.829,-92.89 c 8.543,-3.151 16.712,-6.431 24.166,-11.276 a 61.91,61.91 0 0 0 20.141,-21.195 c 0.947,-1.655 1.038,-3.514 1.49,-4.935 a 4.391,4.391 0 0 1 0.894,-1.732 3.4,3.4 0 0 1 1.891,-1 0.932,0.932 0 0 0 0.22,-0.1 c 11.463,5.044 20.052,14.178 29.19,23 9.287,8.962 20.167,13.413 30.932,13.783 z"
     stroke="none"
     id="path113"
     data-name="thigh"
     style="fill:none;stroke-miterlimit:10" />
  <path
     d="m 341.461,816.851 c 1.183,6.811 2.537,13.6 3.839,20.375 -10.482,7.1 -22.238,9.919 -34.213,9.921 a 98.841,98.841 0 0 1 -29.665,-5 67.66,67.66 0 0 0 -4.37,-21.871 c -4.4,-11.306 -5.351,-23.561 -6.142,-35.827 a 0.93,0.93 0 0 0 0.055,-0.319 c -0.02,-0.686 -0.042,-1.407 -0.065,-2.107 a 6.013,6.013 0 0 1 0.648,-2.37 6.382,6.382 0 0 1 2.832,-2.566 c 12.162,-6.445 24.873,-10.91 37.747,-10.908 a 53.5,53.5 0 0 1 25.085,6.233 c -0.149,2.182 -0.248,4.362 -0.248,6.542 10e-4,12.702 2.325,25.359 4.497,37.897 z"
     stroke="none"
     id="path119"
     data-name="knee"
     style="fill:none;stroke-miterlimit:10" />
  <path
     d="m 244.594,805.417 a 58.387,58.387 0 0 1 -3.971,14.849 61.552,61.552 0 0 0 -4.461,21.655 c -1.173,0.4 -2.475,1 -3.777,1.57 a 17.485,17.485 0 0 1 -3.995,1.389 c -7.792,1.076 -15.83,2.289 -23.633,2.287 -11.471,-0.012 -22.345,-2.576 -31.5,-11.926 1.625,-10.176 3.242,-20.355 4.75,-30.555 1.3,-8.859 4.073,-18.218 4.082,-27.232 a 36.543,36.543 0 0 0 -0.41,-5.386 39.4,39.4 0 0 1 14.675,-5 77.77,77.77 0 0 1 10.2,-0.672 78.567,78.567 0 0 1 40.8,11.51 c -0.713,9.182 -1.598,18.354 -2.76,27.511 z"
     stroke="none"
     id="path124"
     data-name="knee"
     style="fill:none;stroke-miterlimit:10" />
  <path
     d="m 240.701,1029.88 c 0.42,1.518 0.743,3.016 1,4.51 a 52.378,52.378 0 0 1 -21.762,4.447 50.943,50.943 0 0 1 -16.4,-2.549 31.008,31.008 0 0 0 -1.3,-7.937 q -5.9,-22.1 -11.78,-44.211 a 1.029,1.029 0 0 0 0.137,-0.03 c 10.085,-4.526 20.731,-9.061 31.562,-9.053 a 35.456,35.456 0 0 1 14.277,2.931 c -0.218,4.5 -0.375,8.991 -0.375,13.488 0.002,12.835 1.118,25.667 4.641,38.404 z"
     stroke="none"
     id="path130"
     data-name="ankle"
     style="fill:none;stroke-miterlimit:10" />
  <path
     d="m 316.382,1023.295 a 47.067,47.067 0 0 0 -1.99,12.249 c 0,0.709 0.036,1.421 0.093,2.136 -0.916,-0.073 -1.835,-0.117 -2.759,-0.117 -5.8,0.01 -11.744,1.189 -17.372,1.183 a 26.282,26.282 0 0 1 -7.963,-1.08 c -2.321,-0.721 -4.754,-1.1 -6.449,-1.942 a 4.772,4.772 0 0 1 -1.952,-1.6 5.1,5.1 0 0 1 -0.747,-2.921 14.219,14.219 0 0 1 0.491,-3.42 148.868,148.868 0 0 0 4.025,-36.548 c 0,-4.447 -0.157,-8.894 -0.365,-13.341 a 1,1 0 0 0 1,0.18 43.622,43.622 0 0 1 15.7,-2.969 c 9.949,0 19.489,3.5 28.853,8.952 l 0.02,0.008 q -5.292,19.611 -10.585,39.23 z"
     stroke="none"
     id="path135"
     data-name="ankle"
     style="fill:none;stroke-miterlimit:10" />
  <path
     d="m 350.485,877.24 q 0.03,1.217 0.028,2.434 c 0,15.817 -3.522,31.332 -7.82,46.742 -5.167,18.522 -10.194,37.081 -15.2,55.646 -9.406,-5.416 -19.144,-8.973 -29.412,-8.974 a 45.661,45.661 0 0 0 -16.415,3.1 0.99,0.99 0 0 0 -0.345,0.224 c -0.365,-7.2 -0.894,-14.388 -1.419,-21.55 -1.225,-16.728 -2.348,-33.387 -2.348,-50.048 a 281.2,281.2 0 0 1 2.2,-36.584 169.942,169.942 0 0 0 1.766,-22.014 c 0,-0.646 -0.02,-1.292 -0.032,-1.94 a 100.273,100.273 0 0 0 29.6,4.891 c 12.012,0 23.938,-2.806 34.62,-9.812 2.385,12.575 4.481,25.148 4.777,37.885 z"
     stroke="none"
     id="path140"
     data-name="leg"
     style="fill:none;stroke-miterlimit:10" />
  <path
     d="m 240.266,905.361 c 0,17.822 -1.213,35.654 -2.578,53.53 -0.432,5.644 -0.848,11.3 -1.155,16.956 a 37.54,37.54 0 0 0 -14.374,-2.81 c -11.338,0.006 -22.16,4.655 -32.218,9.154 q -6.913,-25.888 -13.97,-51.74 c -4.637,-16.891 -8.266,-33.791 -8.264,-51.007 a 113.145,113.145 0 0 1 1.286,-17.216 c 1.26,-8.185 2.57,-16.366 3.878,-24.55 9.39,8.985 20.567,11.518 31.887,11.506 8.012,0 16.134,-1.233 23.91,-2.307 a 18.9,18.9 0 0 0 4.53,-1.538 c 1.035,-0.456 2.049,-0.912 2.927,-1.26 0,0.309 -0.016,0.616 -0.016,0.924 a 150.954,150.954 0 0 0 1.661,20.214 298.131,298.131 0 0 1 2.496,40.144 z"
     stroke="none"
     id="path145"
     data-name="leg"
     style="fill:none;stroke-miterlimit:10" />
  <path
     d="m 305.784,169.904 c 15.555,6.05 31.164,11.851 45.585,20.494 a 32.107,32.107 0 0 0 11.362,3.646 c 4.025,0.666 8.149,1.058 11.934,1.889 10.3,2.271 18.066,6.819 24.128,13.213 6.062,6.394 10.406,14.673 13.716,24.4 a 129.48,129.48 0 0 1 6.942,42.01 139.937,139.937 0 0 1 -1.118,17.226 c -15.836,-3.361 -31.831,-10.753 -44.542,-19.461 a 240.409,240.409 0 0 1 -83.9,-100.207 c 3.131,-2.424 6.522,-5.127 9.4,-7.309 a 16.747,16.747 0 0 0 6.493,4.099 z"
     stroke="none"
     id="path151"
     data-name="shoulder"
     style="fill:none;stroke-miterlimit:10" />
  <path
     d="m 99.603,295.814 a 128.224,128.224 0 0 1 -1.447,-19.188 136.255,136.255 0 0 1 6.134,-40.024 c 3.173,-10.357 7.42,-19.485 13.684,-26.526 6.264,-7.041 14.535,-12.043 25.961,-14.185 7.348,-1.393 15.787,-1.611 22.343,-5.458 14.467,-8.549 29.838,-14.794 45.468,-20.765 a 19.12,19.12 0 0 0 3.734,-1.91 c 3.553,1.9 7.539,4.172 11.28,6.375 a 1.018,1.018 0 0 0 -0.143,0.19 v 0 c -15.432,32.137 -35.405,60.954 -62.4,84.37 -18.621,16.154 -40.886,29.832 -64.614,37.121 z"
     stroke="none"
     id="path157"
     data-name="shoulder"
     style="fill:none;stroke-miterlimit:10" />
  <path
     d="m 371.757,386.299 a 84.615,84.615 0 0 1 13.536,-8.018 28.777,28.777 0 0 1 11.978,-2.624 c 5.852,0 12.658,1.685 22.436,4.788 -0.044,0.856 -0.091,1.712 -0.091,2.6 -0.008,5.321 1.034,11.223 5.612,16.7 a 59.833,59.833 0 0 1 7.563,11.619 C 424.083,416.792 414.273,419 404.309,419 a 83.7,83.7 0 0 1 -24.251,-3.87 81.942,81.942 0 0 0 -8.301,-28.831 z"
     stroke="none"
     id="path163"
     data-name="elbow"
     style="fill:none;stroke-miterlimit:10" />
     style="stroke-miterlimit:10" /> -->
  <path
     d="m 401.037,497.229 c -11.132,-20.706 -21.056,-41.861 -21.052,-65.4 q 0,-2.813 0.194,-5.674 0.17,-2.507 0.17,-4.952 c 0,-1.32 -0.059,-2.618 -0.131,-3.914 a 85.231,85.231 0 0 0 24.094,3.738 c 10.18,0 20.315,-2.253 29.35,-7.826 5.7,12.317 7.622,26.195 8.847,40.206 a 307.587,307.587 0 0 0 8.1,49.568 c -6.474,1.294 -13.429,2.029 -20.014,3.946 -6.712,1.954 -13.056,5.234 -17.913,11.637 q -5.869,-10.643 -11.645,-21.329 z"
     stroke="none"
     id="path168"
     data-name="arm"
     style="fill:none;stroke-miterlimit:10" />
  <path
     d="m 362.26,334.145 a 99.031,99.031 0 0 1 -1.284,-15.531 74.736,74.736 0 0 1 12.731,-42.374 0.975,0.975 0 0 0 0.147,-0.474 c 12.767,8.532 28.51,15.716 44.235,19.029 -0.361,2.62 -0.771,5.24 -1.272,7.86 a 47.924,47.924 0 0 0 -0.82,9.077 c 0,6.029 0.922,11.748 1.451,17.521 1.219,13.286 2.616,26.439 2.614,39.709 q 0,4.687 -0.268,9.4 c -9.546,-3.01 -16.389,-4.715 -22.523,-4.719 a 30.81,30.81 0 0 0 -12.786,2.794 83.759,83.759 0 0 0 -13.25,7.782 c -2.994,-14.917 -6.642,-35.381 -8.975,-50.074 z"
     stroke="none"
     id="path173"
     data-name="arm"
     style="fill:none;stroke-miterlimit:10" />
  <path
     d="m 132.734,461.124 c -5.492,19 -16.72,35.422 -25.363,53.245 -0.454,0.937 -0.929,1.863 -1.4,2.792 -4.7,-5.656 -11.185,-8.752 -18,-10.527 -6.972,-1.815 -14.312,-2.307 -20.609,-2.816 4.3,-14.818 6.171,-30.147 7.489,-45.391 1.4,-16.255 3.956,-31.823 10.392,-46.011 8.815,6.126 18.528,8.5 28.476,8.5 a 88.338,88.338 0 0 0 23.236,-3.53 77.89,77.89 0 0 1 0.908,11.873 c -0.002,10.67 -2.057,21.261 -5.129,31.865 z"
     stroke="none"
     id="jaw1"
     data-name="arm"
     style="fill:none;stroke-miterlimit:10" />  
  <path
     id="Jaw-2"
     data-name="face"
     d="m 307.743,63.989 c -4.417,-18.238 8.882,-32.244 -12.884,-45.373 -19.469,-11.742 -41.425,0.117 -60.254,-2.493 -11.169,-1.548 -28.534,6.506 -25.936,32.388 2.598,25.882 -3.884,22.7 0.587,38.554 1.34,6.312 2,9.473 3.343,15.789 0.977,6.619 -0.135,12.388 4.976,20.868 4.542,7.537 17.349,22.792 29.592,28.05 a 15.724,15.724 0 0 0 1.7,0.495 13.6,13.6 0 0 0 3.1,0.279 c 13.49,0.761 18.312,0.711 25.948,-6.5 7.636,-7.211 23.549,-17.475 25.5,-36.572 1.951,-19.097 8.743,-27.251 4.328,-45.485 z"
     fill="none"
     stroke="#1a1818"
     stroke-miterlimit="10"
     stroke-width="0.5"
     style="isolation:isolate;mix-blend-mode:multiply" />
  <path
     d="m 139.922,402.515 c -1.526,3.652 -2.43,8.837 -3.1,12.814 a 86.858,86.858 0 0 1 -23.106,3.569 c -9.742,0 -19.085,-2.313 -27.6,-8.318 a 81.643,81.643 0 0 1 10.125,-16.06 8.609,8.609 0 0 0 1.746,-3.474 13.473,13.473 0 0 0 0.295,-3.228 c 0,-0.3 0,-0.589 0,-0.878 0,-0.4 0.006,-0.8 0.026,-1.193 0.087,-1.72 0.137,-3.44 0.18,-5.157 a 69.774,69.774 0 0 1 21.623,-3.92 c 9.013,0.006 17.782,2.461 25.408,9.178 a 1.055,1.055 0 0 0 0.26,0.151 163.153,163.153 0 0 1 -5.857,16.516 z"
     stroke="none"
     id="path184"
     data-name="elbow"
     style="fill:none;stroke-miterlimit:10" />
  <path
     d="m 146.367,383.95 c -7.919,-6.774 -17.075,-9.306 -26.261,-9.3 a 70.988,70.988 0 0 0 -21.578,3.807 c 0.028,-1.69 0.048,-3.379 0.048,-5.069 0,-5.82 -0.123,-11.629 -0.123,-17.426 0,-6.225 0.141,-12.434 0.725,-18.633 0.761,-8.139 2.612,-16.153 2.616,-24.693 a 49.063,49.063 0 0 0 -0.979,-10 c -0.331,-1.6 -0.6,-3.206 -0.866,-4.81 a 171.479,171.479 0 0 0 45.268,-22.031 c 6.171,11.869 12.2,24.713 13.044,38.284 0.071,1.153 0.1,2.287 0.1,3.409 a 83.688,83.688 0 0 1 -1.5,14.54 c -3.037,17.47 -5.643,34.985 -10.494,51.922 z"
     stroke="none"
     id="path189"
     data-name="arm"
     style="fill:none;stroke-miterlimit:10" />
  <path
     d="m 257.814,360.026 a 36.335,36.335 0 0 0 -16.165,4.338 25.9,25.9 0 0 0 -11.8,12.975 c -4.837,12.081 -12.23,18.008 -21.1,21.235 -8.87,3.227 -19.255,3.6 -29.733,4.239 -1.7,0.1 -3.605,0.139 -5.571,0.139 -3.353,0 -6.871,-0.1 -9.857,-0.1 -1.469,-16.746 -5.281,-33.419 -8.343,-49.243 a 0.76,0.76 0 0 0 -0.038,-0.093 c 1.264,-7.047 2.42,-14.11 3.648,-21.146 a 85.545,85.545 0 0 0 1.53,-14.887 q 0,-1.744 -0.109,-3.535 c -0.89,-14.172 -7.15,-27.319 -13.373,-39.3 a 211.32,211.32 0 0 0 18.64,-14.434 c 27.24,-23.631 47.373,-52.7 62.894,-85.024 0.008,-0.018 0.006,-0.036 0.014,-0.057 0.868,0.519 1.75,1.04 2.568,1.534 8.954,5.418 17.911,8.5 26.853,8.742 -0.032,56.477 -0.05,115.356 -0.058,174.617 z"
     stroke="none"
     id="path195"
     data-name="chest"
     style="fill:none;stroke-miterlimit:10" />
  <path
     d="m 361.373,343.326 v 0 c -3.117,16.637 -7.156,39.11 -8,59.818 a 1,1 0 0 0 -0.7,-0.287 q -0.684,0 -1.369,0 a 210.974,210.974 0 0 1 -36.825,-2.911 30.147,30.147 0 0 1 -11.007,-3.863 20.464,20.464 0 0 1 -7.578,-8.728 c -2.6,-5.339 -6.883,-9.612 -9.966,-14.342 -5.7,-8.7 -15.9,-12.852 -26.1,-13 0.008,-59.251 0.026,-118.12 0.059,-174.587 9.013,-0.188 17.967,-3.319 26.774,-9.857 0.513,-0.382 1.046,-0.783 1.591,-1.2 a 242.416,242.416 0 0 0 84.146,100.437 0.962,0.962 0 0 0 -0.379,0.325 v 0 a 76.783,76.783 0 0 0 -13.064,43.484 101.084,101.084 0 0 0 1.308,15.846 c 0.418,2.628 0.88,5.45 1.369,8.381 a 0.98,0.98 0 0 0 -0.259,0.484 z"
     stroke="none"
     id="path200"
     data-name="chest"
     style="fill:none;stroke-miterlimit:10" />
  <path
     d="m 257.805,448.593 a 10,10 0 0 0 -6.191,2.6 8.78,8.78 0 0 0 0,13.006 9.982,9.982 0 0 0 6.191,2.6 v 51.122 c -0.747,-0.067 -1.484,-0.1 -2.208,-0.1 -6.526,-0.01 -12.067,2.7 -16.7,7.457 -5.638,5.773 -11.451,11.4 -17.129,17.182 -6.25,6.354 -13.587,9.729 -22.509,9.778 -0.042,0 -0.079,0.02 -0.121,0.026 a 92.375,92.375 0 0 0 1.912,-18.1 c 0,-13.589 -3.474,-25.571 -10.363,-34.749 -6.843,-9.126 -17.067,-15.42 -30.375,-17.753 a 91.5,91.5 0 0 0 0.6,-10.012 c 0,-2.083 -0.085,-4.172 -0.277,-6.27 -0.379,-4.156 -0.763,-8.288 -0.763,-12.315 a 41.63,41.63 0 0 1 1.193,-10.529 104.2,104.2 0 0 0 3.143,-26.326 c 0,-3.769 -0.167,-7.545 -0.456,-11.318 2.911,0 6.362,0.095 9.689,0.1 1.99,0 3.934,-0.034 5.7,-0.143 10.442,-0.646 21,-1 30.3,-4.354 9.3,-3.354 17.3,-9.832 22.285,-22.388 a 23.858,23.858 0 0 1 10.904,-11.98 34.327,34.327 0 0 1 15.184,-4.088 c -0.005,28.849 -0.007,57.773 -0.009,86.554 z"
     stroke="none"
     id="path206"
     data-name="abdomen"
     style="fill:none;stroke-miterlimit:10" />
  <path
     d="m 357.131,460.12 q 0,1.641 0,3.284 c 0,6.046 0.042,12.107 0.606,18.2 a 0.925,0.925 0 0 0 -0.236,0.006 v 0 c -10.254,2.358 -18.684,6.584 -25.109,12.9 -6.425,6.316 -10.811,14.681 -13.066,25.2 a 76.161,76.161 0 0 0 -1.75,15.981 63.813,63.813 0 0 0 2.073,16.373 c -14.784,-2.021 -26.693,-11.645 -35.961,-22.584 a 40.72,40.72 0 0 0 -8.995,-8.222 21.665,21.665 0 0 0 -11.819,-3.553 23.055,23.055 0 0 0 -3.048,0.21 v -51.18 a 9.937,9.937 0 0 0 5.521,-2.533 8.784,8.784 0 0 0 0,-13.006 9.943,9.943 0 0 0 -5.521,-2.531 c 0,-28.807 0,-57.757 0.008,-86.628 9.679,0.149 19.19,4.1 24.408,12.089 3.254,4.95 7.461,9.184 9.838,14.116 a 22.492,22.492 0 0 0 8.316,9.554 32.087,32.087 0 0 0 11.734,4.146 212.954,212.954 0 0 0 37.176,2.941 c 0.458,0 0.918,0 1.377,0 a 1,1 0 0 0 0.644,-0.252 c -0.067,2 -0.113,3.991 -0.113,5.947 a 108.936,108.936 0 0 0 1.9,21.679 c 1.91,9.273 2.017,18.546 2.017,27.863 z"
     stroke="none"
     id="path211"
     data-name="abdomen"
     style="fill:none;stroke-miterlimit:10" />
  <path
     id="Path_38"
     data-name="lip"
     d="m 241.126,116.72 c 0,0 2.624,3.21 6.453,2.646 a 28.833,28.833 0 0 1 9.055,0.067 c 2.485,0.371 5.67,-0.682 9.083,0 3.413,0.682 7.8,-2.3 8.442,-3.119 0,0 -3.615,2.184 -7,1.084 -3.385,-1.1 -5.745,-0.448 -8.038,-0.149 -2.293,0.299 -5.418,-1.306 -9.368,0 -3.95,1.306 -7.757,0.389 -8.627,-0.529 z"
     fill="#1a1818"
     opacity="0.8"
     style="isolation:isolate;mix-blend-mode:multiply" />
  <path
     id="Path_39"
     data-name="lip"
     d="m 274.082,116.195 c -3.256,1.058 -3.623,1.058 -9.17,0.194 -2.729,-0.422 -5.476,0.587 -8.212,0.206 a 19.428,19.428 0 0 0 -5.918,-0.127 c -3.363,0.474 -5.874,1.542 -9.99,0.079 -0.131,-0.046 -0.008,0 0.095,0.075 a 7.926,7.926 0 0 0 6.126,1.575 c 1.982,-0.281 3.934,-0.723 5.937,-0.832 a 28.189,28.189 0 0 1 4.79,0.563 c 1.659,0.19 3.333,-0.375 4.98,-0.4 1.754,-0.028 3.421,0.634 5.153,0.761 a 8.976,8.976 0 0 0 6.288,-1.976 c 0.062,-0.05 -0.021,-0.142 -0.079,-0.118 z"
     fill="#1a1818"
     opacity="0.5"
     style="isolation:isolate;mix-blend-mode:multiply" />
  <path
     id="Path_40"
     data-name="lip"
     d="m 269.204,123.257 a 42.681,42.681 0 0 1 -23.171,0.141 c -0.133,-0.04 -0.182,0.153 -0.059,0.2 4.334,1.728 7.759,2.866 12.541,2.638 4.069,-0.2 7.329,-0.547 10.763,-2.8 a 0.1,0.1 0 0 0 -0.074,-0.179 z"
     fill="#1a1818"
     opacity="0.8"
     style="isolation:isolate;mix-blend-mode:multiply" />
  <path
     id="Path_41"
     data-name="nose"
     d="m 260.151,104.107 c -1.324,0.319 1.708,-2.957 4.768,-3.2 3.06,-0.243 2.806,1.688 0.8,2.134 -2.006,0.446 0.951,0.914 2.564,0.331 a 4.645,4.645 0 0 1 -3.742,0.567 7.166,7.166 0 0 0 -4.39,0.168 z"
     fill="#1a1818"
     opacity="0.8"
     style="isolation:isolate;mix-blend-mode:multiply" />
  <path
     id="Path_42"
     data-name="nose"
     d="m 255.708,104.107 c 1.326,0.319 -1.71,-2.957 -4.774,-3.2 -3.064,-0.243 -2.8,1.688 -0.793,2.134 2.007,0.446 -0.949,0.914 -2.566,0.331 a 4.619,4.619 0 0 0 3.734,0.567 7.2,7.2 0 0 1 4.399,0.168 z"
     fill="#1a1818"
     opacity="0.8"
     style="isolation:isolate;mix-blend-mode:multiply" />
  <path
     id="Path_43"
     data-name="nose"
     d="m 249.992,104.231 c -0.824,-0.458 -1.738,-0.715 -2.57,-1.167 -1.562,-0.836 -1.5,-2.6 -1.149,-4.029 a 27.158,27.158 0 0 1 2.283,-5.327 c 0.036,-0.071 -0.055,-0.127 -0.095,-0.059 -1.486,2.277 -3.456,4.463 -3.446,7.327 0.012,2.527 2.634,3.672 4.83,3.809 a 0.3,0.3 0 0 0 0.147,-0.554 z"
     fill="#1a1818"
     opacity="0.5"
     style="isolation:isolate;mix-blend-mode:multiply" />
  <path
     id="Path_44"
     data-name="nose"
     d="m 265.859,103.907 c 0.824,-0.458 1.738,-0.715 2.574,-1.165 1.56,-0.84 1.5,-2.6 1.143,-4.033 a 26.975,26.975 0 0 0 -2.281,-5.329 0.058,0.058 0 0 1 0.1,-0.057 c 1.522,2.283 3.45,4.463 3.438,7.333 -0.006,2.523 -2.62,3.672 -4.816,3.8 a 0.3,0.3 0 0 1 -0.158,-0.549 z"
     fill="#1a1818"
     opacity="0.5"
     style="isolation:isolate;mix-blend-mode:multiply" />
  <path
     id="right_eye_brow"
     data-name="right eye brow"
     d="m 292.666,61.659 -0.016,-0.008 a 11.569,11.569 0 0 0 -6.064,-1.934 0.06,0.06 0 0 0 0,-0.109 c -0.075,-0.034 -0.153,-0.055 -0.232,-0.083 -0.079,-0.028 -0.1,0.1 -0.028,0.131 0.05,0.02 0.1,0.038 0.155,0.054 a 28.111,28.111 0 0 0 -3.876,0.008 33.259,33.259 0 0 0 -7.41,1.476 c -0.083,-0.014 -0.17,-0.018 -0.25,-0.036 -0.08,-0.018 -0.089,0.1 -0.026,0.123 -0.186,0.061 -0.367,0.129 -0.553,0.192 a 2.86,2.86 0 0 0 -0.711,0.1 0.059,0.059 0 0 0 0.02,0.115 c 0.024,0 0.046,0 0.069,0 -0.222,0.079 -0.448,0.151 -0.668,0.234 h -0.04 c -0.012,0 -0.014,0.016 -0.022,0.026 -0.19,0.073 -0.371,0.151 -0.557,0.226 -0.04,-0.008 -0.083,-0.014 -0.121,-0.024 -0.038,-0.01 -0.067,0.067 -0.024,0.083 -0.085,0.032 -0.169,0.067 -0.252,0.1 -0.133,-0.006 -0.27,0 -0.4,-0.014 -0.071,0 -0.087,0.115 -0.024,0.127 0.034,0.006 0.073,0.008 0.107,0.016 -0.18,0.075 -0.363,0.147 -0.541,0.224 a 2.953,2.953 0 0 0 -0.8,0.186 c -0.069,0.026 -0.044,0.129 0.026,0.109 0.07,-0.02 0.123,-0.008 0.186,-0.02 -0.228,0.1 -0.456,0.21 -0.678,0.317 -0.036,0.006 -0.079,0 -0.113,0.008 -0.034,0.008 -0.04,0.034 -0.038,0.063 -0.168,0.085 -0.331,0.17 -0.5,0.254 -0.046,0 -0.095,0 -0.139,-0.01 -0.044,-0.01 -0.061,0.075 -0.016,0.083 h 0.016 c -0.125,0.065 -0.244,0.133 -0.367,0.2 -0.059,0 -0.119,0.008 -0.178,0 -0.059,-0.008 -0.063,0.085 -0.012,0.093 h 0.012 c -0.166,0.091 -0.337,0.178 -0.5,0.27 v 0 c -0.055,0.032 -0.111,0.059 -0.166,0.091 a 0.99,0.99 0 0 0 -0.488,0.807 2.053,2.053 0 0 1 -0.591,0.1 l -0.008,0.008 c -0.04,-0.012 -0.091,-0.026 -0.131,-0.042 a 0.06,0.06 0 0 0 -0.055,0.1 2.413,2.413 0 0 0 0.537,0.293 0.39,0.39 0 0 0 0.022,0.418 3.466,3.466 0 0 1 -1.076,-0.616 c -0.083,-0.071 -0.2,0.052 -0.133,0.143 a 4.409,4.409 0 0 0 4.384,1.34 c 0.129,-0.036 0.087,-0.24 -0.032,-0.26 -0.119,-0.02 -0.256,-0.04 -0.385,-0.059 a 15.923,15.923 0 0 0 6.056,-1.017 c 0.666,-0.244 1.324,-0.521 1.978,-0.809 1.116,-0.484 2.22,-1 3.343,-1.443 2.327,-0.914 7.378,-1.675 7.461,-1.776 1.375,0.161 2.763,0.41 4.211,0.7 0.129,0.028 0.18,-0.145 0.093,-0.224 -0.132,-0.118 -0.306,-0.218 -0.455,-0.334 z"
     fill="#1a1818" />
  <path
     id="left_Eye_brow"
     data-name="left Eye brow"
     d="m 248.79,65.336 a 3.5,3.5 0 0 1 -1.074,0.62 0.426,0.426 0 0 0 0.032,-0.422 2.634,2.634 0 0 0 0.525,-0.3 0.057,0.057 0 0 0 -0.052,-0.1 c -0.042,0.014 -0.091,0.026 -0.129,0.042 l -0.008,-0.012 a 1.8,1.8 0 0 1 -0.591,-0.095 1.008,1.008 0 0 0 -0.492,-0.811 c -0.21,-0.123 -0.44,-0.238 -0.656,-0.357 h 0.008 c 0.052,-0.008 0.04,-0.1 -0.01,-0.1 a 1.812,1.812 0 0 1 -0.182,0 c -0.121,-0.065 -0.238,-0.131 -0.361,-0.2 h 0.014 c 0.046,-0.008 0.028,-0.087 -0.016,-0.083 l -0.137,0.01 c -0.166,-0.087 -0.331,-0.172 -0.5,-0.256 a 0.054,0.054 0 0 0 -0.036,-0.063 c -0.034,0 -0.075,0 -0.111,-0.006 -0.22,-0.107 -0.448,-0.212 -0.674,-0.317 0.059,0.012 0.117,0 0.178,0.02 0.061,0.02 0.091,-0.083 0.028,-0.111 a 3.025,3.025 0 0 0 -0.8,-0.184 c -0.178,-0.079 -0.359,-0.149 -0.541,-0.226 0.034,-0.008 0.069,-0.008 0.1,-0.016 0.067,-0.01 0.046,-0.129 -0.02,-0.125 -0.131,0.014 -0.266,0.008 -0.4,0.014 -0.087,-0.036 -0.174,-0.071 -0.26,-0.1 0.042,-0.012 0.022,-0.091 -0.02,-0.079 l -0.119,0.022 c -0.19,-0.075 -0.373,-0.155 -0.563,-0.226 -0.008,-0.01 -0.01,-0.024 -0.024,-0.024 h -0.03 c -0.224,-0.085 -0.454,-0.159 -0.68,-0.238 0.026,0 0.048,0 0.073,0 a 0.059,0.059 0 0 0 0.024,-0.115 2.838,2.838 0 0 0 -0.717,-0.1 c -0.184,-0.063 -0.365,-0.131 -0.551,-0.19 0.057,-0.03 0.042,-0.133 -0.022,-0.121 -0.081,0.016 -0.166,0.02 -0.246,0.036 a 33.216,33.216 0 0 0 -7.414,-1.48 29.06,29.06 0 0 0 -3.835,-0.02 c 0.038,-0.012 0.077,-0.024 0.113,-0.038 0.075,-0.032 0.052,-0.166 -0.026,-0.135 -0.078,0.031 -0.155,0.052 -0.234,0.083 a 0.063,0.063 0 0 0 -0.018,0.1 c -2.436,0.182 -4.921,0.781 -6.522,2.3 -0.083,0.079 -0.034,0.248 0.091,0.224 1.447,-0.295 2.842,-0.545 4.219,-0.706 0.083,0.1 5.129,0.864 7.451,1.778 1.794,0.706 3.524,1.593 5.327,2.251 a 15.922,15.922 0 0 0 6.052,1.017 c -0.129,0.02 -0.26,0.036 -0.385,0.061 -0.125,0.025 -0.161,0.22 -0.028,0.26 a 4.42,4.42 0 0 0 4.384,-1.34 c 0.065,-0.092 -0.046,-0.219 -0.135,-0.142 z"
     fill="#1a1818" />
  
  <path
     id="Path_35"
     data-name="ear"
     d="m 320.533,82.999 c 0.038,-3.662 0.708,-12.406 -4.227,-12.907 -2.039,-0.21 -5.26,3.464 -6.486,4.633 -2.878,2.747 -1.32,3.712 -2.479,7.557 -2.039,8.381 -1.5,15.567 -3.545,23.954 3.5,1.1 5.006,2.184 7.566,-1.671 1.048,-1.581 1.391,-3.308 2.259,-5.024 a 30.58,30.58 0 0 1 3.666,-4.812 c 2.594,-3.296 3.205,-7.661 3.246,-11.73 z"
     fill="none"
     stroke="#1a1818"
     stroke-miterlimit="10"
     stroke-width="0.5" />
  <path
     id="Path_59"
     data-name="ear"
     d="m 317.779,75.67 c -1.155,-1.13 -3.244,0.293 -4.215,0.908 a 7.814,7.814 0 0 0 -3.728,5.717 c -0.19,1.465 0.686,3.125 0.878,4.542 0.236,1.738 -1.205,3.52 -2.049,4.947 -0.88,1.494 -1.344,3.252 0.121,4.489 a 1.821,1.821 0 0 0 1.4,0.41 c -0.777,0.86 -1.53,1.885 -2.757,2 a 0.094,0.094 0 0 0 0,0.188 c 1.179,0.077 2.154,-0.749 3.024,-1.431 a 26.1,26.1 0 0 0 2.079,-1.762 c 0.2,-0.145 0.4,-0.287 0.567,-0.418 3.615,-2.83 6.027,-8.633 3.482,-16.148 a 2.28,2.28 0 0 0 -1.641,-1.415 1.159,1.159 0 0 0 -0.3,-0.026 c 0.91,-0.789 3.212,-2.382 3.294,0.965 0.016,0.745 -0.1,1.447 -0.05,2.192 a 0.10071743,0.10071743 0 0 0 0.2,0.024 c 0.413,-1.377 0.894,-4.004 -0.305,-5.182 z m -1.205,6.5 a 13.012,13.012 0 0 1 -1.526,9.316 6.957,6.957 0 0 1 -2.39,2.406 c -0.095,0.067 -2.925,1.453 -2.574,-0.069 a 16.017,16.017 0 0 1 1.742,-3.224 c 1.211,-2.337 1.013,-4.3 0.269,-6.742 -0.39,-1.3 0.844,-4.186 1.51,2 a 10.077,10.077 0 0 1 -1.778,6.453 0.056,0.056 0 0 0 0.087,0.069 11.175,11.175 0 0 0 2.929,-8.88 c -0.059,-1.171 -0.038,-4.219 -1.6,-4.376 0.071,-0.091 0.147,-0.182 0.222,-0.268 1.464,-0.923 2.646,0.474 3.109,3.316 z"
     fill="#1a1818"
     opacity="0.5"
     style="isolation:isolate;mix-blend-mode:multiply" />
  <path
     id="Path_60"
     data-name="eye"
     d="m 238.713,74.387 a 4.32,4.32 0 0 1 -2.664,3.956 h -0.02 a 13.04,13.04 0 0 1 -1.776,0 15.483,15.483 0 0 1 -2.14,-0.262 4.269,4.269 0 0 1 -2.16,-3.694 4.058,4.058 0 0 1 0.727,-2.321 13.367,13.367 0 0 1 4.824,-0.242 l 0.908,0.121 h 0.02 c 0.343,0.081 0.706,0.141 1.05,0.222 h 0.02 c 0.182,0.04 0.363,0.1 0.545,0.141 a 2.9,2.9 0 0 1 0.666,2.079 z"
     fill="#1a1818" />
  <path
     id="Path_61"
     data-name="eye"
     d="m 236.383,74.37 a 2.118,2.118 0 1 1 -2.113,-2.081 2.094,2.094 0 0 1 2.113,2.081 z"
     fill="#3d3e40"
     opacity="0.5"
     style="isolation:isolate;mix-blend-mode:multiply" />
  <path
     id="Path_62"
     data-name="eye"
     d="m 236.044,74.37 a 1.777,1.777 0 1 1 -1.774,-1.742 1.757,1.757 0 0 1 1.774,1.742 z"
     fill="#1a1718" />
  <path
     id="Path_63"
     data-name="eye"
     d="m 237.928,73.034 a 1.155,1.155 0 0 1 -1.171,1.151 1.175,1.175 0 0 1 -0.383,-0.061 1.261,1.261 0 0 1 -0.4,-0.262 l -0.02,-0.02 a 0.967,0.967 0 0 1 -0.343,-0.606 v -0.02 a 0.558,0.558 0 0 1 -0.02,-0.182 1.024,1.024 0 0 1 0.04,-0.262 1.128,1.128 0 0 1 0.787,-0.828 h 0.02 c 0.343,0.081 0.706,0.141 1.05,0.222 h 0.02 a 1.1,1.1 0 0 1 0.42,0.868 z"
     fill="#ffffff"
     opacity="0.9" />
  <path
     id="Path_64"
     data-name="eye"
     d="m 236.125,71.467 c 0.244,0.04 0.741,0.119 0.741,0.119 l -0.945,-0.145 z"
     fill="url(#radial-gradient)"
     style="fill:url(#radialGradient524)" />
  <path
     id="Path_65"
     data-name="eye"
     d="m 235.923,71.442 -1.467,-0.161 z"
     opacity="0.8"
     fill="url(#radial-gradient-2)"
     style="isolation:isolate;mix-blend-mode:multiply;fill:url(#radialGradient526)" />
  <path
     id="Path_66"
     data-name="eye"
     d="m 236.907,71.599 0.111,0.016 -0.151,-0.028 z"
     opacity="0.8"
     fill="url(#radial-gradient-3)"
     style="isolation:isolate;mix-blend-mode:multiply;fill:url(#radial-gradient-3)" />
  <path
     id="Path_67"
     data-name="eye"
     d="m 223.807,74.023 a 16.348,16.348 0 0 1 7.352,-3.627 19.042,19.042 0 0 1 5.307,-0.426 c 3.773,0.252 7.049,1.952 10.06,4.061 0.061,0.042 0,0.137 -0.059,0.095 a 22.153,22.153 0 0 0 -15.317,-3.454 17.968,17.968 0 0 0 -2.457,0.8 c -1.718,0.715 -3.129,1.873 -4.79,2.677 -0.077,0.039 -0.168,-0.064 -0.096,-0.126 z"
     fill="#1a1818" />
  <path
     id="Path_68"
     data-name="eye"
     d="m 245.315,76.869 c -0.04,0 -0.061,0.02 -0.1,0.02 -1.474,-1.413 -2.119,-2.907 -4.017,-3.956 a 15.6,15.6 0 0 0 -5.067,-1.474 c -4.441,-0.666 -7,0.121 -10.84,2.3 a 16.633,16.633 0 0 1 -2.4,1.292 c 0,0.121 6.54,3.351 10.759,3.755 4.037,0.383 7.832,-0.686 11.829,-1.151 0.482,-0.06 0.341,-0.872 -0.164,-0.786 z m -5.268,1.009 a 37.839,37.839 0 0 1 -4,0.464 h -0.02 a 13.04,13.04 0 0 1 -1.776,0 15.483,15.483 0 0 1 -2.14,-0.262 24.251,24.251 0 0 1 -3.008,-0.747 14.375,14.375 0 0 1 -2.241,-0.888 7.754,7.754 0 0 1 -1.07,-0.565 0.924,0.924 0 0 1 -0.565,-0.626 0.15,0.15 0 0 0 0.061,-0.283 c -0.727,-0.545 3.876,-2.463 4.38,-2.624 0.323,-0.1 0.666,-0.2 1.009,-0.283 a 13.367,13.367 0 0 1 4.824,-0.242 l 0.908,0.121 h 0.02 c 0.343,0.081 0.706,0.141 1.05,0.222 h 0.02 c 0.182,0.04 0.363,0.1 0.545,0.141 a 9.732,9.732 0 0 1 2.947,1.332 c 0.828,0.565 2.362,1.534 1.716,2.806 -0.1,0.2 -0.081,0.2 0.04,0.4 0.02,0.061 0.081,0.061 0.121,0.02 -0.258,0.913 -2.135,0.913 -2.819,1.014 z"
     fill="#1a1818" />
  <path
     id="Hair-2"
     data-name="Hair"
     d="m 314.977,33.179 c -1.952,-5.694 -6.112,-10.262 -10.3,-14.485 A 67.864,67.864 0 0 0 287.307,6.124 C 274.13,-0.523 258.539,-1.016 244.156,1.148 233.878,2.694 223.946,6.1 216.348,12.829 a 14.036,14.036 0 0 0 -1.191,0.84 c 0.028,-0.042 0.065,-0.083 0.095,-0.121 0.206,-0.277 -0.236,-0.6 -0.468,-0.359 a 75.087,75.087 0 0 0 -10.605,13.177 c -3.1,5.089 -4.306,10.834 -4.633,16.691 a 88.343,88.343 0 0 0 0.509,17.592 c 0.824,5.48 2.677,10.49 4.578,15.6 a 39.075,39.075 0 0 0 2.317,9.417 c 0.2,0.519 0.422,1.06 0.674,1.607 a 23.618,23.618 0 0 0 1.27,3.139 47.261,47.261 0 0 1 3.409,10.874 c 0.02,0.137 0.273,0.107 0.256,-0.036 a 40.728,40.728 0 0 0 -1.395,-6.871 c 0.624,0.963 1.278,1.912 1.948,2.87 a 0.12,0.12 0 0 0 0.208,-0.119 c -0.8,-1.8 -1.687,-3.571 -2.519,-5.345 a 6.4,6.4 0 0 0 1.881,1.092 c 0.012,0.026 0.016,0.059 0.028,0.087 0.05,0.125 0.262,0.079 0.224,-0.063 v -0.02 a 0.178,0.178 0 0 0 0.032,-0.273 c -0.04,-0.036 -0.079,-0.079 -0.119,-0.111 a 66.707,66.707 0 0 1 -1.9,-14.283 c 0.311,1.72 0.858,3.434 2.027,4.164 a 0.113,0.113 0 0 0 0.161,-0.073 v 0 c 0.042,0.111 0.216,0.069 0.184,-0.042 -2.44,-8.228 0.533,-16.282 2.485,-24.277 a 20.3,20.3 0 0 1 -0.529,3.95 c -0.03,0.125 0.166,0.216 0.224,0.091 2.8,-5.977 0.45,-12.566 1.558,-18.849 1.538,-8.722 10.46,-11.205 17.891,-13.24 1.794,-0.008 3.585,-0.083 5.381,-0.19 a 24.316,24.316 0 0 0 11.768,1.34 c 0.1,-0.014 0.071,-0.178 -0.026,-0.17 a 20.062,20.062 0 0 1 -7.519,-0.89 66.427,66.427 0 0 0 11.966,0.894 55.243,55.243 0 0 0 7.426,-0.5 l 2.079,0.131 a 67.056,67.056 0 0 1 -6.655,1.118 0.111,0.111 0 0 0 0,0.222 42.179,42.179 0 0 0 7.959,-0.476 0.13,0.13 0 0 0 0.131,0.117 99.133,99.133 0 0 0 11.885,-0.277 q -0.53,0.118 -1.064,0.246 a 0.092,0.092 0 0 0 0.028,0.18 c 2.606,-0.275 5.325,-0.61 8.008,-1.122 3.864,2.255 7.485,4.009 10.325,7.731 3.161,4.144 1.97,10.759 2.586,15.624 0.634,5.091 2.267,10.018 3.516,14.986 1.385,5.492 1.637,11 2.089,16.578 a 29.59,29.59 0 0 1 -1.395,4.711 c -0.049,0.117 0.157,0.2 0.212,0.087 a 31.152,31.152 0 0 0 1.3,-3.434 c 0.016,0.149 0.028,0.3 0.04,0.452 a 28.8,28.8 0 0 1 -1.778,5.941 0.163,0.163 0 0 0 0.283,0.159 14.411,14.411 0 0 0 1.72,-3.018 12.06,12.06 0 0 1 -2.493,5.41 c -0.05,0.059 0.028,0.141 0.083,0.087 a 12.008,12.008 0 0 0 2.564,-4.025 c -0.224,1.195 -0.468,2.382 -0.753,3.565 l 0.008,0.01 c -0.2,0.434 -0.388,0.864 -0.6,1.31 a 0.132,0.132 0 0 0 0.153,0.186 c -0.166,0.335 -0.323,0.67 -0.5,1 A 0.076,0.076 0 0 0 303.804,98 c 0.3,-0.47 0.577,-0.955 0.856,-1.435 1.964,-1.562 2.886,-4.265 3.375,-7.152 a 78.677,78.677 0 0 0 4.649,-24.35 0.566,0.566 0 0 0 -0.012,-0.079 c 0.04,-0.2 0.075,-0.406 0.115,-0.6 0.82,-3.853 1.722,-7.725 2.459,-11.607 1.249,-6.55 1.929,-13.189 -0.269,-19.598 z"
     fill="#1a1818" />
  <path
     id="Path_69"
     data-name="eye"
     d="m 276.625,74.387 a 4.32,4.32 0 0 0 2.665,3.956 h 0.02 a 13.04,13.04 0 0 0 1.776,0 15.484,15.484 0 0 0 2.14,-0.262 4.269,4.269 0 0 0 2.16,-3.694 4.058,4.058 0 0 0 -0.727,-2.321 13.367,13.367 0 0 0 -4.824,-0.242 l -0.908,0.121 h -0.02 c -0.343,0.081 -0.707,0.141 -1.05,0.222 h -0.02 c -0.182,0.04 -0.363,0.1 -0.545,0.141 a 2.9,2.9 0 0 0 -0.667,2.079 z"
     fill="#1a1818" />
  <path
     id="Path_70"
     data-name="eye"
     d="m 278.956,74.37 a 2.117,2.117 0 1 0 2.113,-2.081 2.094,2.094 0 0 0 -2.113,2.081 z"
     fill="#3d3e40"
     opacity="0.5"
     style="isolation:isolate;mix-blend-mode:multiply" />
  <path
     id="Path_71"
     data-name="eye"
     d="m 279.295,74.37 a 1.776,1.776 0 1 0 1.774,-1.742 1.757,1.757 0 0 0 -1.774,1.742 z"
     fill="#1a1718" />
  <path
     id="Path_73"
     data-name="eye"
     d="m 279.213,71.467 c -0.244,0.04 -0.743,0.119 -0.743,0.119 l 0.947,-0.145 z"
     fill="url(#radial-gradient-4)"
     style="fill:url(#radial-gradient-4)" />
  <path
     id="Path_74"
     data-name="eye"
     d="m 279.416,71.442 1.468,-0.161 z"
     opacity="0.8"
     fill="url(#radial-gradient-5)"
     style="isolation:isolate;mix-blend-mode:multiply;fill:url(#radial-gradient-5)" />
  <path
     id="Path_75"
     data-name="eye"
     d="m 278.431,71.599 c -0.036,0 -0.111,0.016 -0.111,0.016 l 0.149,-0.028 z"
     opacity="0.8"
     fill="url(#radial-gradient-6)"
     style="isolation:isolate;mix-blend-mode:multiply;fill:url(#radial-gradient-6)" />
  <path
     id="Path_76"
     data-name="eye"
     d="m 291.531,74.023 a 16.358,16.358 0 0 0 -7.352,-3.627 19.048,19.048 0 0 0 -5.307,-0.426 c -3.773,0.252 -7.049,1.952 -10.063,4.061 -0.058,0.042 0,0.137 0.061,0.095 a 22.151,22.151 0 0 1 15.317,-3.454 17.851,17.851 0 0 1 2.455,0.8 c 1.72,0.715 3.131,1.873 4.79,2.677 0.076,0.039 0.17,-0.064 0.099,-0.126 z"
     fill="#1a1818" />
  <path
     id="Path_77"
     data-name="eye"
     d="m 269.863,77.656 c 4,0.464 7.792,1.534 11.829,1.151 4.219,-0.4 10.759,-3.633 10.759,-3.755 a 16.637,16.637 0 0 1 -2.4,-1.292 c -3.835,-2.18 -6.4,-2.967 -10.84,-2.3 a 15.6,15.6 0 0 0 -5.067,1.474 c -1.9,1.05 -2.543,2.543 -4.017,3.956 -0.04,0 -0.061,-0.02 -0.1,-0.02 -0.507,-0.087 -0.649,0.725 -0.164,0.786 z m 2.6,-0.787 c 0.04,0.04 0.1,0.04 0.121,-0.02 0.121,-0.2 0.141,-0.2 0.04,-0.4 -0.646,-1.272 0.888,-2.241 1.716,-2.806 a 9.731,9.731 0 0 1 2.947,-1.332 c 0.182,-0.04 0.363,-0.1 0.545,-0.141 h 0.02 c 0.343,-0.081 0.706,-0.141 1.05,-0.222 h 0.02 l 0.908,-0.121 a 13.367,13.367 0 0 1 4.824,0.242 c 0.343,0.081 0.686,0.182 1.009,0.283 0.5,0.161 5.107,2.079 4.38,2.624 a 0.15,0.15 0 0 0 0.061,0.283 0.923,0.923 0 0 1 -0.565,0.626 7.751,7.751 0 0 1 -1.07,0.565 14.372,14.372 0 0 1 -2.241,0.888 24.257,24.257 0 0 1 -3.008,0.747 15.484,15.484 0 0 1 -2.14,0.262 13.04,13.04 0 0 1 -1.776,0 h -0.02 a 37.841,37.841 0 0 1 -4,-0.464 c -0.678,-0.106 -2.555,-0.106 -2.817,-1.014 z"
     fill="#1a1818" />
  <path
     id="Path_78"
     data-name="eye"
     d="m 277.412,73.034 a 1.154,1.154 0 0 0 1.171,1.151 1.175,1.175 0 0 0 0.384,-0.061 1.261,1.261 0 0 0 0.4,-0.262 l 0.02,-0.02 a 0.967,0.967 0 0 0 0.343,-0.606 v -0.02 a 0.558,0.558 0 0 0 0.02,-0.182 1.022,1.022 0 0 0 -0.04,-0.262 1.128,1.128 0 0 0 -0.787,-0.828 h -0.02 c -0.343,0.081 -0.707,0.141 -1.05,0.222 h -0.02 a 1.1,1.1 0 0 0 -0.421,0.868 z"
     fill="#ffffff"
     opacity="0.9" />
  <path
     id="Path_79"
     data-name="ear"
     d="m 195.212,82.999 c -0.036,-3.662 -0.706,-12.406 4.229,-12.907 2.039,-0.21 5.264,3.464 6.486,4.633 2.878,2.743 1.32,4.532 2.481,8.371 2.037,8.381 2.515,14.748 4.552,23.135 -3.5,1.1 -6.011,2.19 -8.571,-1.665 -1.052,-1.581 -1.391,-3.308 -2.259,-5.024 a 30.576,30.576 0 0 0 -3.666,-4.812 c -2.606,-3.297 -3.206,-7.662 -3.252,-11.731 z"
     fill="none"
     stroke="#1a1818"
     stroke-miterlimit="10"
     stroke-width="0.5" />
  <path
     id="Path_80"
     data-name="ear"
     d="m 197.666,80.855 a 0.1,0.1 0 0 0 0.194,-0.024 c 0.055,-0.745 -0.063,-1.447 -0.042,-2.192 0.083,-3.347 2.376,-1.754 3.29,-0.963 a 1.1,1.1 0 0 0 -0.307,0.024 2.285,2.285 0 0 0 -1.639,1.415 c -2.539,7.511 -0.131,13.31 3.484,16.148 0.17,0.131 0.367,0.272 0.571,0.418 a 25.346,25.346 0 0 0 2.075,1.762 4.713,4.713 0 0 0 3.02,1.431 0.094,0.094 0 0 0 0,-0.188 c -1.223,-0.119 -1.972,-1.145 -2.751,-2 a 1.8,1.8 0 0 0 1.395,-0.41 c 1.47,-1.237 1.009,-3 0.125,-4.489 -0.844,-1.427 -2.277,-3.21 -2.041,-4.947 0.192,-1.417 1.064,-3.076 0.878,-4.542 a 7.818,7.818 0 0 0 -3.728,-5.717 c -0.979,-0.616 -3.068,-2.039 -4.223,-0.908 -1.203,1.175 -0.71,3.781 -0.301,5.182 z m 4.629,-2 c 0.073,0.087 0.139,0.178 0.21,0.264 -1.562,0.157 -1.538,3.21 -1.6,4.38 a 11.2,11.2 0 0 0 2.937,8.884 c 0.04,0.042 0.119,-0.016 0.083,-0.073 a 10.067,10.067 0 0 1 -1.782,-6.453 c 0.666,-6.189 1.906,-3.3 1.514,-2.006 -0.741,2.449 -0.951,4.409 0.268,6.746 a 15.979,15.979 0 0 1 1.734,3.224 c 0.351,1.522 -2.475,0.135 -2.57,0.069 a 6.9,6.9 0 0 1 -2.39,-2.41 12.972,12.972 0 0 1 -1.522,-9.312 c 0.461,-2.835 1.648,-4.236 3.114,-3.309 z"
     fill="#1a1818"
     opacity="0.5"
     style="isolation:isolate;mix-blend-mode:multiply" />
</svg>
