<?xml version="1.0" encoding="UTF-8" standalone="no"?>
<svg
   xmlns:dc="http://purl.org/dc/elements/1.1/"
   xmlns:cc="http://creativecommons.org/ns#"
   xmlns:rdf="http://www.w3.org/1999/02/22-rdf-syntax-ns#"
   xmlns:svg="http://www.w3.org/2000/svg"
   xmlns="http://www.w3.org/2000/svg"
   xmlns:sodipodi="http://sodipodi.sourceforge.net/DTD/sodipodi-0.dtd"
   xmlns:inkscape="http://www.inkscape.org/namespaces/inkscape"
   width="645"
   height="1226"
   viewBox="0 0 645 1226"
   version="1.1"
   id="svg730"
   sodipodi:docname="Female Front copy.svg"
   inkscape:version="1.0.1 (c497b03c, 2020-09-10)">
  <metadata
     id="metadata734">
    <rdf:RDF>
      <cc:Work
         rdf:about="">
        <dc:format>image/svg+xml</dc:format>
        <dc:type
           rdf:resource="http://purl.org/dc/dcmitype/StillImage" />
      </cc:Work>
    </rdf:RDF>
  </metadata>
  <sodipodi:namedview
     pagecolor="#ffffff"
     bordercolor="#666666"
     borderopacity="1"
     objecttolerance="10"
     gridtolerance="10"
     guidetolerance="10"
     inkscape:pageopacity="0"
     inkscape:pageshadow="2"
     inkscape:window-width="1360"
     inkscape:window-height="691"
     id="namedview732"
     showgrid="false"
     inkscape:zoom="0.44616639"
     inkscape:cx="322.5"
     inkscape:cy="433.6947"
     inkscape:window-x="0"
     inkscape:window-y="23"
     inkscape:window-maximized="1"
     inkscape:current-layer="svg730" />
  <defs
     id="defs588">
    <clipPath
       id="clip-Female_Front">
      <rect
         width="645"
         height="1226"
         id="rect585" />
    </clipPath>
  </defs>
  <rect
     width="645"
     height="1226"
     fill="#ffffff"
     id="rect590"
     x="0"
     y="0" />
  <path
     id="Path_4661"
     data-name="Path 4661"
     d="m 233.759,380.728 c -4.136,34.893 -11.216,68.681 -17.5,102.609 -4.82,26.038 -15.4,50.275 -23.853,75.178 -3.511,10.345 -6.481,20.875 -9.9,31.251 -3.287,9.974 -4.408,19.907 -1.372,30.2 2.631,8.91 1.231,17.832 -1.833,26.308 -4.115,11.383 -6.655,23.119 -9.244,34.879 -1.036,4.713 -1.746,10 -8.416,10.382 -1.627,0.094 -1.766,1.789 -2.354,2.946 -1.265,2.494 -2.995,4.8 -5.955,4.738 -2.635,-0.051 -3.905,1.086 -5.323,3.024 -2.125,2.9 -6.241,4.228 -7.979,1.32 -4.649,-7.771 -15.672,-13.444 -9.459,-25.436 1.183,-2.281 1.19,-5.167 1.7,-7.583 -1.512,-2.027 -3.061,-0.5 -4.466,-0.474 -4.305,0.089 -6.128,-1.835 -5.758,-6.145 1.249,-14.458 3.493,-28.691 9.761,-41.95 1.416,-2.992 3.011,-6.291 5.452,-8.339 11.607,-9.727 13.158,-23.13 14.565,-36.831 2.892,-28.182 4.161,-56.541 9.228,-84.491 2.114,-11.665 4.33,-23.427 9.347,-34.125 9.187,-19.589 11.7,-40.582 14.728,-61.535 3.99,-27.623 7.046,-55.306 8.361,-83.233 1.386,-29.476 18.486,-49.392 47.077,-57.067 7.323,-1.965 14.714,-3.69 21.982,-5.834 a 38.467,38.467 0 0 0 19.667,-13.291 c 2.672,-3.372 3.74,-5.486 -2.256,-5.961 -9.359,-0.744 -18.566,-2.56 -27.236,-6.44 -13.97,-6.247 -17.679,-14.153 -9.606,-26.795 14.128,-22.126 12.388,-45.787 10.089,-70 -1.686,-17.764 1.441,-34.788 11.459,-49.923 5.925,-8.952 13.172,-16.469 25.054,-16.748 a 2.8,2.8 0 0 0 3.012,-1.995 c 3.724,-10.246 12.662,-13.36 22.01,-15.2 33.717,-6.648 66.542,15.714 75.544,50.886 3.916,15.311 2.649,30.64 0.7,45.92 -2.311,18.081 -0.151,35.149 9.111,51.067 1.011,1.736 1.935,3.525 2.846,5.316 6.911,13.589 4.07,21.485 -10.07,27.623 a 82.5,82.5 0 0 1 -27.275,6.291 c -5.465,0.382 -4.721,2.134 -2.326,5.479 a 36.68,36.68 0 0 0 18.761,13.406 c 5.483,1.846 11.15,3.2 16.8,4.5 35.66,8.226 53.116,28.778 54.176,65.524 1.109,38.516 7.611,76.315 13.79,114.18 a 40.306,40.306 0 0 0 3.3,10.148 c 12.115,26.367 16.642,54.464 19.415,83.02 2.068,21.316 3.262,42.722 6.5,63.926 a 31.127,31.127 0 0 0 8.606,17.7 c 11.063,11.365 15.508,25.571 17.183,40.926 a 108.4,108.4 0 0 0 1.8,12.575 c 1.284,5.554 -1.121,7.876 -6.206,7.181 -3.69,-0.5 -4.228,0.407 -3.349,3.674 a 69.514,69.514 0 0 1 2.148,10.479 c 0.528,4.825 1.709,10.125 -5.4,11.644 -2.484,0.53 -1.764,3.314 -2.585,5.028 -2.274,4.749 -6.648,5.755 -10.111,1.869 -1.718,-1.926 -2.965,-3.461 -5.9,-3.3 -2.324,0.126 -4.008,-1.727 -5.172,-3.747 -0.661,-1.148 -1.109,-3.283 -1.865,-3.383 -10.1,-1.336 -8.631,-9.972 -10.436,-16.389 -2.651,-9.434 -4.156,-19.163 -7.853,-28.339 -2.965,-7.352 -5.012,-15.519 -2.715,-22.966 5.58,-18.07 -0.627,-34.346 -5.769,-50.915 -7.736,-24.933 -18.823,-48.8 -24.949,-74.2 -8.784,-36.431 -15.057,-73.382 -20.335,-110.49 -0.364,-2.571 -0.288,-5.255 -1.94,-7.858 -4.363,3.473 -7.636,7.327 -9.48,12.626 -5.74,16.478 -10.56,33.07 -11.47,50.692 -0.78,15.091 3.711,28.593 10.548,41.621 13.618,25.944 25.566,52.544 33.241,80.959 7.421,27.474 6.563,55.219 3.887,83.132 -5.492,57.305 -22.064,111.922 -40.139,166.171 -10.306,30.929 -13.021,62.361 -6.6,94.387 7.522,37.537 4.1,74.569 -4.038,111.558 -4.792,21.778 -9.965,43.494 -13.4,65.561 a 37.922,37.922 0 0 0 0.027,11.971 c 1.153,7.272 2.3,14.524 0.634,21.936 -1.176,5.248 0.521,9.9 3.168,14.629 4.676,8.345 8.869,16.99 12.8,25.72 3.28,7.277 1.041,9.947 -6.154,13.8 -7.965,4.273 -16.43,3.008 -24.409,4.765 -6.208,1.368 -12.328,-0.492 -18.564,2.1 -8.382,3.491 -17.841,-4.99 -15.606,-14.092 2.6,-10.58 2.64,-21.673 6.751,-31.905 a 22.549,22.549 0 0 0 1.723,-6.444 c 3.338,-41.287 6.836,-82.462 -1.576,-123.747 a 268.386,268.386 0 0 1 -0.808,-104.494 16.944,16.944 0 0 0 0.588,-3.29 c -0.551,-35.5 2.562,-70.983 1,-106.455 -1.711,-38.8 -6.069,-77.461 -5.927,-116.36 0.055,-14.536 0.517,-29.094 3.26,-43.343 1.125,-5.852 -1.228,-6.884 -5.545,-7.707 -7.286,-1.391 -10.711,1.61 -9.665,8.553 4.31,28.666 2.974,57.442 1.741,86.225 -1.789,41.66 -7.7,83.16 -3.836,125.046 1.743,18.88 -1.792,37.99 0.759,56.87 2.094,15.487 4.637,30.9 4.71,46.569 0.126,26.447 -4.273,52.433 -8.164,78.475 a 312.887,312.887 0 0 0 -3.086,59.439 63.845,63.845 0 0 0 2.811,17.125 31.515,31.515 0 0 1 1.375,15.828 30.83,30.83 0 0 0 1.755,17.75 c 4.113,9.99 4.1,20.888 6.73,31.258 2.741,10.791 -7.577,18.054 -18.216,14.156 -5.52,-2.025 -11.6,-1.325 -17.162,-1.535 -9.606,-0.364 -18.516,-1.794 -26.868,-6.257 -5.387,-2.88 -4.953,-8.192 -2.528,-12.28 5.035,-8.487 7.824,-18.036 13.053,-26.349 2.889,-4.593 4.273,-9.109 2.924,-14.558 a 21.968,21.968 0 0 1 -0.542,-9.311 c 4.648,-23.014 -2.823,-44.67 -7.208,-66.65 -5.234,-26.244 -11.475,-52.3 -13.252,-79.134 -1.114,-16.855 0.608,-33.571 3.708,-49.959 7.208,-38.119 3.225,-74.773 -9.574,-111.259 -14.549,-41.481 -26.408,-83.8 -33.115,-127.4 -6.922,-44.981 -9.617,-89.661 7.387,-133.379 6.561,-16.871 12.545,-34.175 22.091,-49.443 18.386,-29.4 17.514,-59.483 6.646,-90.613 -2.909,-8.273 -4.229,-17.528 -13.791,-23.172 z"
     fill="#e47a5f" />
  <path
     id="Path_4685"
     data-name="Path 4685"
     d="m 139.467,665.736 c 1.134,-5.433 2.4,-10.844 3.354,-16.308 0.609,-3.489 3,-5.072 5.646,-6.824 2.37,-1.569 4.694,-3.411 5.893,-6.2 a 40.145,40.145 0 0 1 4,-8.942 c -1.517,2.388 -2.693,5.1 -5.657,6.124 -4.344,4.829 -11.9,4.861 -15.645,10.868 a 32.181,32.181 0 0 0 -4.209,11.809 c -0.446,2.48 -1.075,5.159 -4.3,7.177 0.853,-19.944 4.431,-38.018 18.585,-52.405 5.614,-5.7 7.529,-12.932 8.629,-20.591 4.154,-28.938 4.932,-58.231 9.295,-87.147 2.571,-17.041 5.959,-33.9 13.25,-49.593 7.975,-17.166 9.422,-35.694 12.12,-53.935 4.108,-27.795 7.226,-55.672 8.627,-83.812 1.592,-32.057 18.022,-49.156 50.376,-55.981 5.223,-1.1 10.388,-2.541 15.5,-4.079 13.762,-4.134 23.078,-13.015 28.037,-26.53 0.581,-1.585 0.524,-3.605 2.681,-4.857 0.73,2.494 1.43,4.886 2.132,7.281 3.855,6.037 3.317,13.582 6.575,19.175 -2.425,-6.819 -5,-14.231 -4.973,-22.236 -1.272,-9.578 -2.4,-19.1 -0.588,-28.815 0.753,-4.047 2.265,-2.576 4.228,-1.578 5.93,1.553 11.294,4.818 17.729,4.95 7.08,0.149 13.57,-1.075 19.566,-4.971 2.022,-1.315 4.214,-3.566 6.906,-0.952 -0.318,5.184 0.588,10.255 1.373,15.338 0.663,13.733 -3.489,26.529 -7.211,39.43 2.3,-7.554 4.3,-15.208 6.145,-22.917 0.519,-2.182 0.286,-5.127 3.795,-5.227 4.189,17.871 15.7,28.458 33.079,33.127 6.888,1.849 13.89,3.278 20.74,5.248 25.1,7.208 39.709,23.9 41.207,49.948 1.947,33.88 5.845,67.48 10.967,100.985 2.157,14.11 4.633,28.012 10.511,41.287 10.9,24.6 13.68,51.073 16.329,77.511 2.063,20.623 3.047,41.358 6.5,61.841 a 33.766,33.766 0 0 0 9.031,18.264 c 10.587,11.1 15.062,24.8 16.569,39.72 0.357,3.514 0.821,7.016 1.316,11.207 -4.15,-1.812 -4.564,-5.314 -4.969,-8.24 -1.13,-8.153 -4.692,-13.952 -12.794,-16.926 -4.946,-1.814 -8.222,-5.916 -10.8,-10.525 -1.007,-1.8 -0.959,-4.415 -4.706,-5.637 2.4,8.3 5.52,15.357 12.031,19.829 a 16.6,16.6 0 0 1 7.577,11.74 c 0.933,5.488 2.164,10.926 3.266,16.384 0.453,1.446 -0.188,1.828 -1.508,1.551 q -1.993,-6.221 -3.985,-12.442 c -0.972,-3.024 -2.489,-4.713 -5.651,-2.242 -1.53,0.9 1.025,4.333 -2.486,4 -0.876,-2.482 -2.567,-3.271 -5.045,-2.437 -2.228,0.256 0.4,4.34 -2.937,3.722 -1.308,-2.6 -3.054,-3.3 -5.433,-1.256 -1.235,0.458 -0.021,3.315 -2.5,2.551 a 140.624,140.624 0 0 0 -5.214,-17.256 c -3.26,-8.469 -4.278,-17.269 -1.83,-26.276 2.587,-9.514 1.732,-18.836 -0.885,-28.36 -7.524,-27.365 -18.219,-53.643 -26.992,-80.57 -9.576,-29.389 -13.062,-60.082 -18.864,-90.27 -2.652,-13.787 -4.282,-27.774 -6.353,-41.673 a 29.237,29.237 0 0 1 0.723,-13.2 c 2.915,-9.537 2.386,-19.28 -2.141,-28.051 -3.347,-6.483 -2.725,-11.264 2.322,-16 a 5,5 0 0 0 0.874,-1.738 c 0.071,-0.165 -0.037,-0.4 -0.062,-0.606 -9.3,0.65 -13.833,8.787 -9.668,17.37 13.506,27.836 -5.977,56.747 -36.835,54.663 -20.01,-1.352 -35.653,-15.595 -39.976,-36.4 -0.709,-3.411 -0.824,-7.03 -3.214,-10.187 -4.943,13.016 3.614,33.379 18,43.524 12.216,8.615 22.675,9.969 47.7,6.044 -3.557,11.612 -7.288,22.952 -9.274,34.811 -3.734,22.265 0.249,42.737 11.058,62.589 16.487,30.286 29.9,61.876 35.364,96.281 3.72,23.418 1.448,46.784 -1.173,70.081 -5.93,52.641 -21.014,103.071 -37.876,153.005 -10.789,31.944 -14.89,64.456 -8.2,97.6 8.373,41.509 3.53,82.1 -5.8,122.678 -4.1,17.814 -7.325,35.829 -11.024,53.734 a 34.636,34.636 0 0 0 -0.544,12.657 c 1.551,9.334 2.027,18.583 0.414,27.955 a 11.632,11.632 0 0 0 1.759,8.377 c 5.831,8.549 8.339,18.722 13.74,27.506 1.651,2.686 6.975,8.988 -3.274,7.234 -1.178,-0.2 -1.862,0.938 -2.3,2.059 -1.132,2.91 -2.478,4.4 -4.941,0.915 -1.8,-2.548 -3.971,-2.121 -5.243,0.389 -1.972,3.893 -3.891,4 -6.183,0.471 -2.144,-3.3 -4.147,-3.223 -5.776,0.279 -2.333,5.014 -4.577,4.179 -6.714,0 -2.116,-4.134 -4.255,-3.846 -5.6,0.188 -1.249,3.738 -3.319,5.143 -6.986,4.164 -4.4,-1.174 -6.728,-4.458 -5.321,-8.574 3.2,-9.363 2.519,-19.466 5.971,-28.7 2.633,-7.041 3.8,-14.124 2.459,-21.655 a 21.828,21.828 0 0 1 0.183,-9.3 c 7.346,-26.731 4.365,-53.613 1.206,-80.433 -2.814,-23.919 -7.508,-47.6 -8.3,-71.777 -0.583,-17.965 1.672,-35.629 4.479,-53.281 a 44.974,44.974 0 0 0 0.719,-6.645 c 0.5,-57.79 2.23,-115.552 -3.281,-173.3 -2.921,-30.615 -3.5,-61.521 1.729,-92.18 2.905,-17.018 10.42,-31.656 21.534,-44.634 a 1.915,1.915 0 0 0 0.505,-2.777 c -0.357,-0.529 -1.194,-0.03 -1.771,0.272 -9.361,7.9 -15.876,17.841 -20.639,29.009 -2.2,5.156 -4.461,9.729 -11.07,4.749 -1.816,-1.37 -3.818,-0.531 -5.554,0.707 -4.971,3.544 -7.186,0.359 -8.972,-3.724 -4.111,-9.4 -8.858,-18.393 -16.361,-25.626 -3.374,-0.654 -5,-3.738 -7.622,-5.461 3.054,2.05 4.475,5.248 5.943,8.409 15.588,20.122 19.021,43.856 19.907,68.21 1.377,37.782 -1.913,75.4 -4.5,113.038 -1.226,17.8 -2.761,35.589 -1.141,53.5 0.865,9.542 0.7,19.188 0.739,28.79 0.092,21.632 -0.229,43.16 3.365,64.74 4.738,28.451 1.693,57.012 -2.994,85.3 -4.5,27.166 -7.144,54.425 -5.934,81.99 a 52.885,52.885 0 0 0 2.322,14.49 39.205,39.205 0 0 1 1.666,17.182 41.564,41.564 0 0 0 2.562,20.371 c 3.678,9.391 2.77,19.779 6.282,29.316 1.366,3.708 -1.357,6.787 -5.408,7.9 -3.612,0.995 -5.987,-0.156 -7.2,-3.859 -1.45,-4.436 -3.626,-4.283 -5.607,-0.4 -2.379,4.655 -4.457,4.587 -6.685,-0.011 -1.761,-3.635 -3.694,-3.479 -5.705,-0.211 -2.278,3.706 -4.376,3.333 -6.266,-0.288 -0.545,-1.046 -1.958,-2.439 -2.256,-2.025 -5.019,6.984 -8.624,-1.995 -13.465,-1.272 -3.758,0.56 -2.123,-4.145 -0.91,-5.973 5.232,-7.878 7.435,-17.23 12.534,-25.116 a 22.5,22.5 0 0 0 3.285,-17.885 c -0.615,-2.8 -1.2,-5.913 -0.617,-8.629 4.651,-21.611 -1.906,-42.06 -6.186,-62.736 -5.062,-24.462 -10.594,-48.836 -13.469,-73.693 -2.915,-25.171 1.521,-49.893 5.165,-74.588 4.335,-29.38 0.75,-57.806 -8.388,-85.77 -12.479,-38.176 -24.736,-76.411 -32.521,-115.9 -6.1,-30.956 -10.089,-62.143 -9.169,-93.756 0.824,-28.373 9.9,-54.727 20.932,-80.488 4.742,-11.076 9.562,-22.16 15.773,-32.509 15.055,-25.091 15.654,-51.538 7.84,-78.843 -1.761,-6.153 -3.731,-12.245 -5.877,-19.252 21.583,6.341 40.612,3.521 55.7,-12.975 9.064,-9.905 12.726,-22.1 11.223,-37.2 -4.076,4.58 -3.882,9.13 -4.859,13.124 -4.847,19.788 -20.625,33.395 -40.244,34.431 -30.263,1.6 -49.282,-26.8 -36.268,-54.146 4.315,-9.064 0.464,-16.471 -9.612,-18.349 -0.9,2.306 1.306,3.052 2.308,4.209 3.423,3.958 4.26,7.778 1.661,12.781 a 38.815,38.815 0 0 0 -2.425,31.164 c 1.464,4.349 0.608,8.407 0.05,12.522 -5.685,41.779 -11.9,83.539 -23.041,124.22 -7.062,25.77 -16.867,50.792 -25.546,76.111 -4.992,14.558 -8.083,29.055 -3.592,44.531 2,6.9 0.348,14.257 -2.345,20.984 a 126.871,126.871 0 0 0 -5.881,20.55 c -2.153,0.464 -1.789,-1.194 -1.81,-2.3 -0.039,-1.782 -0.146,-3.42 -2.2,-4.07 -3.482,0.048 -3.232,2.974 -3.962,5.14 -1.254,0.313 -1.885,0 -1.42,-1.411 0.2,-3.53 -0.579,-6.106 -5,-5.094 -2.5,0.778 -2.432,-2.72 -4.484,-2.688 -3.068,-0.478 -4.2,1.418 -4.946,3.921 -0.931,3.1 -1.976,6.175 -2.974,9.26 -2.584,0.08 -1.756,-1.517 -1.424,-2.866 z"
     fill="#f5bf9b" />
  <path
     id="Path_4686"
     data-name="Path 4686"
     d="m 305.789,197.107 c -11.651,-8.494 -17.219,-20.6 -20.68,-34.113 -0.519,-2.032 0.428,-8.975 -5.744,-3.747 -1.1,0.929 -2.562,-0.153 -3.365,-1.34 -3.8,-5.614 -6.826,-11.543 -6.6,-18.562 0.126,-3.923 1.224,-6.849 6.115,-4.456 2.882,1.409 5.168,0.174 5.753,-2.539 2.729,-12.628 11.536,-21.989 17.343,-32.949 2.372,-4.484 4.817,-8.9 5.275,-15.508 12.269,14.089 28.033,19.854 43.174,26.726 8.75,3.971 14.458,10.9 18.093,19.71 1.135,2.754 1.867,6.2 6.565,3.935 3.136,-1.512 4.555,1.334 4.815,3.829 0.821,7.817 -2.67,14.256 -7.19,20.243 -0.7,0.931 -2.056,1.674 -2.917,0.894 -5.095,-4.625 -4.9,0.238 -5.591,3.1 -2.7,11.216 -7.178,21.522 -14.984,30.19 -8.543,13.635 -32.936,14.301 -40.062,4.587 z"
     fill="#f5bf9b" />
  <path
     id="Path_4687"
     data-name="Path 4687"
     d="m 305.789,197.108 c 14.476,8.276 27.712,5.717 40.061,-4.587 0.686,1.549 1.775,2.985 1.373,4.845 -2.912,-0.906 -4.379,1.6 -6.337,2.791 -12.152,7.414 -27.413,6.724 -37.863,-1.818 q 1.383,-0.62 2.766,-1.231 z"
     fill="#e47a5f" />
  <path
     id="Path_4688"
     data-name="Path 4688"
     d="m 351.323,223.989 c -3.694,6.888 -3.852,14.812 -6.467,22.021 -1.109,3.059 -1.432,6.476 -4.765,8.659 2.8,-14.007 6.657,-27.795 8.505,-41.962 a 19.739,19.739 0 0 0 2.727,11.282 z"
     fill="#e18367" />
  <path
     id="Path_4689"
     data-name="Path 4689"
     d="m 148.8,655.414 c 2.345,-0.522 2.91,1.924 4.484,2.688 q -4.564,19.919 -9.128,39.839 l -2.055,-0.46 c 2.1,-10.148 4.331,-20.268 6.214,-30.457 0.7,-3.787 2.992,-7.642 0.485,-11.61 z"
     fill="#f5bf9b" />
  <path
     id="Path_4690"
     data-name="Path 4690"
     d="m 493.545,660.617 2.486,-4 c 0.959,13.961 6.154,27.234 6.517,41.335 a 248.956,248.956 0 0 1 -9.003,-37.335 z"
     fill="#f5bf9b" />
  <path
     id="Path_4691"
     data-name="Path 4691"
     d="m 299.381,228.732 7.256,25.779 -2.265,0.659 c -3.189,-7.462 -5.74,-15.135 -6.593,-23.377 1.259,-0.641 1.305,-1.917 1.602,-3.061 z"
     fill="#e18367" />
  <path
     id="Path_4692"
     data-name="Path 4692"
     d="m 158.288,663.197 1.421,1.411 c -0.336,7.954 -2.448,15.533 -4.941,23.052 a 94.009,94.009 0 0 1 3.52,-24.463 z"
     fill="#f5bf9b" />
  <path
     id="Path_4693"
     data-name="Path 4693"
     d="m 485.564,661.902 c 1.611,-0.744 0.712,-3.464 2.937,-3.722 -1.315,8.586 2.2,16.67 2.6,25.077 0.314,1.377 -0.256,1.807 -1.558,1.46 -1.204,-7.628 -3.696,-15.03 -3.979,-22.815 z"
     fill="#f5bf9b" />
  <path
     id="Path_4694"
     data-name="Path 4694"
     d="m 152.703,633.586 q 3.624,-5.926 7.249,-11.85 a 18.68,18.68 0 0 1 -5.593,14.668 c -0.057,-1.231 -0.354,-2.319 -1.656,-2.818 z"
     fill="#e47a5f" />
  <path
     id="Path_4695"
     data-name="Path 4695"
     d="m 292.474,592.269 a 41.836,41.836 0 0 1 -9.34,-12.216 26.211,26.211 0 0 1 11.019,9.267 3.015,3.015 0 0 0 -1.679,2.949 z"
     fill="#e47a5f" />
  <path
     id="Path_4696"
     data-name="Path 4696"
     d="m 139.467,665.736 q 0.707,1.427 1.414,2.859 a 47.676,47.676 0 0 1 -4.836,15.1 c 0.47,-6.107 1.096,-12.178 3.422,-17.959 z"
     fill="#f5bf9b" />
  <path
     id="Path_4697"
     data-name="Path 4697"
     d="m 163.67,659.467 c 4.781,-0.043 1.524,4.969 4.008,6.371 -0.508,2.3 -1.016,4.6 -1.739,7.883 -2.118,-5.316 1.066,-10.287 -2.269,-14.254 z"
     fill="#f5bf9b" />
  <path
     id="Path_4698"
     data-name="Path 4698"
     d="m 505.662,671.304 1.508,-1.551 c 1.677,3.429 2.134,7.151 2.59,10.871 0.4,1.4 -0.206,1.755 -1.473,1.423 q -1.31,-5.374 -2.625,-10.743 z"
     fill="#f5bf9b" />
  <path
     id="Path_4699"
     data-name="Path 4699"
     d="m 356.75,584.205 a 6.322,6.322 0 0 1 4.783,-3.569 c 0.691,3.228 -1.853,4.419 -3.518,6.074 -0.018,-1.035 -0.094,-2.048 -1.265,-2.505 z"
     fill="#e47a5f" />
  <path
     id="Path_4700"
     data-name="Path 4700"
     d="m 489.54,684.716 q 0.775,-0.728 1.558,-1.46 c 1.681,2.64 1.3,5.424 0.43,9.652 -0.874,-3.594 -1.43,-5.893 -1.988,-8.192 z"
     fill="#f5bf9b" />
  <path
     id="Path_4701"
     data-name="Path 4701"
     d="m 477.63,663.197 q 1.249,-1.276 2.5,-2.551 0.106,3.987 0.217,7.975 0.374,1.959 -1.51,1.3 z"
     fill="#f5bf9b" />
  <path
     id="Path_4702"
     data-name="Path 4702"
     d="m 478.838,669.923 q 0.755,-0.652 1.51,-1.3 c 1.766,2.6 1.249,5.353 0.469,9.4 -0.856,-3.486 -1.414,-5.792 -1.979,-8.1 z"
     fill="#f5bf9b" />
  <path
     id="Path_4703"
     data-name="Path 4703"
     d="m 508.291,682.047 q 0.734,-0.713 1.473,-1.423 c 1.418,1.631 1.42,3.525 0.947,6.16 a 5.553,5.553 0 0 1 -2.42,-4.737 z"
     fill="#f5bf9b" />
  <path
     id="Path_4753"
     data-name="Path 4753"
     d="m 281.819,440.54 c 15.686,-12.827 29.432,-26.809 31.908,-48.378 4.451,15.528 -13.616,42.918 -31.908,48.378 z"
     fill="#e18367" />
  <path
     id="Path_4754"
     data-name="Path 4754"
     d="m 331.975,392.603 c 2.974,21.083 15.917,35.4 32.125,47.509 -15.195,-2.466 -37.353,-32.974 -32.125,-47.509 z"
     fill="#e18367" />
  <path
     id="Path_4755"
     data-name="Path 4755"
     d="m 373.024,872.569 c -1.3,5.769 -4.982,9.057 -10.811,8.835 -5.829,-0.222 -9,-4.34 -10.695,-9.542 -2.363,-7.24 -0.062,-21.1 4.669,-27.532 0.764,4.145 -0.773,7.648 -1.158,11.239 a 96.027,96.027 0 0 0 -1.006,10.566 c 0.03,5.408 1.448,10.64 7.634,11.674 6.792,1.135 8.343,-4.408 9.96,-9.373 3.258,0.43 1.608,2.527 1.407,4.133 z"
     fill="#e47a5f" />
  <path
     id="Path_4756"
     data-name="Path 4756"
     d="m 328.164,275.737 c 1.673,-5.788 5.607,-8.414 10.642,-9.253 13.719,-2.283 27.852,0.361 41.5,-3.644 -7.391,5.483 -16.059,5.5 -24.475,5.993 -9.616,0.566 -19.745,-1.585 -27.667,6.904 z"
     fill="#e18367" />
  <path
     id="Path_4757"
     data-name="Path 4757"
     d="m 273.428,866.545 c 0.652,1.814 1.224,3.665 1.972,5.44 1.462,3.464 3.546,6.184 7.835,6.06 4.244,-0.124 6.252,-2.937 7.625,-6.394 a 21.209,21.209 0 0 0 0.927,-11.131 c -0.782,-5.392 -3.107,-10.651 -1.478,-18.066 3.422,9.9 5.987,18.276 4.484,27.248 -1.251,7.471 -7.265,12.582 -13.083,11.726 -6.168,-0.903 -9.522,-6.235 -8.282,-14.883 z"
     fill="#e47a5f" />
  <path
     id="Path_4758"
     data-name="Path 4758"
     d="m 272.766,263.78 c 7.84,1.938 15.83,1.61 23.8,1.583 5.843,-0.021 11.637,0.315 16.7,3.717 2.139,1.434 4.39,2.914 4.539,7.824 -10.727,-11.879 -24.1,-6.314 -35.966,-8.608 -4.539,-0.876 -9.269,-0.8 -13.506,-3.008 0.496,-3.383 2.731,-1.662 4.433,-1.508 z"
     fill="#e18367" />
  <path
     id="Path_4759"
     data-name="Path 4759"
     d="m 323.378,482.857 c -4.93,-5.577 -5.035,-13.069 -0.767,-17.363 2.434,-2.45 3.033,0.323 3.681,1.583 2.898,5.645 -0.596,10.186 -2.914,15.78 z"
     fill="#e18367" />
  <path
     id="Path_4760"
     data-name="Path 4760"
     d="m 272.764,263.781 c -1.558,0.27 -3.365,-0.2 -4.433,1.508 a 3.37,3.37 0 0 1 -3.395,-2.407 9.883,9.883 0 0 1 7.828,0.899 z"
     fill="#e18367" />
  <path
     id="Path_4761"
     data-name="Path 4761"
     d="m 373.023,872.569 c -0.343,-1.421 0.254,-3.159 -1.407,-4.132 -0.068,-1.151 0.059,-2.468 1.189,-2.837 1.8,-0.583 1.451,1.05 1.469,1.972 0.037,1.758 0.027,3.552 -1.251,4.997 z"
     fill="#e47a5f" />
  <circle
     id="Ellipse_27"
     data-name="Ellipse 27"
     cx="374.5"
     cy="348.5"
     r="30.5"
     fill="#f5bf9b" />
  <circle
     id="Ellipse_28"
     data-name="Ellipse 28"
     cx="268.5"
     cy="348.5"
     r="30.5"
     fill="#f5bf9b" />
  <path
     id="Path_4751"
     data-name="Path 4751"
     d="m 259.352,359.325 c -6.538,0.034 -11.276,-4.738 -11.3,-11.383 a 11.17,11.17 0 0 1 11.269,-11.5 11.9,11.9 0 0 1 11.55,11.507 11.467,11.467 0 0 1 -11.519,11.376 z"
     fill="#e47a5f" />
  <path
     id="Path_4845"
     data-name="Path 4845"
     d="m 261.667,348.163 c -0.465,2.276 -1.729,3.663 -4.074,3.393 -2.345,-0.27 -3.425,-1.912 -3.125,-4.179 a 3.227,3.227 0 0 1 3.628,-3.033 c 2.461,0.09 3.355,1.662 3.571,3.819 z"
     fill="#ede2d8" />
  <path
     id="Path_4752"
     data-name="Path 4752"
     d="m 397.997,347.56 a 11.463,11.463 0 0 1 -11.1,11.788 11.029,11.029 0 0 1 -11.671,-11 11.294,11.294 0 0 1 10.886,-11.932 c 6.002,-0.26 11.728,5.109 11.885,11.144 z"
     fill="#e47a5f" />
  <path
     id="Path_4846"
     data-name="Path 4846"
     d="m 388.886,348.317 c -0.393,2.3 -1.906,3.667 -4.139,3.374 a 3.7,3.7 0 0 1 0.54,-7.366 c 2.35,0.162 3.609,1.517 3.599,3.992 z"
     fill="#ede2d8" />
  <ellipse
     id="Ellipse_22"
     data-name="Ellipse 22"
     cx="329"
     cy="74.5"
     rx="18"
     ry="19.5"
     fill="#e47a5f" />
  <ellipse
     id="Ellipse_22-2"
     data-name="Ellipse 22"
     cx="322.5"
     cy="108.5"
     rx="13.5"
     ry="4.5"
     fill="#f5bf9b" />
  <ellipse
     id="Ellipse_22-3"
     data-name="Ellipse 22"
     cx="45.832924"
     cy="-393.01776"
     rx="9.6721458"
     ry="4.6025457"
     transform="rotate(105.00891)"
     fill="#f5bf9b"
     style="stroke-width:1.00012" />
  <ellipse
     id="Ellipse_22-4"
     data-name="Ellipse 22"
     cx="213.70409"
     cy="-229.2841"
     rx="9.6711454"
     ry="4.6025457"
     fill="#f5bf9b"
     transform="rotate(74.991086)"
     style="stroke-width:1.00012" />
  <path
     id="Path_4767"
     data-name="Path 4767"
     d="m 333.476,158.835 c 2.576,5.3 0.439,7.707 -3.2,8.176 a 70.349,70.349 0 0 1 -14.54,0.163 c -3.608,-0.291 -5.431,-2.647 -4.141,-7.465 2.519,5.406 7.563,4.369 11.1,4.358 3.497,-0.009 9.088,1.86 10.781,-5.232 z"
     fill="#e18166" />
  <path
     id="Path_4762"
     data-name="Path 4762"
     d="m 309.997,181.943 c -1.149,-1.151 -4.088,1.288 -4.074,-1.778 0.01,-2.338 2.3,-1.533 3.649,-1.674 4.264,-0.444 7.568,-3.228 12.214,-3.752 6.65,-0.75 10.916,4.42 16.857,3.951 a 1.4,1.4 0 0 1 1.38,1.821 c -0.89,2.194 -3.171,0.842 -4.681,1.562 -8.465,3.195 -16.915,3.624 -25.345,-0.13 z"
     fill="#e4876a" />
  <path
     id="Path_4768"
     data-name="Path 4768"
     d="m 309.997,181.943 25.344,0.133 q -0.587,0.71 -1.171,1.423 a 21.921,21.921 0 0 1 -4.305,3.386 c -5.888,4.109 -11.424,0.59 -17.061,-0.794 -2.148,-0.563 -2.912,-2.062 -2.807,-4.148 z"
     fill="#ede2d8" />
  <path
     id="Path_4769"
     data-name="Path 4769"
     d="m 312.805,186.091 c -0.2,-2.157 0.76,-2.2 2.245,-1.215 4.71,3.132 9.624,3.01 14.666,0.945 1.318,-0.242 1.739,0.368 1.519,1.592 -6.935,4.63 -11.13,4.33 -18.43,-1.322 z"
     fill="#e38e70" />
  <path
     id="Path_4776"
     data-name="Path 4776"
     d="m 331.234,187.415 -1.517,-1.6 c 1.162,-1.388 2.409,-2.619 4.452,-2.322 a 4.349,4.349 0 0 1 -2.935,3.922 z"
     fill="#e4876a" />
  <path
     id="Path_4766"
     data-name="Path 4766"
     d="m 335.036,132.115 c 4.774,-6.11 10.329,-5.543 16.24,-1.894 0.478,1.7 -1.169,2.359 -1.729,3.557 -0.753,1.3 -1.123,2.809 -2.208,3.923 -5.516,3.669 -8.865,-0.2 -12.376,-3.539 a 2.9,2.9 0 0 1 0.073,-2.047 z"
     fill="#201c1b" />
  <path
     id="Path_4770"
     data-name="Path 4770"
     d="m 348.691,132.327 q 1.294,-1.054 2.585,-2.107 c 2.477,0.54 4.953,1.077 8.457,1.839 -4.17,2.157 -7.734,3.722 -10.441,6.511 -1.318,0.094 -1.187,-0.8 -1.123,-1.64 0.698,-1.471 1.212,-2.97 0.522,-4.603 z"
     fill="#653a1b" />
  <path
     id="Path_4772"
     data-name="Path 4772"
     d="m 348.912,136.671 c 0.123,0.638 0.249,1.276 0.377,1.908 -1.391,1.219 -2.882,2.194 -4.875,1.864 -2.658,-0.65 -5.44,-0.805 -7.984,-1.924 -2.061,-0.908 -2.422,-2.217 -0.881,-3.942 a 2.275,2.275 0 0 1 3.386,0.732 c 2.418,3.294 5.4,3.37 8.684,1.354 a 0.788,0.788 0 0 1 1.293,0.008 z"
     fill="#ede2d8" />
  <path
     id="Path_4773"
     data-name="Path 4773"
     d="m 335.55,134.577 c 0.078,6.3 6.527,2.983 8.867,5.865 a 62.89,62.89 0 0 1 -6.488,-0.556 c -7.648,-1.423 -7.638,-1.476 -2.894,-7.771 q 0.258,1.229 0.515,2.462 z"
     fill="#653a1b" />
  <path
     id="Path_4847"
     data-name="Path 4847"
     d="m 348.913,136.671 -0.648,-0.034 -0.645,0.028 c -0.233,-1.592 -0.291,-3.139 1.071,-4.337 0.956,0.377 2.349,0.279 2.514,1.638 0.192,1.577 -1.107,2.152 -2.292,2.705 z"
     fill="#ede2d8" />
  <path
     id="Path_4763"
     data-name="Path 4763"
     d="m 295.215,130.062 c 8.046,-4.3 14,-2.4 17.857,5.319 1.3,2.608 0.775,3.594 -1.858,4 -3.873,-1.1 -7.6,-0.1 -11.326,0.812 l -1.928,-0.922 c 0.542,-2.086 -0.368,-3.761 -1.537,-5.36 -0.444,-1.268 -1.881,-2.231 -1.208,-3.849 z"
     fill="#201c1b" />
  <path
     id="Path_4771"
     data-name="Path 4771"
     d="m 299.889,140.191 c 1.554,-0.8 3.132,-1.565 4.655,-2.425 a 2.943,2.943 0 0 1 4.193,1.172 c 0.188,0.428 1.62,0.309 2.482,0.441 -3.676,1.705 -7.418,2.459 -11.33,0.812 z"
     fill="#ede2d8" />
  <path
     id="Path_4774"
     data-name="Path 4774"
     d="m 295.215,130.063 q 1.235,1.393 2.473,2.784 c -2.047,0.492 -1.032,4.122 -3.882,3.786 -1.467,-2.343 -4.365,-2.537 -8.112,-4.25 z"
     fill="#653a1b" />
  <path
     id="Path_4775"
     data-name="Path 4775"
     d="m 293.806,136.632 c 0.711,-1.858 0.1,-5.079 3.882,-3.786 -0.263,2.157 3.434,4.145 0.272,6.424 a 3.955,3.955 0 0 1 -4.154,-2.638 z"
     fill="#ede2d8" />
  <path
     id="Path_4764"
     data-name="Path 4764"
     d="m 357.493,122.112 c -7.851,-2.823 -14.147,-1.457 -20.337,1.455 -1.83,0.86 -4.493,2.329 -5.621,-0.773 -1.206,-3.31 1.4,-4.342 3.992,-4.6 6.575,-0.659 13.36,-4.946 19.623,0.908 a 32.889,32.889 0 0 1 2.343,3.01 z"
     fill="#653a1b" />
  <path
     id="Path_4765"
     data-name="Path 4765"
     d="m 289.231,121.609 c 4.545,-5.527 19.154,-6.746 23.985,-2.393 a 3.239,3.239 0 0 1 0.7,4.218 c -1,1.75 -2.768,1.073 -4.139,0.519 -6.571,-2.648 -13.093,-5.462 -20.546,-2.344 z"
     fill="#653a1b" />
  <ellipse
     id="Ellipse_23"
     data-name="Ellipse 23"
     cx="347"
     cy="167"
     rx="5"
     ry="12"
     fill="#f5bf9b" />
  <ellipse
     id="Ellipse_23-2"
     data-name="Ellipse 23"
     cx="300"
     cy="167"
     rx="5"
     ry="12"
     fill="#f5bf9b" />
  <ellipse
     id="Ellipse_24"
     data-name="Ellipse 24"
     cx="323"
     cy="196.5"
     rx="10"
     ry="2.5"
     fill="#f5bf9b" />
  <circle
     id="Ellipse_5"
     data-name="Ellipse 5"
     cx="322.23599"
     cy="233.431"
     r="11.5"
     fill="#f5bf9b" />
  <ellipse
     id="Ellipse_12"
     data-name="Ellipse 12"
     cx="323.23599"
     cy="214.431"
     rx="16.5"
     ry="5.5"
     fill="#f5bf9b" />
  <path
     id="Path_4861"
     data-name="Path 4861"
     d="m 201.44076,425.57453 c -6.63592,-1.89586 -8.79045,-23.80062 -4.8124,-48.92655 3.97805,-25.12594 12.58294,-43.95629 19.21885,-42.06043 6.63592,1.89586 8.79045,23.80062 4.81101,48.9283 -3.97944,25.12768 -12.58154,43.95454 -19.21746,42.05868 z"
     fill="#f5bf9b"
     style="stroke-width:0.999874" />
  <ellipse
     id="Ellipse_16"
     data-name="Ellipse 16"
     cx="-284.37723"
     cy="-482.48358"
     rx="13.401311"
     ry="56.953819"
     transform="rotate(-167.99329)"
     fill="#f5bf9b"
     style="stroke-width:0.999874" />
  <ellipse
     id="Ellipse_2"
     data-name="Ellipse 2"
     cx="362.23599"
     cy="862.43103"
     rx="19.583"
     ry="25.179001"
     fill="#f5bf9b" />
  <ellipse
     id="Ellipse_2-2"
     data-name="Ellipse 2"
     cx="284.23599"
     cy="862.43103"
     rx="19.583"
     ry="25.179001"
     fill="#f5bf9b" />
  <ellipse
     id="Ellipse_19"
     data-name="Ellipse 19"
     cx="337.23599"
     cy="1170.007"
     rx="5.5"
     ry="5.9229999"
     fill="#f5bf9b" />
  <ellipse
     id="Ellipse_19-2"
     data-name="Ellipse 19"
     cx="308.23599"
     cy="1170.007"
     rx="5.5"
     ry="5.9229999"
     fill="#f5bf9b" />
  <ellipse
     id="Ellipse_20"
     data-name="Ellipse 20"
     cx="355.23599"
     cy="1143.931"
     rx="15.5"
     ry="11"
     fill="#f5bf9b" />
  <ellipse
     id="Ellipse_20-2"
     data-name="Ellipse 20"
     cx="291.23599"
     cy="1143.931"
     rx="15.5"
     ry="11"
     fill="#f5bf9b" />
  <ellipse
     id="Ellipse_21"
     data-name="Ellipse 21"
     cx="355.23599"
     cy="1112.931"
     rx="12.5"
     ry="9"
     fill="#f5bf9b" />
  <ellipse
     id="Ellipse_21-2"
     data-name="Ellipse 21"
     cx="291.23599"
     cy="1112.931"
     rx="12.5"
     ry="9"
     fill="#f5bf9b" />
  <path
     id="Path_4861-2"
     data-name="Path 4861"
     d="m 443.02346,425.55964 c 6.63591,-1.89586 8.79044,-23.80062 4.81239,-48.92655 -3.97804,-25.12594 -12.58195,-43.9565 -19.21787,-42.06064 -6.63592,1.89586 -8.79045,23.80062 -4.8124,48.92655 3.97805,25.12594 12.58392,43.95609 19.21788,42.06064 z"
     fill="#f5bf9b"
     style="stroke-width:0.999874" />
  <ellipse
     id="Ellipse_16-2"
     data-name="Ellipse 16"
     cx="345.99332"
     cy="616.53241"
     rx="13.401311"
     ry="56.953819"
     transform="rotate(-12.006708)"
     fill="#f5bf9b"
     style="stroke-width:0.999874" />
  <path
     id="Path_4857"
     data-name="Path 4857"
     d="m 278.327,553.107 23.643,25.164 5.1,8.432 h 30.6 l 6.955,-10.476 23.184,-23.119 z"
     fill="#f5bf9b" />
  <ellipse
     id="Ellipse_25"
     data-name="Ellipse 25"
     cx="323"
     cy="479"
     rx="58"
     ry="26"
     fill="#f5bf9b" />
  <ellipse
     id="Ellipse_10"
     data-name="Ellipse 10"
     cx="130.73599"
     cy="659.43103"
     rx="6"
     ry="6.5"
     fill="#f5bf9b" />
  <ellipse
     id="Ellipse_10-2"
     data-name="Ellipse 10"
     cx="515.73602"
     cy="660.43103"
     rx="6"
     ry="6.5"
     fill="#f5bf9b" />
  <ellipse
     id="Ellipse_10-3"
     data-name="Ellipse 10"
     cx="137.23599"
     cy="680.43103"
     rx="5.5"
     ry="6.5"
     fill="#f5bf9b" />
  <ellipse
     id="Ellipse_10-4"
     data-name="Ellipse 10"
     cx="510.23599"
     cy="684.43103"
     rx="5.5"
     ry="6.5"
     fill="#f5bf9b" />
  <ellipse
     id="Ellipse_10-5"
     data-name="Ellipse 10"
     cx="502.23599"
     cy="694.43103"
     rx="5.5"
     ry="6.5"
     fill="#f5bf9b" />
  <ellipse
     id="Ellipse_10-6"
     data-name="Ellipse 10"
     cx="491.23599"
     cy="686.43103"
     rx="5.5"
     ry="6.5"
     fill="#f5bf9b" />
  <ellipse
     id="Ellipse_10-7"
     data-name="Ellipse 10"
     cx="481.23599"
     cy="675.43103"
     rx="5.5"
     ry="6.5"
     fill="#f5bf9b" />
  <ellipse
     id="Ellipse_10-8"
     data-name="Ellipse 10"
     cx="144.23599"
     cy="694.43103"
     rx="5.5"
     ry="6.5"
     fill="#f5bf9b" />
  <ellipse
     id="Ellipse_10-9"
     data-name="Ellipse 10"
     cx="156.23599"
     cy="683.43103"
     rx="5.5"
     ry="6.5"
     fill="#f5bf9b" />
  <ellipse
     id="Ellipse_10-10"
     data-name="Ellipse 10"
     cx="166.23599"
     cy="670.43103"
     rx="5.5"
     ry="6.5"
     fill="#f5bf9b" />
  <ellipse
     id="Ellipse_26"
     data-name="Ellipse 26"
     cx="136.20337"
     cy="758.26038"
     rx="25.006262"
     ry="75.018784"
     transform="rotate(-10.017934)"
     fill="#f5bf9b"
     style="stroke-width:1.00025" />
  <ellipse
     id="Ellipse_26-2"
     data-name="Ellipse 26"
     cx="-498.02396"
     cy="-646.19482"
     rx="25.006262"
     ry="75.018784"
     transform="rotate(-169.98207)"
     fill="#f5bf9b"
     style="stroke-width:1.00025" />
  <ellipse
     id="Ellipse_13"
     data-name="Ellipse 13"
     cx="43.4053"
     cy="499.26065"
     rx="13.404508"
     ry="30.159393"
     transform="rotate(-50.010525)"
     fill="#f5bf9b"
     style="stroke-width:1.00011" />
  <ellipse
     id="Ellipse_13-2"
     data-name="Ellipse 13"
     cx="-369.70404"
     cy="-6.7589917"
     rx="13.404508"
     ry="30.159393"
     transform="rotate(-129.98947)"
     fill="#f5bf9b"
     style="stroke-width:1.00011" />
  <circle
     id="Ellipse_29"
     data-name="Ellipse 29"
     cx="322.5"
     cy="603.5"
     r="12.5"
     fill="#f5bf9b" />
</svg>
