<?xml version="1.0" encoding="UTF-8" standalone="no"?>
<svg
   xmlns:dc="http://purl.org/dc/elements/1.1/"
   xmlns:cc="http://creativecommons.org/ns#"
   xmlns:rdf="http://www.w3.org/1999/02/22-rdf-syntax-ns#"
   xmlns:svg="http://www.w3.org/2000/svg"
   xmlns="http://www.w3.org/2000/svg"
   xmlns:xlink="http://www.w3.org/1999/xlink"
   xmlns:sodipodi="http://sodipodi.sourceforge.net/DTD/sodipodi-0.dtd"
   xmlns:inkscape="http://www.inkscape.org/namespaces/inkscape"
   width="517.477"
   height="1101.894"
   viewBox="0 0 517.477 1101.894"
   version="1.1"
   id="svg499"
   sodipodi:docname="groupedbody.svg"
   inkscape:version="1.0.1 (c497b03c, 2020-09-10)">
  <metadata
     id="metadata503">
    <rdf:RDF>
      <cc:Work
         rdf:about="">
        <dc:format>image/svg+xml</dc:format>
        <dc:type
           rdf:resource="http://purl.org/dc/dcmitype/StillImage" />
        <dc:title />
      </cc:Work>
    </rdf:RDF>
  </metadata>
  <sodipodi:namedview
     pagecolor="#ffffff"
     bordercolor="#666666"
     borderopacity="1"
     objecttolerance="10"
     gridtolerance="10"
     guidetolerance="10"
     inkscape:pageopacity="0"
     inkscape:pageshadow="2"
     inkscape:window-width="1360"
     inkscape:window-height="686"
     id="namedview501"
     showgrid="false"
     inkscape:zoom="0.44785584"
     inkscape:cx="258.73849"
     inkscape:cy="443.51929"
     inkscape:window-x="0"
     inkscape:window-y="23"
     inkscape:window-maximized="1"
     inkscape:current-layer="svg499"
     inkscape:document-rotation="0" />
  <defs
     id="defs264">
    <radialGradient
       id="radial-gradient"
       cx="-2.693"
       cy="78.27"
       r="84.099"
       gradientTransform="matrix(-0.153, -0.073, -0.012, 1.04, 60.471, 2.668)"
       gradientUnits="objectBoundingBox">
      <stop
         offset="0.796"
         stop-color="#fef8fb"
         id="stop248" />
      <stop
         offset="1"
         stop-color="#f7c8ac"
         id="stop250" />
    </radialGradient>
    <radialGradient
       id="radial-gradient-2"
       cx="-0.044"
       cy="20.52"
       r="57.482"
       gradientTransform="matrix(-0.11, 0, 0, 0.981, 64.038, 0.672)"
       gradientUnits="objectBoundingBox">
      <stop
         offset="0.739"
         stop-color="#fff"
         id="stop253" />
      <stop
         offset="0.833"
         stop-color="#79483b"
         id="stop255" />
      <stop
         offset="0.993"
         stop-color="#1b0f0c"
         id="stop257" />
    </radialGradient>
    <radialGradient
       id="radial-gradient-3"
       cx="126.08098"
       cy="375.10469"
       r="21.226586"
       gradientTransform="matrix(2.3222526,0,0,0.43061638,-58.298,-86.936)"
       xlink:href="#radial-gradient-2"
       fx="126.08098"
       fy="375.10469"
       gradientUnits="userSpaceOnUse" />
    <radialGradient
       id="radial-gradient-4"
       cx="124.92878"
       cy="433.93937"
       r="31.163758"
       gradientTransform="matrix(2.5555889,0,0,0.39129925,-37.305,-87.01)"
       xlink:href="#radial-gradient"
       fx="124.92878"
       fy="433.93937"
       gradientUnits="userSpaceOnUse" />
    <radialGradient
       id="radial-gradient-5"
       cx="105.23733"
       cy="488.19676"
       r="27.945239"
       gradientTransform="matrix(3.0196047,0,0,0.33116918,-36.828,-87.091)"
       xlink:href="#radial-gradient-2"
       fx="105.23733"
       fy="488.19676"
       gradientUnits="userSpaceOnUse" />
    <radialGradient
       id="radial-gradient-6"
       cx="137.94915"
       cy="372.61228"
       r="21.085544"
       gradientTransform="matrix(2.3068222,0,0,0.43349679,-37.381,-86.936)"
       xlink:href="#radial-gradient-2"
       fx="137.94915"
       fy="372.61228"
       gradientUnits="userSpaceOnUse" />
    <radialGradient
       inkscape:collect="always"
       xlink:href="#radial-gradient"
       id="radialGradient505"
       gradientUnits="userSpaceOnUse"
       gradientTransform="matrix(2.5528888,0,0,0.3917131,-58.775,-87.01)"
       cx="114.43942"
       cy="433.48091"
       r="31.130832"
       fx="114.43942"
       fy="433.48091" />
    <radialGradient
       inkscape:collect="always"
       xlink:href="#radial-gradient-2"
       id="radialGradient507"
       gradientUnits="userSpaceOnUse"
       gradientTransform="matrix(3.018576,0,0,0.33128203,-59.515,-87.091)"
       cx="97.365927"
       cy="488.03045"
       r="27.935719"
       fx="97.365927"
       fy="488.03045" />
  </defs>
  <path
     d="m 49.46575,536.9012 c -6.68283,1.20859 -12.87791,5.39819 -18.66307,9.60541 -0.73918,0.53793 -1.44812,1.14383 -2.1066,1.80029 l -1.79953,1.79953 c -0.63519,0.6388 -1.27296,1.40439 -1.94987,2.34067 -4.20154,5.80649 -9.62863,10.47357 -14.87703,14.98694 -3.10983,2.67431 -6.32041,5.43527 -9.25586,8.41507 2.56168,1.38815 4.93841,2.06427 7.24832,2.06427 h 0.007 c 1.68651,0 3.34397,-0.35947 5.06706,-1.09897 1.46091,-0.62698 2.95745,-1.51645 4.71027,-2.79965 1.21831,-0.88913 2.43742,-1.88431 3.61643,-2.84671 1.83924,-1.50138 3.74111,-3.0539 5.73204,-4.2847 0.23844,-0.14664 0.51199,-0.22415 0.79104,-0.22415 0.49373,0 0.95709,0.24176 1.23915,0.64624 1.4971,2.14157 2.22122,4.57242 2.21373,7.43014 0,1.37992 -0.15564,2.69116 -0.31515,3.91654 -0.95346,7.2557 -1.65508,14.68817 -2.33359,21.87588 -1.10913,11.74927 -2.25603,23.89853 -4.54047,35.77808 -0.18737,0.96393 -0.3703,1.9873 -0.3703,2.96988 0.002,1.08767 0.21445,1.96957 0.6679,2.7745 0.35369,0.62509 0.88282,1.21887 1.57663,1.77017 2.89691,-5.8475 5.2191,-12.40438 7.09182,-20.02081 1.7289,-7.03155 2.92862,-14.31369 4.0889,-21.35641 0.12114,-0.73221 0.74646,-1.26361 1.48686,-1.26361 0.0822,0 0.16526,0.007 0.2464,0.0203 0.39835,0.0657 0.747,0.28226 0.98171,0.60989 0.23459,0.32746 0.32763,0.72715 0.26199,1.12549 l -0.0709,0.43003 c -2.31882,14.06274 -4.71566,28.59963 -11.59621,42.27023 2.66745,2.15652 7.56549,3.69641 11.85162,3.69641 l 0.0741,-1.5e-4 h 0.0217 c 1.54446,0 2.91498,-0.20047 3.96396,-0.58002 0.96249,-0.34689 1.63298,-0.83258 1.94032,-1.40704 0.99216,-1.82956 2.02449,-3.6713 3.02284,-5.45237 2.89548,-5.16561 5.88954,-10.50711 8.11901,-15.96005 1.19563,-2.92431 2.08741,-5.65719 2.72633,-8.35483 0.71513,-3.01928 1.09857,-5.92141 1.1723,-8.87222 h 5e-5 c 0.0218,-0.82388 0.68281,-1.46893 1.50567,-1.46893 0.0147,0 0.0296,2.1e-4 0.0423,5.8e-4 0.40292,0.0102 0.77773,0.17651 1.05534,0.46832 0.27779,0.29196 0.42513,0.67471 0.41488,1.07846 -0.27681,10.29535 -4.13248,19.10199 -7.91994,26.3819 0.0169,0.0247 0.0333,0.0505 0.049,0.0776 l 10e-4,0.003 0.001,0.003 c 0.90032,1.59671 0.95954,3.2887 1.0118,4.78153 0.004,0.104 0.007,0.20733 0.0113,0.31466 0.0426,1.50208 0.12489,2.82614 0.70329,3.81766 0.24983,0.42877 0.5733,0.79254 1.00094,1.12186 6.46587,-9.50589 9.91825,-19.89411 12.44404,-28.82645 1.61285,-5.6796 3.64906,-11.28122 5.61819,-16.69846 2.11426,-5.81628 4.30042,-11.83059 5.9231,-17.85733 1.81283,-6.73303 2.72668,-12.81228 2.7937,-18.58337 l 0.002,-0.24475 c 9.5e-4,-1.0734 -0.0869,-2.20914 -0.17996,-3.41159 -0.10056,-1.29971 -0.20453,-2.64368 -0.2056,-4.03235 0,-0.22134 0.004,-0.45019 0.0115,-0.68497 -0.73389,0.22293 -1.47144,0.44968 -2.19031,0.67069 -2.30478,0.70859 -4.68805,1.44128 -7.07315,2.08749 -1.77101,0.48035 -3.63788,0.72391 -5.54897,0.72391 -8.35202,-0.004 -16.27966,-4.5694 -20.19693,-11.63059 -1.18797,-2.14791 -1.79033,-4.3598 -1.79033,-6.57412 0,-1.08136 0.15946,-2.19522 0.47478,-3.32114 m 0.71758,-0.6232 c -0.44004,1.28382 -0.69236,2.59992 -0.69236,3.94434 0,2.10534 0.57126,4.2409 1.72788,6.33215 4.05933,7.31726 12.04068,11.36853 19.75964,11.37256 1.83692,0 3.66165,-0.23016 5.41782,-0.70648 3.35281,-0.90839 6.643,-1.97016 9.92728,-2.95923 -0.0283,0.45819 -0.0444,0.91644 -0.0444,1.36859 0.002,2.64832 0.38757,5.18164 0.38556,7.4444 l -0.002,0.24835 c -0.22004,18.94818 -9.26722,35.35901 -14.35398,53.27167 -2.96121,10.47229 -6.54821,20.34906 -12.79763,29.38818 -0.76099,-0.48444 -1.23337,-1.00726 -1.56034,-1.56842 -0.63586,-1.09003 -0.72668,-2.48883 -0.77109,-4.05524 -0.0586,-1.55029 -0.0586,-3.26812 -0.95883,-4.86474 -0.0585,-0.10095 -0.13727,-0.17969 -0.22,-0.25232 4.24704,-8.12067 7.75931,-16.63697 8.02373,-26.47138 0.0141,-0.55713 -0.42592,-1.01941 -0.98305,-1.0335 -0.01,-3.1e-4 -0.0198,-4.3e-4 -0.0296,-4.3e-4 -0.54385,0 -0.99199,0.43423 -1.00587,0.98346 v -0.002 c -0.36334,14.54377 -8.3205,26.36237 -15.1008,38.8653 -0.35529,0.66412 -1.09006,1.23535 -2.21033,1.6391 -1.10495,0.39975 -2.5478,0.60962 -4.13348,0.60962 -0.008,0 -0.0151,0 -0.0227,0 -0.0242,9e-5 -0.0488,1.5e-4 -0.0731,1.5e-4 -4.33917,0 -9.68208,-1.6026 -12.47628,-4.06961 7.05279,-13.84125 9.4125,-28.44147 11.79846,-42.90845 0.0908,-0.55108 -0.28061,-1.06982 -0.83167,-1.16064 -0.0555,-0.009 -0.11065,-0.0136 -0.1651,-0.0136 -0.48443,0 -0.91191,0.35165 -0.99356,0.84521 -2.36978,14.38428 -4.72342,28.64935 -11.49365,42.05261 -1.06781,-0.74487 -1.75818,-1.51391 -2.19217,-2.28094 -0.547,-0.97101 -0.73073,-1.97016 -0.73273,-3.01978 0,-1.01532 0.18369,-2.0589 0.37949,-3.06622 3.67984,-19.13586 4.36008,-38.53015 6.86914,-57.62372 0.15949,-1.22528 0.31088,-2.51514 0.31088,-3.85138 0.006,-2.30121 -0.46832,-4.77594 -2.12353,-7.14367 -0.19591,-0.28095 -0.50949,-0.43271 -0.82936,-0.43271 -0.18111,0 -0.36422,0.0486 -0.52913,0.15005 -3.23575,2.00043 -6.1929,4.83045 -9.31562,7.10938 -3.12486,2.28766 -6.33865,3.99475 -10.07208,3.99475 -0.002,0 -0.004,0 -0.007,0 -2.36978,0 -5.00806,-0.68634 -8.0621,-2.44654 7.98337,-8.24975 17.7673,-14.4508 24.54159,-23.81286 0.62171,-0.85993 1.27773,-1.67334 2.0004,-2.40009 l 1.80054,-1.80053 c 0.67624,-0.6742 1.39483,-1.28986 2.16592,-1.85102 5.85381,-4.25714 12.48477,-8.78674 19.67487,-9.82434 z"
     stroke="none"
     fill="#1a1818"
     id="path268"
     style="stroke-miterlimit:10" />
  <path
     d="m 70.96905,555.40871 h 0.009 c 1.64044,0 3.24138,-0.2081 4.758,-0.6184 2.30769,-0.62626 4.65547,-1.3476 6.92595,-2.0452 1.02467,-0.31485 2.08424,-0.64041 3.12971,-0.9541 0.11636,-0.0355 0.23755,-0.0551 0.36076,-0.0584 0.33526,-1.61499 0.90102,-3.05616 1.72275,-4.39188 0.52539,-0.8558 1.0515,-1.7114 1.57765,-2.56708 5.1074,-8.30606 10.38706,-16.89239 14.93953,-25.61459 -3.79776,-4.78436 -9.38197,-8.08627 -17.05893,-10.08951 -6.29072,-1.63919 -13.08061,-2.17712 -19.07121,-2.65173 -0.37723,-0.0299 -0.75154,-0.0595 -1.12269,-0.0892 -1.65339,5.35407 -3.59575,10.47995 -5.77594,15.24167 -0.40694,0.88367 -0.74845,1.88315 -1.10999,2.94129 -0.19821,0.58011 -0.40317,1.17996 -0.62419,1.77319 -0.62337,1.65826 -1.39456,3.37335 -2.8049,4.6842 -1.59036,1.4729 -2.80614,3.01105 -3.61359,4.57169 -0.7975,1.54147 -1.20187,3.1167 -1.20187,4.68137 0.002,1.69748 0.47749,3.41812 1.4134,5.11432 1.69486,3.0737 4.29613,5.64703 7.52257,7.4418 3.09386,1.72101 6.55733,2.63067 10.01599,2.63061 v 0 h 0.008 m -0.008,0.5 c -7.0235,9e-5 -14.34184,-3.73956 -17.97641,-10.33099 -1.01132,-1.83282 -1.47354,-3.61517 -1.47555,-5.35516 0,-3.30848 1.69555,-6.58258 4.97571,-9.62049 1.31613,-1.22326 2.05896,-2.85022 2.67663,-4.49328 0.61365,-1.64716 1.1001,-3.3407 1.74805,-4.74768 2.33548,-5.1009 4.2612,-10.29865 5.86999,-15.56305 6.40891,0.51672 13.80893,0.99719 20.68009,2.78766 6.86914,1.79241 13.15899,4.86669 17.5251,10.51867 -5.05443,9.72132 -10.91231,19.09754 -16.68334,28.49793 -0.94873,1.54217 -1.47155,3.12475 -1.74807,4.69519 -0.11626,-0.04 -0.23836,-0.0654 -0.36318,-0.0654 -0.0833,0 -0.16771,0.0113 -0.25248,0.0372 -3.37708,1.01336 -6.71573,2.0932 -10.07059,3.0036 -1.57446,0.42596 -3.22159,0.63586 -4.88895,0.63586 -0.006,0 -0.0114,0 -0.017,0 z"
     stroke="none"
     fill="#1a1818"
     id="path274"
     style="stroke-miterlimit:10" />
  <path
     d="m 257.30508,182.87126 v -29.48403 c -0.65717,0.0712 -1.32914,0.10724 -2.00483,0.10724 -11.61651,0 -23.69888,-10.38006 -30.51568,-19.26874 -0.31458,-0.40979 -0.65759,-0.91481 -1.02072,-1.44946 -0.62583,-0.92145 -1.36341,-2.00741 -2.06113,-2.72384 0.0109,2.1089 0.0593,4.21823 0.11014,6.43284 0.059,2.56751 0.1199,5.22243 0.1199,7.9547 0,4.5428 0.0231,8.07438 0.0726,11.11409 l 6e-5,0.003 v 0.003 l 0.002,0.34148 c 0.004,3.50819 -0.86731,6.49083 -2.58985,8.86451 -0.36825,0.50887 -0.80374,1.00626 -1.34646,1.53553 4.30548,2.34448 9.45825,5.31472 14.25006,8.21573 4.35214,2.6313 8.67834,4.66793 12.85846,6.05336 4.09173,1.35611 8.16809,2.1296 12.12546,2.30142 m 0.5,0.51875 c -8.46784,-0.25638 -17.03864,-3.18326 -25.74262,-8.44565 -4.54779,-2.75329 -10.01611,-5.92648 -14.83844,-8.53445 0.66004,-0.59747 1.27576,-1.22931 1.78845,-1.93781 1.67139,-2.30319 2.49897,-5.17556 2.49494,-8.5708 l -0.002,-0.33911 c -0.0565,-3.46988 -0.0726,-7.26279 -0.0726,-11.12222 0,-5.40976 -0.23822,-10.46219 -0.23218,-15.43796 1.37061,0.7832 2.88654,3.49414 3.98059,4.91925 7.76368,10.12335 19.51261,19.07321 30.11908,19.07321 0.84354,0 1.67832,-0.0565 2.50483,-0.17349 z"
     stroke="none"
     fill="#1a1818"
     id="path280"
     style="stroke-miterlimit:10" />
  <path
     d="m 295.3297,129.57079 c -0.84823,0.7899 -1.66336,1.86498 -2.5148,2.98801 -0.81573,1.07592 -1.65924,2.18847 -2.57068,3.08052 -15.71579,15.38463 -20.59006,17.6839 -29.9202,17.7218 v 29.53332 c 4.11234,-0.14073 8.20002,-0.94 12.15796,-2.37799 4.26471,-1.54946 8.53156,-3.89541 12.68155,-6.97239 2.10257,-1.56208 4.57193,-3.49742 6.95999,-5.36908 1.77808,-1.39356 3.61249,-2.83129 5.27759,-4.10053 -0.12195,-0.21245 -0.23028,-0.41613 -0.32754,-0.61545 -1.4495,-2.95809 -1.67316,-6.43972 -1.80088,-10.35549 -0.045,-1.41997 -0.0668,-3.03423 -0.0668,-4.93502 0,-2.41018 0.0334,-4.93144 0.0688,-7.60074 0.0357,-2.69516 0.0726,-5.48207 0.0726,-8.17025 0,-1.09528 -0.003,-1.87664 -0.0175,-2.82671 m 0.48114,-1.03279 c 0.0303,1.45337 0.0364,2.33145 0.0364,3.8595 0,5.28457 -0.14136,10.86587 -0.14136,15.77099 0,1.73795 0.0182,3.39115 0.0666,4.91919 0.13123,4.02298 0.3634,7.32132 1.75012,10.15131 0.1615,0.33105 0.3432,0.64999 0.53699,0.96286 -3.94836,2.99557 -8.80493,6.92569 -12.59784,9.74356 -8.54858,6.33829 -17.06287,9.28335 -25.6377,9.46301 v -30.54681 c 0.0828,0 0.16553,0 0.24628,0 0.004,0 0.009,0 0.0128,0 9.37027,0 14.10559,-2.20478 29.81134,-17.57959 2.08923,-2.0448 3.83527,-5.31485 5.91638,-6.74402 z"
     stroke="none"
     fill="#1a1818"
     id="path285"
     style="stroke-miterlimit:10" />
  <path
     d="m 257.30583,464.21268 v -13.04104 c -1.52551,0.22714 -2.9205,0.8771 -3.97275,1.85956 -1.34133,1.25393 -2.08004,2.90921 -2.08004,4.66091 0,1.75171 0.73871,3.40699 2.0798,4.66071 1.05261,0.98276 2.4476,1.63278 3.97299,1.85986 m 0.5,0.56055 c -1.87927,-0.15344 -3.56885,-0.89221 -4.81421,-2.05493 -1.39483,-1.30396 -2.23858,-3.07221 -2.23858,-5.02619 0,-1.95391 0.84375,-3.72222 2.23858,-5.02618 1.24536,-1.16272 2.93695,-1.90149 4.81421,-2.05487 0,4.7254 0,9.44678 0,14.16217 z"
     stroke="none"
     fill="#1a1818"
     id="path291"
     style="stroke-miterlimit:10" />
  <path
     d="m 260.32402,451.28296 v 12.81525 c 1.26334,-0.30204 2.396,-0.89917 3.3024,-1.74552 1.34021,-1.25467 2.07828,-2.91006 2.07828,-4.66116 0,-1.75046 -0.73819,-3.40665 -2.07745,-4.66242 -0.909,-0.84707 -2.04178,-1.44436 -3.30323,-1.74615 m -0.5,-0.60992 c 1.61084,0.26239 3.04804,0.96887 4.14411,1.99029 1.39282,1.30597 2.23657,3.07428 2.23657,5.0282 0,1.95398 -0.84375,3.72223 -2.23657,5.02618 -1.09607,1.02344 -2.53327,1.72791 -4.14411,1.99036 0,-4.67297 0,-9.35199 0,-14.03503 z"
     stroke="none"
     fill="#1a1818"
     id="path296"
     style="stroke-miterlimit:10" />
  <path
     d="m 241.58962,1037.1908 c -6.24151,2.6862 -13.897,4.1615 -21.64801,4.1636 -5.69891,0 -11.25601,-0.8087 -16.1163,-2.3424 -0.31686,1.9753 -0.98389,3.8187 -2.03177,5.6188 -0.80243,1.3613 -1.29718,3.5056 -1.2912,5.5987 -0.002,1.1278 0.13471,2.2173 0.39527,3.1506 0.59707,2.1335 0.89871,4.2566 0.89654,6.3094 0.002,4.3073 -1.26611,8.4855 -3.99035,13.1489 -1.47107,2.5164 -3.19577,4.9136 -4.86368,7.2319 -0.89157,1.2392 -1.81351,2.5206 -2.66608,3.7805 -0.82489,1.2089 -1.97693,2.0093 -2.99335,2.7154 l -0.14965,0.104 -0.002,0 -0.002,0 c -1.04013,0.7073 -1.93933,1.3472 -2.40891,2.017 -0.31976,0.4566 -0.45147,0.8627 -0.45458,1.3987 0,0.4521 0.10849,0.976 0.32165,1.555 0.45636,1.2218 0.95566,1.6438 1.29077,1.8546 0.42069,0.2635 0.95304,0.3819 1.72733,0.3839 l 0.0341,10e-5 c 0.52392,0 1.11239,-0.063 1.73544,-0.1296 0.71121,-0.076 1.44668,-0.1549 2.22064,-0.1591 0.52573,0 1.03525,0.051 1.52048,0.1514 1.30801,-3.918 2.51275,-7.5246 3.7135,-11.1171 0.20499,-0.6173 0.78043,-1.032 1.43188,-1.032 0.16184,0 0.32215,0.026 0.47767,0.078 0.7901,0.2655 1.21737,1.1227 0.95272,1.9102 -0.24334,0.7277 -0.48672,1.4576 -0.73098,2.1901 -0.0675,0.2024 -0.13501,0.4049 -0.20264,0.6076 0.51987,-0.1942 1.05847,-0.4925 1.62823,-0.9004 0.71198,-0.5085 1.39103,-1.1211 2.04773,-1.7134 0.31232,-0.2817 0.60733,-0.5479 0.90403,-0.8018 0.27279,-0.2324 0.62017,-0.3605 0.97818,-0.3605 0.4421,0 0.86087,0.1928 1.14978,0.5299 0.26178,0.3071 0.38803,0.6979 0.35546,1.1003 -0.0326,0.4022 -0.21994,0.7674 -0.5274,1.0282 -0.2496,0.2119 -0.52451,0.4606 -0.81555,0.7239 -0.6799,0.6151 -1.4505,1.3124 -2.33618,1.9482 -1.56638,1.1188 -3.00071,1.6787 -4.48749,1.7473 -0.52222,1.5622 -1.18366,3.5422 -1.87915,5.6304 0.9761,1.2954 2.22552,1.9597 4.25604,2.2762 1.19336,0.1822 2.51007,0.1944 3.90408,0.2073 0.80838,0.01 1.64429,0.015 2.47345,0.058 0.50617,0.026 1.03681,0.04 1.61841,0.042 -0.40841,-1.1424 -0.61404,-2.3103 -0.61218,-3.4812 0.004,-2.7082 1.01923,-5.0658 2.1506,-7.4441 0.0853,-0.1777 0.17063,-0.3544 0.25553,-0.5303 0.9483,-1.9647 1.84399,-3.8205 2.0841,-5.565 0.10541,-0.7407 0.7479,-1.2993 1.49448,-1.2993 0.0698,0 0.14032,0.01 0.21173,0.015 0.82453,0.1178 1.39969,0.8832 1.28201,1.7068 -0.32211,2.2345 -1.28628,4.2346 -2.21872,6.1688 -0.12985,0.2693 -0.25912,0.5375 -0.3869,0.8069 -0.94156,1.9621 -1.86029,4.0525 -1.85428,6.1414 0.002,1.1341 0.27805,2.243 0.84327,3.3812 l 0.26233,-0.011 c 1.44995,-0.063 2.94924,-0.1286 4.46215,-0.1286 1.03968,0 2.00434,0.041 2.93161,0.1259 -3e-5,-0.011 -3e-5,-0.023 -3e-5,-0.034 0,-3.846 0.37119,-6.8593 1.16809,-9.483 1.04313,-3.4373 2.88199,-6.2465 5.46469,-8.3486 0.26877,-0.2197 0.6077,-0.3407 0.95432,-0.3407 0.45538,0 0.88193,0.2022 1.17114,0.5558 0.52417,0.6447 0.42697,1.5973 -0.21682,2.1237 -2.13575,1.745 -3.60276,3.9982 -4.48487,6.8882 -0.71054,2.3298 -1.04037,5.0639 -1.03799,8.6046 0,0.1681 10e-4,0.3376 0.003,0.5059 1.55164,0.3515 2.96481,0.8588 4.30878,1.5458 2.03698,1.0417 4.30981,1.5923 6.57281,1.5923 2.88742,0 5.61298,-0.9108 7.6731,-2.5633 1.58419,-1.2805 2.29831,-2.9254 2.31537,-5.3305 0.004,-2.5895 -0.94608,-5.5204 -1.77436,-7.7851 -2.17389,-5.9601 -3.27612,-12.1274 -3.27612,-18.3304 0,-5.5139 0.87369,-11.2208 2.5968,-16.9622 0.96378,-3.2094 1.43225,-6.3561 1.43225,-9.62 0,-1.1103 -0.0694,-2.2973 -0.21155,-3.6112 m 0.41889,-0.7306 c 0.17755,1.4471 0.29266,2.8924 0.29266,4.3418 0,3.2015 -0.45013,6.4229 -1.45337,9.7638 -1.67138,5.569 -2.57568,11.1788 -2.57568,16.8184 0,6.0316 1.03345,12.0933 3.24585,18.1591 0.89624,2.4504 1.80859,5.3653 1.80463,7.9571 -0.0162,2.279 -0.63794,4.2127 -2.50104,5.7187 -2.21436,1.7762 -5.04846,2.6744 -7.98743,2.6744 -2.29907,0 -4.65686,-0.5509 -6.80047,-1.6471 -1.52405,-0.7792 -3.05207,-1.2717 -4.57612,-1.5865 -0.004,-0.3028 -0.008,-0.6076 -0.008,-0.9104 -0.002,-3.0056 0.22809,-6.0235 1.05975,-8.7505 0.83362,-2.7311 2.24054,-5.1635 4.64673,-7.1295 0.43195,-0.3532 0.49652,-0.9891 0.14526,-1.4211 -0.19992,-0.2444 -0.49038,-0.3712 -0.7832,-0.3712 -0.22452,0 -0.45038,0.075 -0.63788,0.2278 -2.75531,2.2427 -4.38623,5.0868 -5.30267,8.1067 -0.91846,3.0238 -1.14655,6.2312 -1.14655,9.3378 0,0.1958 0.004,0.3916 0.004,0.5874 -1.1546,-0.1292 -2.30115,-0.1796 -3.43561,-0.1796 -1.7016,0 -3.37097,0.083 -5.02215,0.1533 -0.74689,-1.3949 -1.04358,-2.6644 -1.0456,-3.8938 -0.006,-2.1153 0.86799,-4.2005 1.90351,-6.3585 1.02337,-2.1577 2.20624,-4.3661 2.56152,-6.8307 0.0787,-0.5511 -0.30676,-1.0618 -0.85785,-1.1405 -0.0474,-0.01 -0.0945,-0.01 -0.14102,-0.01 -0.49612,0 -0.92749,0.364 -0.99948,0.8698 -0.27252,1.9801 -1.32819,4.0431 -2.38391,6.2413 -1.04566,2.1981 -2.09729,4.5559 -2.10132,7.2284 -0.002,1.2717 0.25232,2.6039 0.83972,3.9625 -0.18597,0 -0.37909,0.018 -0.56592,0.018 -0.0119,0 -0.0238,0 -0.0356,-2e-4 -0.59546,0 -1.18488,-0.012 -1.7702,-0.042 -2.22455,-0.1151 -4.48328,0.026 -6.42719,-0.2705 -1.95593,-0.3048 -3.50415,-0.9487 -4.70318,-2.6382 -0.0101,-0.016 -0.0263,-0.022 -0.0363,-0.036 0.71857,-2.1579 1.40692,-4.2188 2.07703,-6.2232 l 0.0626,0 c 1.75818,-0 3.25189,-0.7732 4.4953,-1.6614 1.24548,-0.8942 2.28906,-1.9419 3.11871,-2.6464 0.4259,-0.3612 0.47632,-0.9991 0.11505,-1.4229 -0.20053,-0.234 -0.48413,-0.3543 -0.76925,-0.3543 -0.23145,0 -0.4639,0.079 -0.65384,0.2411 -0.92249,0.7893 -1.91156,1.7744 -2.98548,2.5415 -0.87402,0.6257 -1.77227,1.0678 -2.6867,1.2151 0.4118,-1.2334 0.81958,-2.4586 1.22729,-3.6779 0.17767,-0.5286 -0.10895,-1.0999 -0.63782,-1.2777 -0.10543,-0.035 -0.21279,-0.052 -0.31839,-0.052 -0.42205,0 -0.81692,0.2667 -0.95736,0.6897 -1.24549,3.7263 -2.49494,7.4668 -3.85944,11.5542 -0.61975,-0.1756 -1.24548,-0.2461 -1.84906,-0.2461 -1.43198,0.01 -2.80685,0.2887 -3.95608,0.2887 -0.0123,0 -0.0244,-10e-5 -0.0366,-2e-4 -0.80744,-0 -1.45539,-0.1251 -1.9903,-0.4602 -0.5329,-0.335 -1.04962,-0.9144 -1.49371,-2.1034 -0.25641,-0.6964 -0.35327,-1.2636 -0.35327,-1.7298 0.004,-0.6943 0.1958,-1.1869 0.54504,-1.6856 0.52075,-0.7428 1.4776,-1.4231 2.53729,-2.1436 1.04962,-0.7307 2.20429,-1.5017 3.01569,-2.6908 2.42834,-3.5889 5.25836,-7.1295 7.51111,-10.9829 2.24865,-3.8494 3.92407,-8.05 3.92199,-12.8965 0.002,-1.956 -0.27246,-4.0109 -0.87805,-6.1748 -0.27051,-0.9689 -0.41583,-2.1134 -0.41376,-3.2863 -0.006,-2.1316 0.48236,-4.362 1.36048,-5.8517 1.18091,-2.0287 1.80664,-4.0433 2.0509,-6.0234 4.93335,1.6329 10.6438,2.501 16.52789,2.501 7.62409,-0 15.46418,-1.4212 22.0669,-4.3943 z"
     stroke="none"
     fill="#1a1818"
     id="path302"
     style="stroke-miterlimit:10" />
  <path
     d="m 277.24624,1036.9866 c -1.29145,1.6174 -1.90189,3.3481 -1.91425,5.4053 -0.002,1.4487 0.32804,3.0674 1.00791,4.9489 0.25067,0.6947 0.51205,1.3288 0.76483,1.9421 0.31454,0.7631 0.58618,1.4221 0.77075,2.0374 1.48737,5.0835 2.24054,10.2753 2.23856,15.4309 0.002,6.5614 -1.21763,13.2687 -3.62479,19.9354 -0.76056,2.1078 -1.14511,4.1057 -1.14304,5.9381 0.002,2.5515 0.75186,4.6771 2.16794,6.1458 1.45361,1.4976 3.49149,2.2589 6.05625,2.2625 1.25488,0 2.61154,-0.1906 4.03247,-0.5667 2.59631,-0.6861 5.24789,-1.2253 8.09185,-1.6454 0.002,-0.3434 0.006,-0.6896 0.009,-1.0277 0.006,-0.6226 0.0126,-1.2665 0.0126,-1.9109 0.004,-2.4981 -0.0992,-5.3857 -0.89019,-7.8615 -0.83591,-2.5937 -2.25064,-4.3781 -4.45163,-5.6154 -0.7258,-0.4067 -0.98572,-1.3278 -0.58057,-2.0511 0.26514,-0.4788 0.77014,-0.7762 1.31796,-0.7762 0.25678,0 0.51148,0.067 0.73505,0.1919 2.85348,1.5861 4.82361,4.0542 5.85529,7.3348 0.9042,2.8527 1.03067,5.9047 1.03265,8.7782 0,0.6821 -0.006,1.3498 -0.0127,1.9956 -0.002,0.1867 -0.004,0.3721 -0.005,0.5562 2.44082,-0.2716 4.94314,-0.4511 7.62042,-0.5467 0.65555,-1.9933 0.98767,-3.8884 0.98767,-5.6367 -0.0125,-3.6872 -1.34744,-6.6353 -4.08054,-9.0121 -0.6296,-0.5455 -0.69842,-1.5012 -0.1535,-2.1302 0.28687,-0.3313 0.7027,-0.5214 1.14084,-0.5214 0.36163,0 0.71197,0.1303 0.98645,0.3667 3.36416,2.8963 5.13647,6.8026 5.1253,11.2958 -0.002,1.7463 -0.28091,3.6134 -0.83032,5.559 0.69852,-0.01 1.30444,-0.014 1.87048,-0.014 0.98151,0 1.97706,0.01 2.95908,0.024 h 0.16873 0.0134 c 2.64426,0 5.33527,-1.0437 7.26367,-2.8049 -0.60886,-1.807 -1.20669,-3.5825 -1.79477,-5.3306 -0.0851,0 -0.17023,0.01 -0.25393,0.01 -10e-5,0 -1.9e-4,0 -2.5e-4,0 l -0.0514,10e-5 c -2.12302,0 -4.04556,-0.8395 -5.55783,-2.4259 -1.02951,-1.0677 -1.79508,-2.2893 -2.53543,-3.4707 -0.19092,-0.3046 -0.37128,-0.5924 -0.55634,-0.8781 -0.21905,-0.3387 -0.29282,-0.7423 -0.20767,-1.1366 0.085,-0.3935 0.31824,-0.7307 0.65814,-0.9505 0.24436,-0.1568 0.52661,-0.2397 0.81622,-0.2397 0.51728,0 0.99201,0.2593 1.26944,0.693 0.1781,0.2773 0.35392,0.5567 0.52393,0.8269 0.73071,1.1611 1.42087,2.2578 2.19632,3.052 0.73199,0.7394 1.49023,1.2758 2.6626,1.4465 -0.26563,-0.79 -0.53223,-1.5806 -0.79779,-2.368 l -0.21939,-0.6505 c -0.26462,-0.7881 0.16064,-1.6453 0.94702,-1.9106 0.15704,-0.053 0.32025,-0.08 0.48504,-0.08 0.64844,0 1.22293,0.4134 1.42932,1.0281 0.53357,1.5835 1.06781,3.1703 1.60694,4.7715 0.69186,2.0549 1.39169,4.1334 2.10824,6.2593 0.39273,-0.057 0.77448,-0.085 1.1406,-0.085 3e-5,0 1.2e-4,0 1.5e-4,0 0.96735,0.01 1.90448,0.1244 2.81076,0.2396 0.79605,0.1011 1.54798,0.1966 2.21073,0.1966 l 0.0504,-2e-4 c 0.83023,0 1.42859,-0.1348 1.88248,-0.424 0.35153,-0.2247 0.86987,-0.6703 1.30966,-1.9375 0.16354,-0.4823 0.24765,-0.925 0.25006,-1.316 -0.005,-0.5606 -0.15512,-0.9874 -0.51474,-1.47 -0.32315,-0.4281 -0.83386,-0.8768 -1.61139,-1.4149 -0.34109,-0.2411 -0.70544,-0.4749 -1.09118,-0.7226 -1.18284,-0.7592 -2.52353,-1.6198 -3.46808,-2.9251 l -0.002,-0 -0.002,-0 c -0.58039,-0.8232 -1.19098,-1.6692 -1.78144,-2.4874 -1.96139,-2.7177 -3.98953,-5.5279 -5.66986,-8.5121 -2.61505,-4.6436 -3.83301,-8.7617 -3.83301,-12.9601 0,-2.1039 0.32297,-4.2421 0.95997,-6.3557 0.24511,-0.8121 0.36425,-1.5797 0.36425,-2.3479 0.005,-1.7607 -0.63965,-3.2608 -1.38614,-4.9977 -0.10427,-0.2426 -0.20974,-0.488 -0.31524,-0.7387 -0.68659,-1.6442 -1.18161,-3.3499 -1.50922,-5.2027 -0.86981,-0.071 -1.73846,-0.1076 -2.58801,-0.1076 h -0.042 c -2.69199,0 -5.44239,0.279 -8.35425,0.5744 -2.93369,0.2976 -5.96726,0.6054 -8.9747,0.6085 -3.31504,0 -6.16715,-0.3912 -8.71945,-1.196 -0.72828,-0.2301 -1.49601,-0.4231 -2.30884,-0.6274 -0.91471,-0.2299 -1.86054,-0.4676 -2.77869,-0.7697 -1.39163,-0.4617 -2.45517,-1.0031 -3.30032,-1.6846 m -0.0566,-0.7116 c 0.99316,0.9327 2.24267,1.4998 3.51434,1.9217 1.6936,0.5571 3.49616,0.8943 5.08069,1.3947 2.80377,0.8842 5.68426,1.1729 8.56885,1.1729 5.88272,-0.01 11.81845,-1.1829 17.32895,-1.1829 0.0145,0 0.0282,0 0.0427,0 1.02338,0 2.02661,0.05 3.01569,0.1434 0.2948,1.8126 0.77514,3.6373 1.54223,5.4743 0.85584,2.0327 1.74604,3.8069 1.73999,5.9304 0,0.7591 -0.10901,1.5746 -0.38556,2.491 -0.64795,2.1498 -0.93866,4.2208 -0.93866,6.2112 0,4.6628 1.5907,8.8473 3.76868,12.7147 2.18005,3.8717 4.95355,7.4525 7.42426,10.9568 1.17883,1.629 3.01776,2.5251 4.44281,3.5325 0.7146,0.4945 1.32422,0.9951 1.72186,1.5219 0.39563,0.5309 0.60956,1.0497 0.61566,1.7703 -0.002,0.4098 -0.0787,0.8942 -0.27655,1.4775 -0.42596,1.2275 -0.94873,1.8371 -1.51392,2.1983 -0.5672,0.3613 -1.27368,0.5027 -2.15173,0.5027 -0.0168,10e-5 -0.0336,2e-4 -0.0504,2e-4 -1.45035,0 -3.22641,-0.4263 -5.02427,-0.4363 -0.48846,0 -0.98303,0.054 -1.47552,0.1493 -1.32422,-3.9281 -2.58984,-7.6906 -3.85144,-11.435 -0.14151,-0.4215 -0.53421,-0.6878 -0.95551,-0.6878 -0.10748,0 -0.21676,0.017 -0.32428,0.054 -0.52679,0.1777 -0.8114,0.749 -0.63379,1.278 0.41785,1.2392 0.83973,2.4887 1.25757,3.7342 -1.67749,-0.03 -2.73108,-0.6399 -3.7323,-1.6512 -1.00323,-1.0275 -1.84301,-2.4928 -2.78564,-3.9605 -0.19217,-0.3004 -0.51703,-0.4633 -0.84873,-0.4633 -0.18743,0 -0.37701,0.052 -0.54611,0.1606 -0.46826,0.3027 -0.60357,0.9265 -0.30072,1.3948 0.90625,1.3989 1.78034,2.9753 3.03186,4.2733 1.22861,1.2888 2.9408,2.2729 5.19788,2.2729 0.0161,0 0.0322,0 0.0483,-10e-5 0.19781,0 0.40375,-0.012 0.60962,-0.026 0.66003,1.9622 1.33221,3.9585 2.01855,5.9952 -1.94278,1.8926 -4.80923,3.1611 -7.83978,3.1611 -0.005,0 -0.01,0 -0.0144,0 h -0.17156 c -0.98511,-0.016 -1.97217,-0.024 -2.95521,-0.024 -0.84777,0 -1.69561,0.01 -2.54333,0.024 0.63177,-2.0326 1.0011,-4.0735 1.00317,-6.0698 0.0101,-4.0532 -1.4978,-7.9429 -4.95153,-10.9163 -0.19117,-0.1647 -0.42627,-0.2456 -0.66022,-0.2456 -0.28235,0 -0.56302,0.1178 -0.76282,0.3486 -0.36536,0.4218 -0.31891,1.0596 0.10291,1.425 3.00366,2.6121 4.24102,5.8135 4.25311,9.3883 0,1.964 -0.40369,4.0351 -1.12439,6.1263 -2.828,0.093 -5.65393,0.2867 -8.48798,0.6197 0.006,-0.9972 0.0222,-2.0346 0.0222,-3.1126 -0.002,-2.8239 -0.12512,-5.8377 -1.00928,-8.6272 -0.87604,-2.7857 -2.58569,-5.3614 -5.62158,-7.0489 -0.15598,-0.087 -0.32526,-0.1289 -0.49213,-0.1289 -0.3537,0 -0.69674,0.1865 -0.88055,0.5185 -0.27246,0.4864 -0.0989,1.1 0.38757,1.3726 2.54944,1.4333 3.89783,3.4617 4.68311,5.8982 0.7771,2.4324 0.91839,5.2564 0.9143,8.0157 0,1.1485 -0.0201,2.2729 -0.0242,3.3709 -2.80383,0.3997 -5.61969,0.9447 -8.46179,1.6957 -1.50989,0.3997 -2.90069,0.5834 -4.16021,0.5834 -2.81592,-0 -4.94751,-0.9024 -6.41504,-2.4143 -1.46344,-1.5178 -2.30719,-3.7162 -2.30915,-6.4937 -0.002,-1.8207 0.36933,-3.8816 1.17273,-6.1081 2.37384,-6.5745 3.59705,-13.1712 3.5951,-19.7657 0.002,-5.1049 -0.73072,-10.2059 -2.21845,-15.2906 -0.32092,-1.0697 -0.96081,-2.3838 -1.526,-3.9502 -0.56317,-1.5585 -1.03961,-3.3247 -1.0376,-5.1191 0.0122,-2.0226 0.57129,-4.0735 2.35767,-6.1163 z"
     stroke="none"
     fill="#1a1818"
     id="path307"
     style="stroke-miterlimit:10" />
  <path
     d="m 257.30523,592.37089 v -71.97763 c -0.57303,-0.044 -1.14594,-0.0662 -1.70746,-0.0662 -2.88657,0.005 -5.50843,0.56467 -8.01544,1.71133 -2.43042,1.11164 -4.6811,2.74247 -6.8798,4.98484 -2.97918,3.05246 -6.0487,6.10342 -9.01718,9.05389 -2.67285,2.65668 -5.4367,5.40381 -8.1148,8.1326 -6.81257,6.95984 -14.98752,10.50387 -24.29349,10.53363 l -0.0143,9e-5 c -0.0498,0 -0.0992,-0.003 -0.14822,-0.008 -0.0109,0.0514 -0.0217,0.10272 -0.0325,0.15408 -0.0714,0.33841 -0.1445,0.68506 -0.22318,1.03366 10.5521,4.69724 18.69056,12.6381 26.56495,20.32084 1.04718,1.02169 2.13,2.07815 3.19909,3.10784 8.3067,8.01053 18.21427,12.50504 28.68241,13.01929 m 0.5,0.52185 c -10.23206,-0.37347 -20.5832,-4.55389 -29.52948,-13.18121 -9.14606,-8.80902 -17.93287,-18.24573 -29.99775,-23.49799 0.17157,-0.71661 0.31086,-1.42511 0.46625,-2.13769 0.15323,0.0975 0.3241,0.1676 0.51846,0.1676 0.003,0 0.006,-3e-5 0.008,-6e-5 9.44275,-0.0302 17.40198,-3.70197 23.94208,-10.38342 5.65191,-5.75898 11.46942,-11.38465 17.13147,-17.18598 4.36816,-4.45495 9.29345,-6.83685 15.25219,-6.84692 0.69037,0 1.39685,0.0323 2.11548,0.0989 0.002,1.5e-4 0.005,2.4e-4 0.007,2.4e-4 0.0293,0 0.0556,-0.0103 0.0854,-0.0103 0,24.63849 0,49.00849 0,72.97687 z"
     stroke="none"
     fill="#1a1818"
     id="path313"
     style="stroke-miterlimit:10" />
  <path
     d="m 262.87182,520.21605 h 6e-5 c -0.83744,0 -1.69312,0.054 -2.54786,0.16061 v 72.05252 c 4.74378,-0.1235 9.42521,-1.07523 13.92316,-2.83124 4.70322,-1.83618 9.10721,-4.51407 13.08988,-7.95959 1.9505,-1.68512 3.89624,-3.4292 5.95623,-5.27567 8.38785,-7.51846 17.05768,-15.28958 27.1157,-20.09909 -0.18064,-0.54065 -0.34824,-1.08743 -0.5109,-1.62329 -13.48016,-1.67136 -26.30862,-9.58951 -38.13443,-23.53952 -2.9758,-3.51443 -5.65207,-5.96835 -8.42248,-7.72259 -3.35614,-2.12604 -6.7807,-3.16037 -10.46936,-3.16214 m 2.4e-4,-0.5 c 4.07947,0.002 7.57562,1.2373 10.73669,3.23974 3.15906,2.00037 5.96082,4.77997 8.5365,7.8219 9.60828,11.33417 22.18592,21.5481 38.1366,23.40515 0.23816,0.78522 0.4743,1.5705 0.74481,2.34156 -12.6463,5.92443 -23.40716,16.89129 -33.36273,25.4923 -8.12671,7.03064 -17.88641,10.78718 -27.83991,10.92249 0,-23.98456 0,-48.37073 0,-73.0274 0.0372,0 0.0731,0.0104 0.11078,0.0104 0.009,0 0.0189,-6.4e-4 0.0285,-0.002 1.00323,-0.13928 1.97217,-0.20385 2.90875,-0.20385 z"
     stroke="none"
     fill="#1a1818"
     id="path318"
     style="stroke-miterlimit:10" />
  <path
     d="m 149.31743,595.54162 c 8.67326,-3.23138 15.82399,-6.28979 22.35805,-10.5361 3.89905,-2.5372 7.28812,-5.30795 10.3609,-8.47061 3.38849,-3.48758 6.3259,-7.37699 8.98251,-11.89456 0.39395,-0.65546 0.61753,-1.69965 0.85422,-2.80515 l 0.0545,-0.25409 5.8e-4,-0.003 6.1e-4,-0.003 c 0.26166,-1.15442 0.62003,-2.73541 1.78299,-4.02072 0.47324,-0.52039 1.12445,-0.94879 1.98511,-1.30496 1.88355,-7.66419 2.83835,-15.09937 2.83835,-22.10291 -0.001,-6.5639 -0.8403,-12.72531 -2.49454,-18.31302 -1.6593,-5.60464 -4.13717,-10.62616 -7.36471,-14.92492 -3.26386,-4.34305 -7.29941,-7.9581 -11.9946,-10.74463 -4.72724,-2.80564 -10.16879,-4.79718 -16.18134,-5.92307 -0.66858,5.14579 -1.63165,10.31455 -2.56402,15.31858 -0.52085,2.79544 -1.05942,5.686 -1.53626,8.51992 -2.32422,13.75522 -4.10173,27.35544 -5.28314,40.42295 -1.23527,13.66293 -1.8616,27.21249 -1.8616,40.27231 0,2.0531 0.0199,4.21908 0.0624,6.76626 m -0.48775,0.71457 c -0.0444,-2.49292 -0.0747,-4.98584 -0.0747,-7.48083 0,-26.83063 2.58575,-53.75611 7.15173,-80.77857 1.35651,-8.06213 3.13281,-16.15655 4.16431,-24.3418 12.82184,2.28302 22.48468,8.27814 29.00464,16.95392 6.5744,8.75647 9.95752,20.28644 9.95953,33.53827 0,7.04077 -0.95679,14.55988 -2.89459,22.39185 -0.006,0.0262 0,0.0505 -0.004,0.0747 -0.82562,0.31287 -1.54828,0.72065 -2.05493,1.27778 -1.03552,1.14447 -1.38068,2.5393 -1.66529,3.79486 -0.27252,1.26562 -0.50061,2.43237 -0.96893,3.21154 -5.52679,9.39838 -12.11334,15.72052 -19.49927,20.52668 -7.05084,4.58215 -14.85046,7.76941 -23.1185,10.8316 z"
     stroke="none"
     fill="#1a1818"
     id="path324"
     style="stroke-miterlimit:10" />
  <path
     d="m 357.52569,484.18326 c -4.74204,1.13141 -9.06986,2.68759 -12.87174,4.62897 -3.97589,2.03018 -7.50824,4.54892 -10.49871,7.48608 -3.02439,2.97342 -5.59086,6.4682 -7.62815,10.38727 -2.07062,3.98315 -3.66556,8.54053 -4.74054,13.54562 -1.12439,5.22901 -1.69452,10.42777 -1.69452,15.45151 0.004,5.50348 0.68674,10.84683 2.02777,15.88156 1.33899,5.0271 3.34681,9.7916 5.96769,14.1612 2.64309,4.40667 5.93493,8.45336 9.78412,12.02768 3.91833,3.63848 8.45672,6.82647 13.48901,9.47531 1.07785,0.56674 2.26361,1.24139 3.51898,1.95562 1.79681,1.02228 3.65479,2.07935 5.56329,3.0365 2.99201,1.51075 5.51334,2.42835 7.50623,2.73261 l 0.37729,-6.42563 c -0.14758,-11.9577 -0.68329,-24.79761 -1.63773,-39.25311 -0.52911,-8.07859 -2.0542,-16.25211 -3.52905,-24.15653 -1.7803,-9.54138 -3.62122,-19.40762 -3.79126,-29.38128 -0.0223,-1.27018 -0.18872,-2.47303 -0.49463,-3.57535 l -0.29074,-1.04981 c -0.21127,-0.76309 -0.37146,-1.55417 -0.4761,-2.35138 -0.19562,-1.49371 -0.39719,-3.03286 -0.58121,-4.57684 m 0.43103,-0.61526 c 0.19983,1.71978 0.42389,3.43157 0.64593,5.12719 0.10096,0.76898 0.25434,1.53205 0.46222,2.2829 l 0.29071,1.04974 c 0.33106,1.19294 0.49048,2.43641 0.5127,3.70002 0.31085,18.22955 6.15259,35.70013 7.31933,53.51391 0.86591,13.11457 1.47754,26.18476 1.63898,39.29724 l -0.40973,6.97815 c -2.39599,-0.24621 -5.32092,-1.39685 -8.19934,-2.85022 -3.28015,-1.64508 -6.50989,-3.63946 -9.0896,-4.99591 -20.55493,-10.81946 -31.5177,-29.68689 -31.53589,-51.98791 0,-5.03021 0.5611,-10.23407 1.70569,-15.55701 2.19415,-10.21588 6.39881,-18.17908 12.50696,-24.18433 6.11218,-6.00317 14.16418,-10.07257 24.14594,-12.3717 z"
     stroke="none"
     fill="#1a1818"
     id="path329"
     style="stroke-miterlimit:10" />
  <path
     d="m 445.92697,555.12209 h 0.0104 c 2.62653,0 4.97806,-0.39032 7.18824,-1.19299 4.34344,-1.58472 7.42721,-4.00598 9.42724,-7.40152 1.73297,-2.95096 2.65698,-6.71005 2.82242,-11.48669 -3.93637,-4.27912 -6.40299,-9.75586 -8.48236,-15.03925 -0.48145,-1.22635 -0.95355,-2.47015 -1.4101,-3.67303 -1.47915,-3.89704 -2.8789,-7.58481 -4.61459,-10.84015 -2.19461,0.43258 -4.44775,0.80813 -6.63043,1.1719 -4.32398,0.72071 -8.7952,1.46595 -12.93985,2.67765 -3.64459,1.06741 -6.69037,2.38406 -9.31137,4.0252 -3.02805,1.89597 -5.53641,4.23844 -7.66568,7.15931 4.12939,7.48089 8.57803,15.48913 14.39117,25.90649 0.93717,1.68729 1.66419,3.52109 2.21878,5.59808 4.80548,1.61884 9.93631,3.095 14.98654,3.095 h 0.01 m -0.01,0.5 c -5.23413,0 -10.59146,-1.57846 -15.40179,-3.20751 -0.50061,-1.94385 -1.19904,-3.86756 -2.2406,-5.7428 -4.8728,-8.73224 -9.73554,-17.47058 -14.56592,-26.22309 0.0464,-0.0444 0.10095,-0.0767 0.1413,-0.12915 4.59826,-6.35644 10.6217,-9.50341 17.30706,-11.46136 6.38672,-1.86719 13.33661,-2.59992 19.97565,-3.93219 2.39404,4.39245 4.17444,9.66894 6.22528,14.89294 2.12354,5.39563 4.55182,10.73468 8.4234,14.92517 0.0303,0.0324 0.0687,0.0464 0.10096,0.0727 -0.13727,4.70526 -1.00324,8.73632 -2.89869,11.96399 -1.97009,3.34472 -5.01208,5.91235 -9.68701,7.61804 -2.39001,0.86798 -4.8587,1.22326 -7.35962,1.22326 -0.006,0 -0.0136,0 -0.02,0 z"
     stroke="none"
     fill="#1a1818"
     id="path335"
     style="stroke-miterlimit:10" />
  <path
     d="m 468.34494,536.35308 c -0.2952,4.71616 -1.34085,8.54956 -3.18949,11.70157 -2.32605,3.98001 -6.02701,6.91113 -10.99957,8.71173 -2.50995,0.91205 -5.26831,1.37448 -8.19836,1.37448 h -0.0205 c -5.06461,-0.002 -10.02152,-1.32523 -14.28424,-2.69824 0.4208,2.70703 0.54852,5.42029 0.67239,8.05191 0.0779,1.65549 0.15149,3.21914 0.29306,4.77273 0.53613,6.11762 1.0813,11.62317 2.32721,17.05066 0.66785,2.90937 1.47961,5.53321 2.48169,8.02149 1.10879,2.75323 2.42285,5.27694 4.01761,7.71585 1.90103,2.91321 2.78262,6.34122 3.45224,9.61212 0.1806,0.8858 0.35025,1.78671 0.51434,2.65796 0.46973,2.49426 0.91339,4.85019 1.61978,7.05124 0.33713,1.05349 0.6713,2.12399 0.99448,3.15921 1.21936,3.90613 2.48022,7.94522 4.10092,11.68707 1.74393,4.02634 3.75299,7.33127 6.13507,10.09012 0.30466,-0.16623 0.56458,-0.35983 0.78775,-0.58585 0.35031,-0.35852 0.6149,-0.80349 0.83365,-1.40307 0.2468,-0.66465 0.39236,-1.46698 0.54648,-2.31641 0.12164,-0.67029 0.2474,-1.36343 0.43484,-2.06747 0.2551,-0.93744 0.612,-1.72303 1.08731,-2.39124 -2.81283,-6.05484 -5.44976,-13.67001 -8.78887,-25.37152 -0.22623,-0.80255 0.24029,-1.63889 1.03778,-1.86374 0.13549,-0.0389 0.27526,-0.0586 0.4154,-0.0586 0.66937,0 1.26587,0.4497 1.45081,1.09442 3.33523,11.69992 5.94918,19.22946 8.74044,25.17694 2.54752,5.43134 5.38114,9.87766 9.41849,14.76389 0.49018,-0.56485 1.05222,-1.02356 1.67584,-1.36719 1.32853,-0.74008 2.78714,-1.00702 3.91245,-1.15729 0.86865,-0.11069 1.7532,-0.17706 2.60864,-0.24127 1.71726,-0.12888 3.3393,-0.25061 4.58286,-0.70279 1.07156,-0.39481 1.76169,-0.94122 2.26239,-1.80267 -7.67823,-14.26511 -9.60752,-28.6579 -10.92392,-42.18421 -0.0782,-0.8269 0.53061,-1.56567 1.35702,-1.64682 0.0492,-0.005 0.0992,-0.007 0.1485,-0.007 0.77905,0 1.42404,0.58566 1.50034,1.36279 0.66458,6.83444 1.51437,14.15042 3.2178,21.34354 1.74771,7.37994 4.24182,13.98306 7.6135,20.14847 0.84866,-2.64255 1.26348,-5.34092 1.26547,-8.21491 0.006,-3.5307 -0.61997,-6.95557 -1.22501,-10.26773 -0.45324,-2.48111 -0.9219,-5.04669 -1.10724,-7.59503 -0.39257,-5.59125 -1.08444,-11.28873 -1.75351,-16.79865 -1.04769,-8.62765 -2.13104,-17.54904 -2.13348,-26.48593 0,-2.18847 0.0662,-4.33981 0.19687,-6.39508 0.0518,-0.79291 0.71396,-1.414 1.50751,-1.414 0.0311,0 0.0626,9.5e-4 0.096,0.003 0.83115,0.0544 1.4632,0.77368 1.409,1.60217 -0.0214,0.3396 -0.0281,0.68982 -0.0346,1.02851 -0.002,0.10623 -0.004,0.21396 -0.007,0.32251 2.63495,0.35724 4.8378,1.60153 6.48624,2.66754 0.5704,0.37106 1.12756,0.75165 1.66635,1.11972 1.43018,0.97693 2.78101,1.89972 4.09869,2.45471 2.55017,1.08734 5.26004,2.09354 7.7992,2.09354 l 0.0223,-3e-5 c 2.28775,-0.01 4.30465,-0.77787 6.31213,-2.4101 -3.0668,-3.76346 -6.75473,-6.88937 -10.65201,-10.19275 l -0.52127,-0.44195 c -4.73975,-4.02433 -8.93246,-7.76776 -12.24307,-12.8353 -2.52722,-3.88071 -6.03818,-7.11569 -10.73352,-9.88977 -3.81934,-2.25653 -8.49713,-4.23248 -14.28549,-6.03305 m -0.46381,-0.66631 c 10.92444,3.33063 20.45203,7.94708 25.9021,16.31604 3.35083,5.12909 7.76136,9.00275 12.14771,12.72699 4.15015,3.52033 8.25183,6.93781 11.54614,11.08386 -2.44244,2.11548 -4.70526,2.83204 -7.00641,2.84211 -0.008,3e-5 -0.0165,3e-5 -0.0245,3e-5 -2.56632,0 -5.23441,-0.95639 -7.9953,-2.13358 -1.86914,-0.78729 -3.75647,-2.25879 -5.84162,-3.61529 -1.95404,-1.26361 -4.14209,-2.40204 -6.7279,-2.64228 0.0262,-0.60955 0.0182,-1.21716 0.0565,-1.82678 0.0363,-0.55505 -0.38758,-1.03552 -0.94263,-1.07184 -0.0212,-10e-4 -0.0424,-0.002 -0.0633,-0.002 -0.52964,0 -0.97358,0.41071 -1.00858,0.94659 -0.13525,2.12763 -0.1958,4.24909 -0.1958,6.36249 0.004,14.63458 2.88049,28.93201 3.88574,43.24957 0.42798,5.88416 2.34357,11.64307 2.3335,17.89856 -0.002,2.99555 -0.43604,6.10614 -1.65729,9.43677 -8.03992,-14.2005 -10.03625,-28.25983 -11.43713,-42.66626 -0.0512,-0.52151 -0.49091,-0.91122 -1.00269,-0.91122 -0.0329,0 -0.0661,0.002 -0.0995,0.005 -0.55505,0.0545 -0.96075,0.54706 -0.90826,1.10217 1.36652,14.04108 3.3064,28.068 10.99506,42.23224 -0.6117,1.19293 -1.46955,1.83283 -2.65845,2.27088 -1.95398,0.71051 -4.70325,0.63983 -7.30115,0.97088 -1.29993,0.17359 -2.58374,0.45825 -3.7323,1.09809 -0.73273,0.40374 -1.38074,0.98907 -1.90954,1.72387 -4.07953,-4.8728 -7.12757,-9.47509 -9.8808,-15.34503 -2.96332,-6.31409 -5.59345,-14.11377 -8.76862,-25.2522 -0.12689,-0.44235 -0.53134,-0.7315 -0.96997,-0.7315 -0.0918,0 -0.18497,0.0126 -0.27753,0.0392 -0.53692,0.15137 -0.84576,0.71051 -0.69439,1.24744 3.18933,11.17676 5.84369,19.07538 8.88165,25.55493 l 0.006,0.0122 c -0.59948,0.75695 -0.95477,1.61682 -1.18493,2.46264 -0.42182,1.58448 -0.53486,3.18726 -0.99506,4.42664 -0.22607,0.61975 -0.51678,1.1405 -0.94476,1.57849 -0.31891,0.323 -0.72058,0.61163 -1.26966,0.85388 -6.37048,-7.19812 -8.68383,-16.34424 -11.58239,-25.40149 -0.97303,-3.03192 -1.46753,-6.42511 -2.14783,-9.76172 -0.68225,-3.33264 -1.5462,-6.62695 -3.38104,-9.43878 -6.67743,-10.21191 -7.86835,-21.17871 -8.90589,-33.01758 -0.39563,-4.34192 -0.27453,-8.9967 -1.09607,-13.599 4.58612,1.50989 9.71125,2.92695 14.91315,2.92896 0.007,0 0.0136,0 0.0204,0 2.68405,0 5.38983,-0.38596 8.02761,-1.34442 5.0282,-1.82074 8.53846,-4.72943 10.73865,-8.49408 2.01251,-3.43152 2.93909,-7.52515 3.15704,-12.11536 z"
     stroke="none"
     fill="#1a1818"
     id="path341"
     style="stroke-miterlimit:10" />
  <path
     d="m 321.48147,559.09963 c -9.52948,4.60181 -18.05353,12.23602 -26.30219,19.62323 -2.02463,1.81317 -3.93695,3.52582 -5.86786,5.19818 -8.30432,7.19116 -18.58017,11.2738 -28.9874,11.52771 v 5.82147 c 0.41785,0.14301 0.75522,0.46387 0.91568,0.89612 3.66474,9.90924 4.12665,20.24518 4.57337,30.24085 0.11084,2.48004 0.22543,5.04449 0.38797,7.54046 0.98523,15.26392 1.37915,30.79816 1.76013,45.82105 0.13123,5.17498 0.26691,10.52618 0.42478,15.78436 0.36141,12.06372 0.95751,26.83325 1.53399,41.11645 0.45975,11.39136 0.9346,23.15625 1.28977,33.52948 0.57986,-0.49914 1.23861,-0.94158 1.99136,-1.33898 14.22156,-7.53461 26.95425,-11.19892 38.92581,-11.20258 8.57019,0 16.91406,1.95422 24.81293,5.81018 0.30261,-2.95959 0.75662,-5.8479 1.35144,-8.59546 3.78726,-17.47058 8.07352,-35.1225 12.21866,-52.19324 4.28045,-17.62799 8.7066,-35.8562 12.57907,-53.87091 1.75452,-8.15747 3.03692,-15.3537 3.92053,-21.99987 1.0557,-7.94013 1.56885,-15.20984 1.56885,-22.22455 0,-4.16388 -0.20697,-8.39862 -0.61536,-12.59394 -3.13635,-0.36737 -6.37494,-1.82495 -8.87665,-3.0733 -2.01748,-1.01233 -4.01571,-2.14929 -5.77868,-3.1524 -1.20935,-0.68805 -2.35166,-1.33802 -3.3512,-1.86383 -13.3624,-7.00879 -23.19787,-17.65052 -28.475,-30.80048 m 0.26785,-0.68158 c 5.07464,12.98938 14.69305,23.8291 28.43939,31.03931 2.47882,1.30395 5.7428,3.31652 9.12189,5.01208 3.0581,1.526 6.19702,2.81384 9.10974,3.06421 0.43799,4.35803 0.65802,8.71008 0.65802,13.04993 0,14.92932 -2.36163,29.73535 -5.50055,44.32959 -7.62207,35.45788 -17.09912,70.55053 -24.79791,106.06494 -0.66822,3.08642 -1.12433,6.17285 -1.41303,9.25915 -8.43957,-4.24499 -16.89935,-6.07983 -25.23999,-6.07983 -13.34875,0.004 -26.36236,4.6123 -38.69171,11.14441 -1.12433,0.5935 -2.00037,1.28186 -2.68671,2.04687 -0.79327,-23.52832 -2.20221,-53.74817 -2.8623,-75.78064 -0.61572,-20.51062 -0.85993,-41.07373 -2.18408,-61.58825 -0.80945,-12.4303 -0.37751,-25.32678 -4.93134,-37.64002 -0.15137,-0.40771 -0.53693,-0.65197 -0.94672,-0.65197 v -6.72986 c 10.45813,-0.1333 20.69623,-4.08557 29.1601,-11.41492 9.99384,-8.65564 20.63568,-19.41846 32.7652,-25.125 z"
     stroke="none"
     fill="#1a1818"
     id="path347"
     style="stroke-miterlimit:10" />
  <path
     d="m 197.69008,558.71215 c -0.0362,0.0133 -0.0759,0.0254 -0.1192,0.0349 -0.93814,0.20813 -1.35227,0.54522 -1.63114,0.84497 -0.32382,0.35315 -0.573,0.84222 -0.78418,1.539 l -0.001,0.003 -0.001,0.003 c -0.14411,0.45288 -0.25202,0.96411 -0.36627,1.50543 -0.23334,1.10547 -0.49781,2.35846 -1.16593,3.52661 l -0.001,0.003 -0.001,0.002 c -5.22439,8.89545 -11.86456,15.88269 -20.2998,21.36084 -7.68955,4.99719 -16.02756,8.28125 -23.93024,11.20166 0.38007,15.65643 1.68091,31.17151 3.86701,46.11816 2.29272,15.67542 5.63513,31.24927 9.93447,46.28913 7.99793,27.99267 14.05604,53.51867 18.51236,78.00439 3.94034,-2.17718 9.35178,-3.91504 14.32416,-4.58246 3.47211,-0.45965 7.01352,-0.69269 10.52576,-0.69269 14.09909,0 28.08972,3.78827 40.51611,10.96381 1.74863,-24.19696 2.12775,-48.05029 2.26178,-66.18365 0.17554,-24.16236 0.86252,-45.97455 2.10019,-66.68305 0.1062,-1.76721 0.20407,-3.5722 0.29871,-5.31781 0.61496,-11.34186 1.25088,-23.06988 4.63067,-34.39648 0.14145,-0.46985 0.49695,-0.82544 0.94571,-0.97821 v -5.84955 c -11.24151,-0.50928 -21.87454,-5.31 -30.77969,-13.90351 -0.99802,-0.96386 -2.00455,-1.9461 -2.97794,-2.89593 -3.94275,-3.8476 -8.01971,-7.82611 -12.27066,-11.29321 -4.66763,-3.80695 -9.1145,-6.6297 -13.58697,-8.6239 m -0.007,-0.55018 c 11.46344,5.04444 20.05243,14.17835 29.19037,23.00354 9.28741,8.96241 20.16742,13.41321 30.93237,13.78272 v 6.74792 c -0.43396,0 -0.83569,0.26856 -0.96692,0.70447 -3.88568,13.02185 -4.11981,26.46338 -4.90905,39.6001 -1.32624,22.19003 -1.93787,44.43445 -2.09931,66.65674 -0.16553,22.39184 -0.68432,44.74133 -2.32138,67.01611 -12.43832,-7.3435 -26.5278,-11.29993 -40.95651,-11.29993 -3.47394,0 -6.96802,0.22608 -10.46015,0.68836 -4.82836,0.64807 -10.57324,2.41016 -14.75567,4.87085 -4.79199,-26.4895 -11.2312,-52.76514 -18.6272,-78.65112 -8.81708,-30.84351 -13.10245,-61.80408 -13.82913,-92.8899 8.54251,-3.151 16.71164,-6.43115 24.16617,-11.27563 7.61194,-4.94348 14.4649,-11.53003 20.14111,-21.19483 0.94672,-1.65527 1.0376,-3.51428 1.48975,-4.93542 0.21594,-0.71253 0.49249,-1.29382 0.89416,-1.73193 0.40576,-0.43604 0.9447,-0.78516 1.89142,-0.99512 0.0828,-0.0182 0.1474,-0.0606 0.21997,-0.0969 z"
     stroke="none"
     fill="#1a1818"
     id="path353"
     style="stroke-miterlimit:10" />
  <path
     d="m 311.08734,846.64847 c 6.17569,-10e-4 12.07437,-0.76873 17.5322,-2.28174 5.78476,-1.60363 11.20862,-4.08239 16.12701,-7.36987 -0.27502,-1.43054 -0.55569,-2.87915 -0.82776,-4.28332 -1.00049,-5.16388 -2.03503,-10.50354 -2.9508,-15.77637 -0.11566,-0.66779 -0.23175,-1.33588 -0.3479,-2.00433 -2.04264,-11.75495 -4.15482,-23.9101 -4.1568,-35.98139 0,-1.88464 0.0745,-3.93179 0.22748,-6.24847 -3.95987,-2.03333 -8.05732,-3.56906 -12.18357,-4.5661 -4.00741,-0.9683 -8.17273,-1.45978 -12.38016,-1.46082 h -0.009 c -11.45974,0 -23.72741,3.54907 -37.50314,10.84955 -1.29532,0.68957 -2.13001,1.43994 -2.62695,2.36188 -0.32019,0.59308 -0.50705,1.27594 -0.58728,2.14685 0.0219,0.69122 0.0438,1.40136 0.0636,2.07525 0.005,0.14942 -0.0197,0.28272 -0.0495,0.39295 0.39856,6.17297 0.83065,12.20624 1.7062,18.14447 0.98279,6.66577 2.42121,12.37201 4.39743,17.44482 2.57083,6.59906 4.00717,13.6944 4.38785,21.68122 10.2742,3.23504 20.08585,4.87542 29.16623,4.87542 h 0.0148 m -0.0148,0.5 c -9.98102,0 -20.09256,-1.96557 -29.64978,-5.00403 -0.31897,-7.3031 -1.54626,-14.62243 -4.37018,-21.87109 -4.40454,-11.30603 -5.35119,-23.56055 -6.14245,-35.82739 0.0323,-0.10083 0.0585,-0.20581 0.0545,-0.31885 -0.0202,-0.68628 -0.0424,-1.40698 -0.0646,-2.10742 0.0808,-0.90833 0.27857,-1.68543 0.64801,-2.36975 0.50055,-0.92859 1.3302,-1.76624 2.83197,-2.56568 12.15885,-6.4436 24.86698,-10.9082 37.7381,-10.9082 0.003,0 0.006,0 0.009,0 8.29621,0.002 16.66919,1.85303 25.0846,6.23334 -0.14941,2.18201 -0.24835,4.362 -0.24835,6.54205 0.002,12.70484 2.32544,25.36121 4.49737,37.90039 1.18286,6.81067 2.53736,13.5951 3.8393,20.37537 -10.48236,7.09729 -22.23841,9.91919 -34.21253,9.92126 -0.005,0 -0.01,0 -0.0149,0 z"
     stroke="none"
     fill="#1a1818"
     id="path359"
     style="stroke-miterlimit:10" />
  <path
     d="m 206.55208,766.89199 c -3.36899,0 -6.77729,0.22474 -10.13077,0.66803 -4.98096,0.65229 -10.63281,2.55127 -14.19858,4.75788 0.24454,1.74115 0.36847,3.46741 0.36847,5.13629 -0.005,6.02557 -1.24103,12.23199 -2.43598,18.23407 -0.5968,2.9975 -1.21389,6.09711 -1.65094,9.07092 -1.48269,10.02979 -3.07418,20.06275 -4.71066,30.3111 4.23261,4.27392 8.98075,7.27222 14.5072,9.16205 4.77063,1.63128 10.15384,2.42755 16.45676,2.4342 h 0.0199 c 7.13782,0 14.52453,-1.02777 21.66803,-2.02179 0.62707,-0.0873 1.25281,-0.17432 1.88046,-0.26099 0.77271,-0.10107 2.03433,-0.54272 3.85928,-1.35113 0.2371,-0.1037 0.47422,-0.20844 0.71055,-0.31281 0.93057,-0.41107 1.88931,-0.83459 2.77975,-1.15808 0.31897,-7.9469 1.78735,-14.97876 4.4859,-21.48809 1.95099,-4.70173 3.31213,-9.79169 3.93631,-14.71985 1.07498,-8.46558 1.96741,-17.36097 2.72711,-27.18341 -12.26379,-7.3797 -26.1821,-11.27839 -40.27282,-11.27839 m 0,-0.5 c 14.39434,0 28.45361,4.01899 40.79504,11.50977 -0.70654,9.18652 -1.59064,18.35876 -2.7533,27.51501 -0.63787,5.03626 -2.02057,10.1493 -3.97052,14.84852 -2.96319,7.1477 -4.20062,14.40246 -4.461,21.65502 -1.17285,0.39966 -2.47479,1.00123 -3.77673,1.57044 -1.50378,0.66614 -3.00769,1.25964 -3.99469,1.38879 -7.78503,1.07502 -15.81595,2.28699 -23.61337,2.28699 -0.007,0 -0.0133,0 -0.0199,0 -11.47143,-0.0121 -22.34546,-2.57568 -31.49756,-11.92554 1.625,-10.17553 3.24182,-20.35522 4.74964,-30.55493 1.30206,-8.85937 4.07348,-18.21753 4.08154,-27.2323 0,-1.81274 -0.14533,-3.60919 -0.40979,-5.38556 3.83124,-2.46264 9.85058,-4.37219 14.67499,-5.00396 3.40527,-0.45014 6.80853,-0.67225 10.19568,-0.67225 z"
     stroke="none"
     fill="#1a1818"
     id="path364"
     style="stroke-miterlimit:10" />
  <path
     d="m 219.97326,1038.3364 c 7.68313,0 15.18292,-1.5034 21.17111,-4.2386 -0.26215,-1.4446 -0.5658,-2.7844 -0.92539,-4.0845 -3.17703,-11.4882 -4.65677,-23.734 -4.65677,-38.53825 0,-3.84131 0.11429,-8.03247 0.35929,-13.16468 -4.39816,-1.85314 -8.90326,-2.75439 -13.76157,-2.75439 h -0.0279 c -4.83121,0 -10.02994,0.91821 -15.89322,2.80701 -5.18845,1.67145 -10.33875,3.91729 -15.17746,6.08661 2.11963,7.94006 4.267,16.0053 6.34479,23.8091 1.74215,6.5434 3.54364,13.3096 5.3183,19.9626 0.75152,2.8186 1.26425,5.2257 1.31308,7.7068 4.68478,1.5762 10.16778,2.4083 15.88397,2.4083 h 0.0211 0.0307 m 3e-5,0.5 c -0.0106,0 -0.0206,0 -0.0312,0 -0.007,0 -0.0137,0 -0.0206,0 -5.887,0 -11.60181,-0.8922 -16.38019,-2.5495 -0.004,-2.7048 -0.60358,-5.3249 -1.29999,-7.9368 -3.93011,-14.7336 -7.84613,-29.47503 -11.78027,-44.21062 0.0464,-0.014 0.0929,-0.01 0.13727,-0.0302 10.07547,-4.52149 20.71243,-9.05335 31.53372,-9.05335 0.01,0 0.0185,0 0.0284,0 4.71332,0 9.46704,0.85181 14.27722,2.93103 -0.21795,4.49536 -0.37543,8.9906 -0.37543,13.48804 0,12.8359 1.11628,25.668 4.63868,38.405 0.41986,1.518 0.74279,3.0157 1.00323,4.5095 -6.35562,2.9833 -14.15912,4.4468 -21.73083,4.4468 z"
     stroke="none"
     fill="#1a1818"
     id="path370"
     style="stroke-miterlimit:10" />
  <path
     d="m 294.39595,1038.2451 v 0 c 2.76847,0 5.68625,-0.2961 8.50797,-0.5824 2.89532,-0.2937 5.88925,-0.5975 8.8211,-0.6006 0.70469,0 1.43546,0.025 2.21976,0.077 -0.0357,-0.5716 -0.0532,-1.0975 -0.0532,-1.5953 0,-4.3479 0.96487,-8.519 2.0076,-12.3791 2.63452,-9.7326 5.2995,-19.6325 7.87671,-29.20649 0.86581,-3.21624 1.73153,-6.43231 2.59778,-9.64831 -4.83887,-2.79602 -9.35596,-4.85755 -13.79813,-6.29785 -4.99262,-1.61878 -9.73297,-2.4057 -14.49194,-2.4057 -5.26151,0 -10.3375,0.96057 -15.51902,2.93689 -0.1662,0.063 -0.34005,0.095 -0.51669,0.095 -0.0405,0 -0.0809,-0.002 -0.12122,-0.005 0.16102,3.53857 0.33082,8.02826 0.33082,12.60345 0,14.05671 -1.28376,25.70881 -4.0401,36.67011 -0.31547,1.2526 -0.47541,2.362 -0.47541,3.2966 0.002,1.1212 0.2128,1.962 0.66294,2.6443 0.37942,0.5692 0.93786,1.0228 1.75827,1.4281 1.03256,0.5126 2.3865,0.8548 3.81994,1.2171 0.83597,0.2113 1.70041,0.4298 2.5575,0.6958 2.25277,0.7111 4.80835,1.0568 7.81344,1.0568 h 0.0419 m 0,0.5 c -0.0144,0 -0.0281,0 -0.0426,0 -2.75134,0 -5.41785,-0.2765 -7.96326,-1.08 -2.32128,-0.7206 -4.75372,-1.1001 -6.44928,-1.9419 -0.84979,-0.4198 -1.49981,-0.9204 -1.95196,-1.5986 -0.45013,-0.6823 -0.74481,-1.5785 -0.74689,-2.9208 0,-0.9266 0.1474,-2.057 0.49054,-3.4195 3.04401,-12.1053 4.02497,-24.3236 4.02497,-36.54801 0,-4.44677 -0.15741,-8.89367 -0.36536,-13.34057 0.18536,0.15234 0.41644,0.24219 0.65579,0.24219 0.11258,0 0.22699,-0.0199 0.33939,-0.0625 5.38757,-2.05494 10.60144,-2.96936 15.69629,-2.96936 9.94946,0 19.48919,3.49609 28.85327,8.95227 l 0.0201,0.008 c -3.52234,13.0763 -7.03668,26.15648 -10.5752,39.22868 -1.09002,4.0351 -1.99023,8.0924 -1.99023,12.2485 0,0.7086 0.0362,1.4213 0.0928,2.1357 -0.91644,-0.073 -1.8349,-0.1172 -2.7594,-0.1172 -5.78439,0.01 -11.7142,1.183 -17.32907,1.183 z"
     stroke="none"
     fill="#1a1818"
     id="path375"
     style="stroke-miterlimit:10" />
  <path
     d="m 345.35448,840.17784 c -9.87164,6.2967 -21.39193,9.48847 -34.25479,9.48847 h -0.0124 c -9.08429,0 -18.86594,-1.58405 -29.08343,-4.70886 0.009,0.41339 0.0176,0.8377 0.0176,1.25769 0,7.51507 -0.85093,15.05291 -1.77048,22.07916 -1.47632,11.27936 -2.19394,23.22497 -2.19394,36.51947 0,16.60419 1.1098,33.13122 2.34619,50.01166 l 0.0186,0.25433 c 0.49261,6.72211 1.00143,13.66437 1.36108,20.53052 5.35422,-2.00598 10.83664,-3.02283 16.30084,-3.02283 9.22837,0.002 18.75278,2.85486 29.09806,8.71912 5.52493,-20.49463 10.20629,-37.73334 15.03033,-55.0246 2.57269,-9.22467 4.27264,-16.37158 5.51202,-23.17316 1.54157,-8.45984 2.29047,-16.12512 2.28949,-23.43408 0,-0.86999 -0.009,-1.66223 -0.0281,-2.42279 -0.27439,-11.77649 -2.04526,-23.36951 -4.63111,-37.0741 m 0.353,-0.82379 c 2.38599,12.57556 4.4812,25.14917 4.77795,37.88623 0.0202,0.81153 0.0283,1.62293 0.0283,2.43445 0.002,15.81738 -3.52234,31.33203 -7.81988,46.74158 -5.16748,18.52234 -10.19373,37.08105 -15.19776,55.64563 -9.40637,-5.41577 -19.14392,-8.97254 -29.41235,-8.97449 -5.33704,0 -10.80939,0.96082 -16.41492,3.10059 -0.13519,0.0524 -0.2503,0.12902 -0.34515,0.22387 -0.36536,-7.19812 -0.89423,-14.38818 -1.41907,-21.54992 -1.22522,-16.72779 -2.34753,-33.38709 -2.34753,-50.04822 0,-12.18396 0.59949,-24.37 2.19818,-36.58435 0.95074,-7.26477 1.76624,-14.62439 1.76624,-22.01428 0,-0.646 -0.0202,-1.29187 -0.0323,-1.93995 9.51751,2.96741 19.58404,4.89112 29.59808,4.89112 0.004,0 0.009,0 0.0124,0 12.00873,0 23.92887,-2.80805 34.60779,-9.81226 z"
     stroke="none"
     fill="#1a1818"
     id="path380"
     style="stroke-miterlimit:10" />
  <path
     d="m 173.21559,838.68746 -0.0185,0.11584 c -1.23124,7.70203 -2.50437,15.66626 -3.71006,23.50135 -0.84933,5.53051 -1.27996,11.29742 -1.27996,17.14044 -9.5e-4,8.0166 0.77917,16.37048 2.38494,25.53894 1.31501,7.50812 3.1774,15.55859 5.86118,25.33557 5.11832,18.66089 10.05835,37.09057 13.81998,51.17621 11.03061,-4.92078 21.08017,-8.9527 31.88641,-8.9585 h 0.0165 c 4.79794,0 9.46954,0.87042 13.89664,2.58801 0.31759,-5.69189 0.74182,-11.36883 1.11709,-16.27203 1.30356,-17.07788 2.57624,-35.27557 2.57624,-53.492 0,-14.59418 -0.81528,-27.70313 -2.49244,-40.07599 -0.86517,-6.38776 -1.66577,-13.26587 -1.66577,-20.28095 0,-0.0579 4.3e-4,-0.11566 10e-4,-0.17322 -0.53558,0.22565 -1.10766,0.47864 -1.70245,0.74164 -0.16834,0.0745 -0.3378,0.14942 -0.51007,0.22528 -1.70465,0.74128 -3.23175,1.37134 -4.66062,1.57477 -0.64035,0.0884 -1.28305,0.17798 -1.92782,0.26776 -7.20929,1.00409 -14.66397,2.04242 -22.05423,2.04419 h -0.0775 c -13.25668,0 -23.2825,-3.49847 -31.46063,-10.99731 m -0.34515,-1.00843 c 9.36743,8.96271 20.51407,11.5058 31.80578,11.5058 0.0276,0 0.0537,-6e-5 0.0814,-6e-5 8.01166,-0.002 16.13434,-1.23327 23.90979,-2.30725 1.41706,-0.20178 2.97943,-0.86389 4.52967,-1.53796 1.03546,-0.4563 2.04882,-0.91248 2.92688,-1.25965 -0.004,0.30884 -0.0161,0.6156 -0.0161,0.92444 0,6.76624 0.75495,13.52234 1.66126,20.21387 1.81463,13.38708 2.49695,26.76196 2.49695,40.14307 0,17.82177 -1.2132,35.6538 -2.5777,53.53002 -0.43195,5.64393 -0.84778,11.29786 -1.1546,16.95594 -4.83051,-1.97571 -9.63779,-2.80994 -14.3577,-2.80994 -0.006,0 -0.0107,0 -0.0164,0 -11.33826,0.006 -22.15973,4.65491 -32.21814,9.1543 -4.6084,-17.25867 -9.24499,-34.51123 -13.97046,-51.73975 -4.6366,-16.89123 -8.26599,-33.79065 -8.26391,-51.00683 0,-5.69837 0.39764,-11.43311 1.28576,-17.21631 1.25958,-8.18518 2.56958,-16.36646 3.87763,-24.54969 z"
     stroke="none"
     fill="#1a1818"
     id="path385"
     style="stroke-miterlimit:10" />
  <path
     d="m 299.23918,166.46966 c -1.66745,1.27088 -3.52151,2.7237 -5.31866,4.1319 -1.12659,0.88278 -2.28827,1.79306 -3.40961,2.66308 17.95645,40.03333 46.84534,74.4831 83.56293,99.64026 6.50458,4.45618 13.57644,8.38965 21.01916,11.6911 7.67255,3.40339 15.34406,5.95194 22.80991,7.57837 0.70508,-5.84033 1.04812,-11.2836 1.04812,-16.62243 0,-7.05951 -0.56759,-14.11713 -1.68704,-20.97681 -1.14676,-7.02722 -2.90576,-14.04965 -5.22812,-20.87228 -3.52148,-10.34537 -7.97195,-18.26636 -13.60562,-24.2154 -6.29516,-6.64108 -14.10394,-10.91604 -23.87222,-13.06912 -2.3587,-0.51828 -4.80154,-0.85754 -7.38785,-1.2167 -1.48349,-0.206 -3.01745,-0.41904 -4.52045,-0.66776 -3.65274,-0.60666 -7.87997,-1.52182 -11.53759,-3.7099 -13.29651,-7.9697 -27.88291,-13.62356 -41.98911,-19.09128 -1.17334,-0.4548 -2.34692,-0.9097 -3.51907,-1.36557 -2.72785,-1.05356 -4.81543,-2.33117 -6.36478,-3.89746 m 0.0533,-0.66864 c 1.49371,1.62695 3.59094,2.97937 6.49163,4.09967 15.555,6.04962 31.16449,11.85095 45.58509,20.49442 3.40124,2.0347 7.33947,2.97735 11.36248,3.6455 4.02497,0.66611 8.14887,1.05771 11.93366,1.88938 10.30273,2.27087 18.0661,6.81869 24.12781,13.21347 6.05768,6.39679 10.40564,14.67288 13.71606,24.39828 4.73963,13.92402 6.94183,27.9469 6.94183,42.0102 0,5.73675 -0.40576,11.48156 -1.11828,17.22632 -15.83557,-3.36084 -31.83057,-10.75281 -44.54151,-19.46088 -36.47326,-24.98972 -65.69384,-59.4404 -83.89721,-100.20718 3.1308,-2.42429 6.52191,-5.12714 9.39844,-7.30918 z"
     stroke="none"
     fill="#1a1818"
     id="path391"
     style="stroke-miterlimit:10" />
  <path
     d="m 100.01209,295.16433 c 21.85742,-6.81381 43.93434,-19.54757 63.87956,-36.8511 6.59427,-5.72043 12.96145,-11.94489 18.92462,-18.50046 5.76614,-6.33899 11.32855,-13.17898 16.53268,-20.33002 5.01441,-6.89029 9.85013,-14.28106 14.37287,-21.96701 4.30249,-7.31163 8.45584,-15.1186 12.34793,-23.21009 -3.81494,-2.23999 -7.45267,-4.295 -10.56522,-5.96831 -1.11834,0.71261 -2.32132,1.31633 -3.57983,1.79629 -6.94583,2.65348 -15.12747,5.84601 -23.1456,9.40572 -8.34802,3.70621 -15.62491,7.40983 -22.2478,11.32333 -4.97226,2.91782 -10.96054,3.77677 -16.75171,4.60744 -2.00171,0.28712 -3.89246,0.55833 -5.75257,0.91095 -10.6589,1.99956 -19.0587,6.58795 -25.67926,14.02728 -2.99875,3.37084 -5.5919,7.26715 -7.92767,11.91159 -2.1198,4.21503 -3.96846,8.9346 -5.65166,14.42853 -4.05591,13.23016 -6.11241,26.64685 -6.11241,39.87738 0,6.16428 0.45609,12.39786 1.35607,18.53848 m -0.40876,0.64988 c -0.96487,-6.38062 -1.44731,-12.78351 -1.44731,-19.18836 0,-13.39722 2.08113,-26.80243 6.13439,-40.02392 3.17317,-10.35724 7.42021,-19.48516 13.68379,-26.5259 6.26761,-7.04272 14.5336,-12.04272 25.96066,-14.1864 7.34757,-1.39282 15.78711,-1.61084 22.34338,-5.45818 14.46698,-8.54858 29.83832,-14.79399 45.46802,-20.76489 1.38672,-0.52885 2.62006,-1.17479 3.73432,-1.90954 3.55261,1.90348 7.5393,4.17236 11.27966,6.37458 -0.0505,0.0626 -0.10693,0.11507 -0.14331,0.18976 -15.43189,32.13744 -35.40546,60.95433 -62.39765,84.36955 -18.62313,16.15656 -40.88781,29.83429 -64.61595,37.1233 z"
     stroke="none"
     fill="#1a1818"
     id="path397"
     style="stroke-miterlimit:10" />
  <path
     d="m 397.28241,376.16202 h -0.0103 c -4.06821,0.004 -7.70078,0.80042 -11.77823,2.58225 -3.50952,1.53491 -7.56159,3.92462 -13.10095,7.72891 4.6282,9.69 7.29141,18.95084 8.13488,28.28552 8.24121,2.48829 16.23557,3.74982 23.7659,3.74982 h 0.0166 c 10.50373,0 19.86347,-2.46255 27.8284,-7.32068 -2.09021,-4.10223 -4.479,-7.74154 -7.29379,-11.11377 -3.9183,-4.69058 -5.7384,-10.10034 -5.7279,-17.02411 0,-0.76571 0.0342,-1.51342 0.0715,-2.23989 -5.18945,-1.6402 -8.98447,-2.70044 -12.26633,-3.42798 -3.75467,-0.8324 -6.81457,-1.22007 -9.62967,-1.22007 h -0.0101 m 0.0101,-0.5 c 5.84717,0 12.64875,1.68909 22.41532,4.78803 -0.0444,0.8559 -0.0908,1.71173 -0.0908,2.59991 -0.008,5.32093 1.0335,11.22315 5.61163,16.70356 3.04797,3.65161 5.5227,7.54535 7.56348,11.61883 -8.70807,5.42786 -18.51819,7.63617 -28.48182,7.63617 -0.005,0 -0.0111,0 -0.0166,0 -8.18594,0 -16.45804,-1.49328 -24.23437,-3.86957 -0.87,-10.15936 -3.86554,-19.63855 -8.30231,-28.83508 5.28253,-3.64349 9.60425,-6.29791 13.5365,-8.0177 4.11578,-1.79858 7.82385,-2.62006 11.97809,-2.62415 0.007,0 0.0141,0 0.0209,0 z"
     stroke="none"
     fill="#1a1818"
     id="path403"
     style="stroke-miterlimit:10" />
  <path
     d="m 412.7489,517.65093 c 4.27893,-5.37482 9.92568,-8.94662 17.7015,-11.21042 4.37848,-1.27511 8.9382,-2.03366 13.34778,-2.76724 2.04773,-0.34064 4.15979,-0.69199 6.19193,-1.08749 -3.84064,-15.24054 -6.37845,-30.87034 -7.98041,-49.13556 -0.50363,-5.75882 -1.26984,-13.31415 -2.73703,-20.68387 -1.42554,-7.16056 -3.33508,-13.33206 -5.83258,-18.84564 -8.39228,5.04776 -18.18433,7.60626 -29.11579,7.60626 h -0.0136 c -7.48034,0 -15.4024,-1.19745 -23.5563,-3.55963 0.0509,0.99743 0.094,2.10934 0.094,3.23523 0,1.63275 -0.0574,3.31002 -0.1708,4.98587 -0.12775,1.85717 -0.19254,3.7547 -0.19254,5.63995 -0.002,10.71622 2.06555,21.70514 6.32037,33.59479 4.03659,11.27978 9.68177,22.28842 14.67151,31.56952 3.8132,7.09259 7.66254,14.10659 11.27198,20.65823 m -0.0714,0.90662 c -3.90991,-7.09522 -7.80578,-14.19452 -11.64099,-21.32807 -11.13232,-20.70636 -21.0556,-41.86084 -21.05151,-65.40118 0,-1.87531 0.0625,-3.76666 0.19373,-5.6742 0.11303,-1.67138 0.16961,-3.32049 0.16961,-4.95153 0,-1.32013 -0.0585,-2.61805 -0.13122,-3.91394 7.72296,2.29504 15.92035,3.73834 24.0935,3.73834 0.004,0 0.009,0 0.0136,0 10.17517,0 20.305,-2.25513 29.33616,-7.82593 5.70239,12.3172 7.62207,26.19476 8.84735,40.20563 1.43719,16.38659 3.79889,32.65216 8.09637,49.56762 -6.47351,1.29389 -13.42938,2.02869 -20.01398,3.94629 -6.71167,1.95398 -13.05597,5.23413 -17.91266,11.63697 z"
     stroke="none"
     fill="#1a1818"
     id="path408"
     style="stroke-miterlimit:10" />
  <path
     d="m 371.49148,385.46766 c 5.27484,-3.58042 9.21442,-5.87366 12.707,-7.40125 4.41242,-1.93469 8.53424,-2.83578 12.97159,-2.83578 h 0.0151 c 6.22665,0.004 13.08484,1.73816 22.0582,4.54931 0.15463,-2.9588 0.23297,-5.89266 0.23297,-8.7304 0.002,-11.66986 -1.10349,-23.49536 -2.17237,-34.93152 -0.14486,-1.54993 -0.29464,-3.15265 -0.43957,-4.73184 -0.15521,-1.69449 -0.34799,-3.41742 -0.53443,-5.08362 -0.45111,-4.03168 -0.91757,-8.20062 -0.919,-12.48306 0,-3.25977 0.27096,-6.2598 0.8284,-9.1713 0.42853,-2.24283 0.82293,-4.65933 1.20346,-7.37433 -14.57517,-3.13925 -29.95093,-9.74438 -43.41913,-18.6503 -8.49759,12.90692 -12.63043,26.67081 -12.63458,42.07721 0,4.91178 0.42987,10.11072 1.27762,15.45233 2.36062,14.86374 5.96597,35.00467 8.82473,49.31455 m -0.34204,0.83822 c -2.99554,-14.91717 -6.643,-35.38128 -8.9765,-50.07434 -0.84576,-5.32904 -1.28381,-10.49847 -1.28381,-15.53076 0.004,-15.14325 3.94629,-29.03894 12.73108,-42.37359 0.0969,-0.14734 0.13525,-0.3108 0.14734,-0.47431 12.76739,8.53241 28.51013,15.71643 44.23461,19.02893 -0.36126,2.62006 -0.77105,5.24011 -1.27166,7.86023 -0.59748,3.12067 -0.81952,6.13642 -0.81952,9.07746 0.002,6.02941 0.92248,11.74804 1.45135,17.52105 1.21918,13.28614 2.61603,26.43903 2.61402,39.70905 0,3.12475 -0.0928,6.25958 -0.2685,9.40045 -9.54577,-3.0097 -16.38861,-4.71533 -22.52301,-4.71942 -0.005,0 -0.01,0 -0.0147,0 -4.42102,0 -8.46185,0.90436 -12.77084,2.7937 -3.96442,1.73395 -8.20545,4.32977 -13.24982,7.78155 z"
     stroke="none"
     fill="#1a1818"
     id="path413"
     style="stroke-miterlimit:10" />
  <path
     d="m 85.4501,413.16673 c -2.88736,6.48056 -5.11469,13.54767 -6.8035,21.58249 -1.44894,6.89334 -2.49771,14.43082 -3.30063,23.72086 -1.17859,13.63052 -2.97327,29.59674 -7.33749,44.89874 0.23059,0.0184 0.46246,0.0369 0.69558,0.0555 6.02427,0.48008 12.85227,1.02423 19.39029,2.72596 7.74401,2.01507 13.56611,5.32751 17.7708,10.1159 0.35234,-0.69461 0.71298,-1.40811 1.05579,-2.11508 2.76433,-5.70035 5.8365,-11.33838 8.80754,-16.79077 3.15402,-5.78824 6.41543,-11.77353 9.28,-17.78818 3.20514,-6.72967 5.57507,-12.8096 7.2453,-18.58749 1.65167,-5.7006 2.86282,-10.88571 3.70263,-15.85175 0.94483,-5.58694 1.40369,-10.77936 1.40271,-15.87405 0,-3.75113 -0.27557,-7.53073 -0.81927,-11.2428 -8.44833,2.2857 -15.91971,3.39825 -22.82471,3.40008 h -0.0256 c -10.64819,0 -20.14542,-2.77487 -28.23947,-8.24942 m -0.21073,-0.7507 c 8.80698,6.12067 18.51232,8.50012 28.4502,8.50012 0.009,0 0.0165,0 0.0256,0 7.67859,-0.002 15.50257,-1.40289 23.2356,-3.53045 0.61163,3.97253 0.90838,7.92883 0.90838,11.87317 0.002,10.6701 -2.05285,21.26141 -5.12512,31.86493 -5.49249,19.00067 -16.71966,35.42163 -25.36317,53.24548 -0.45416,0.93658 -0.92853,1.8631 -1.39884,2.79163 -4.70123,-5.65601 -11.18484,-8.75245 -18.00355,-10.52674 -6.97205,-1.81469 -14.31152,-2.30725 -20.60944,-2.81592 4.29547,-14.81817 6.17072,-30.14709 7.48883,-45.39123 1.40491,-16.25549 3.95642,-31.82257 10.39154,-46.01099 z"
     stroke="none"
     fill="#1a1818"
     id="path419"
     style="stroke-miterlimit:10" />
  <path
     d="m 113.71496,418.39723 h -2.1e-4 c 6.80661,0 14.22371,-1.13379 22.66624,-3.46561 0.61069,-3.61914 1.52576,-8.89224 3.07959,-12.61041 2.10565,-5.02026 3.97928,-10.2894 5.72357,-16.09723 -5.1e-4,-4.6e-4 -10e-4,-9.2e-4 -0.002,-10e-4 -3.58283,-3.15607 -7.62503,-5.51389 -12.01438,-7.00794 -3.97857,-1.35422 -8.37362,-2.04248 -13.06272,-2.04565 -6.34867,0 -13.4567,1.27325 -21.13173,3.78479 -0.0387,1.52691 -0.0874,3.15637 -0.17134,4.81845 -0.0174,0.33789 -0.0256,0.70877 -0.0256,1.1672 0,0.14277 4.9e-4,0.2865 9.8e-4,0.43125 5e-4,0.14789 0.001,0.29684 0.001,0.44681 0,1.04235 -0.0238,2.15921 -0.30819,3.34298 -0.31172,1.31507 -0.93231,2.55115 -1.84401,3.67331 -3.85272,4.75659 -7.08673,9.85688 -9.87757,15.57917 3.94827,2.72869 8.26727,4.77853 12.84356,6.09494 4.35088,1.25155 9.10231,1.8872 14.12233,1.88931 m -2.1e-4,0.5 c -9.74155,-0.004 -19.08545,-2.31323 -27.60172,-8.31848 2.69275,-5.58734 5.99509,-10.96076 10.12506,-16.05963 0.94468,-1.16272 1.4776,-2.3415 1.74604,-3.47394 0.27252,-1.13446 0.29471,-2.21234 0.29471,-3.22766 0,-0.29676 -0.002,-0.58942 -0.002,-0.87806 0,-0.40374 0.006,-0.80139 0.0263,-1.19299 0.0868,-1.71979 0.13723,-3.43963 0.17962,-5.15741 6.94788,-2.30115 14.35398,-3.92004 21.62278,-3.92004 9.01283,0.006 17.7815,2.46063 25.4076,9.1784 0.0787,0.0686 0.16956,0.10901 0.26038,0.15137 -1.66333,5.57727 -3.5769,11.09198 -5.85181,16.51581 -1.526,3.65155 -2.43036,8.83728 -3.10052,12.81378 -7.74719,2.15991 -15.54085,3.56885 -23.1064,3.56885 z"
     stroke="none"
     fill="#1a1818"
     id="path424"
     style="stroke-miterlimit:10" />
  <path
     d="m 146.09759,383.07119 c 3.94845,-13.99265 6.43771,-28.62925 8.8461,-42.79105 0.4649,-2.7337 0.94564,-5.56052 1.42971,-8.34097 0.77512,-4.44776 1.49241,-9.27716 1.49241,-14.45383 0,-1.11523 -0.035,-2.25201 -0.10401,-3.37842 -0.38016,-6.1286 -1.84982,-12.55166 -4.49304,-19.63629 -2.37915,-6.37692 -5.47702,-12.62549 -8.23779,-17.95157 -14.56592,9.74759 -29.53818,17.03009 -44.51677,21.65296 0.2404,1.436 0.49102,2.91296 0.79019,4.35955 0.66572,3.22056 0.98933,6.52598 0.98933,10.10538 -0.003,5.45352 -0.76016,10.74133 -1.49283,15.85504 -0.41703,2.91089 -0.84828,5.92087 -1.12539,8.88462 -0.64035,6.80423 -0.72248,13.50708 -0.72248,18.58639 0,2.89322 0.0312,5.8407 0.0615,8.69113 0.0303,2.86124 0.0617,5.81989 0.0617,8.73508 0,1.30789 -0.0119,2.71405 -0.0374,4.38034 7.70031,-2.43265 14.59824,-3.61697 21.06664,-3.61874 l 0.0334,-3e-5 c 10.03512,0 18.76422,3.00048 25.95871,8.92041 m 0.26989,0.87912 c -7.90908,-6.76603 -17.05346,-9.2995 -26.2286,-9.2995 -0.0112,0 -0.0216,0 -0.0328,0 -7.32736,0.002 -14.68497,1.57849 -21.57837,3.807 0.0283,-1.68951 0.0485,-3.37909 0.0485,-5.0686 0,-5.81952 -0.12314,-11.62891 -0.12314,-17.42621 0,-6.22522 0.1413,-12.43432 0.72468,-18.63324 0.76098,-8.13885 2.61199,-16.15252 2.61602,-24.69305 0,-3.25183 -0.27047,-6.57642 -0.97897,-10.00391 -0.33106,-1.60071 -0.5975,-3.2055 -0.86597,-4.81024 15.99301,-4.88287 31.28357,-12.61597 45.26813,-22.03052 6.17072,11.86908 12.20218,24.71314 13.04391,38.28394 0.0706,1.15259 0.10499,2.28705 0.10499,3.40936 0,4.95551 -0.65204,9.67493 -1.49982,14.53967 -3.04193,17.47254 -5.64792,34.98755 -10.49851,51.9253 z"
     stroke="none"
     fill="#1a1818"
     id="path429"
     style="stroke-miterlimit:10" />
  <path
     d="m 173.44403,402.45231 c 2.224,0 4.03626,-0.0453 5.54086,-0.13837 0.82248,-0.0501 1.64441,-0.0986 2.46506,-0.147 9.78272,-0.57731 19.02292,-1.12259 27.12753,-4.06272 4.72947,-1.72143 8.61762,-4.07321 11.88669,-7.18963 3.7096,-3.53641 6.62677,-8.03788 8.91791,-13.76084 2.19516,-5.5083 6.35312,-10.08227 12.02451,-13.22748 4.66143,-2.58407 10.15203,-4.09436 15.90707,-4.3793 0.009,-62.52789 0.0281,-120.95047 0.0583,-173.65091 -8.5633,-0.33497 -17.51383,-3.29364 -26.61142,-8.79812 -0.5336,-0.3228 -1.10791,-0.6646 -1.6633,-0.99515 -0.14038,-0.0835 -0.2811,-0.1673 -0.42182,-0.25112 -16.85827,34.9845 -37.40585,62.70882 -62.80441,84.74221 -5.88663,5.10406 -12.04922,9.8876 -18.32191,14.22223 6.23118,12.01501 12.33442,24.92584 13.22493,39.10281 0.073,1.16821 0.10998,2.36789 0.10998,3.56573 0,5.40857 -0.73898,10.39252 -1.53753,14.97275 -0.4986,2.85871 -0.99387,5.77091 -1.47287,8.58725 -0.69251,4.07181 -1.40836,8.2807 -2.14981,12.4205 0.005,0.0172 0.009,0.0357 0.0128,0.0552 0.60291,3.11542 1.24835,6.33096 1.87256,9.4407 2.57333,12.82059 5.23343,26.07383 6.43588,39.39338 1.30243,0.005 2.68299,0.025 4.13562,0.0463 1.73163,0.0254 3.52222,0.0516 5.26343,0.0516 m 0,0.5 c -3.35278,0 -6.87115,-0.0969 -9.85663,-0.0989 -1.46948,-16.74597 -5.28051,-33.41925 -8.34265,-49.24268 -0.006,-0.0344 -0.0283,-0.0605 -0.0384,-0.0929 1.26361,-7.04682 2.42023,-14.10965 3.64752,-21.14636 0.8559,-4.90918 1.53009,-9.75367 1.53009,-14.88685 0,-1.16272 -0.0344,-2.33953 -0.10901,-3.53454 -0.89019,-14.17224 -7.14972,-27.31909 -13.37297,-39.29523 6.53008,-4.49133 12.76543,-9.34393 18.64141,-14.43878 27.24041,-23.63116 47.37347,-52.69841 62.89422,-85.02359 0.008,-0.0181 0.006,-0.0363 0.0141,-0.0565 0.86792,0.51875 1.75006,1.03955 2.56757,1.53409 8.95434,5.41782 17.91064,8.49611 26.8529,8.74235 -0.0324,56.47313 -0.0505,115.35241 -0.0586,174.61321 -5.70038,0.21399 -11.33618,1.66125 -16.16461,4.33789 -5.23407,2.90271 -9.5235,7.25671 -11.80243,12.97528 -4.83655,12.08106 -12.23047,18.00757 -21.09802,21.23523 -8.86951,3.21759 -19.25495,3.60108 -29.73328,4.23895 -1.69562,0.10492 -3.60516,0.13929 -5.57123,0.13929 z"
     stroke="none"
     fill="#1a1818"
     id="path435"
     style="stroke-miterlimit:10" />
  <path
     d="m 352.91018,402.37107 c 0.96142,-21.71973 5.5134,-46.01752 7.97207,-59.14191 0.0348,-0.18384 0.10923,-0.3598 0.22205,-0.52551 -0.51273,-3.0791 -0.94904,-5.75244 -1.33285,-8.16657 -0.87204,-5.49664 -1.31421,-10.85424 -1.31421,-15.92389 -0.004,-16.02557 4.2955,-30.33834 13.14288,-43.75326 -36.59714,-25.27481 -65.46497,-59.73283 -83.54257,-99.71451 -0.37116,0.28111 -0.73767,0.55635 -1.09482,0.82213 -8.48523,6.29921 -17.42285,9.64261 -26.57242,9.94189 -0.0301,52.64757 -0.0497,111.05495 -0.0582,173.61052 11.07084,0.29984 20.76996,5.21808 26.01676,13.21817 1.16742,1.79129 2.48404,3.48462 3.87793,5.27735 2.2074,2.83896 4.4899,5.77456 6.1185,9.11902 1.81305,3.73251 4.23211,6.52084 7.39493,8.52398 2.82391,1.78363 6.26428,2.98917 10.82711,3.79383 11.06568,1.95355 23.08264,2.90319 36.73758,2.90319 0.45551,0 0.91095,0 1.36277,-0.002 l 0.0134,-6e-5 c 0.0774,0 0.1539,0.006 0.22916,0.0176 m 0.46783,0.76904 c -0.18005,-0.17605 -0.42547,-0.28665 -0.69696,-0.28665 -0.003,0 -0.005,0 -0.008,3e-5 -0.45623,0.002 -0.91241,0.002 -1.36865,0.002 -12.36364,0 -24.62433,-0.75695 -36.82452,-2.91079 -4.23493,-0.74686 -7.91675,-1.9115 -11.0072,-3.8635 -3.08838,-1.95599 -5.61762,-4.69311 -7.57764,-8.72824 -2.59991,-5.33908 -6.8833,-9.61239 -9.96558,-14.34183 -5.70446,-8.69796 -15.90222,-12.85214 -26.09796,-13.00149 0.008,-59.25076 0.0263,-118.1199 0.0586,-174.58699 9.01281,-0.18773 17.9671,-3.3185 26.77414,-9.85658 0.51266,-0.38154 1.04556,-0.78321 1.59054,-1.19907 18.33057,40.82936 47.62183,75.34866 84.14557,100.43729 -0.14734,0.0767 -0.28259,0.17566 -0.37946,0.32501 -8.99466,13.63733 -13.06817,27.98932 -13.06414,43.48376 0,5.14929 0.44818,10.42585 1.30804,15.84564 0.41785,2.62818 0.88013,5.45008 1.36859,8.38111 -0.12311,0.13318 -0.22403,0.29059 -0.26037,0.48236 -3.11664,16.63696 -7.15583,39.10956 -7.99549,59.81793 z"
     stroke="none"
     fill="#1a1818"
     id="path440"
     style="stroke-miterlimit:10" />
  <path
     d="m 257.31327,362.56694 c -5.24411,0.28177 -10.22659,1.66086 -14.44091,4.00086 -5.05658,2.80621 -8.75187,6.85336 -10.68616,11.70318 -4.5347,11.42407 -11.92078,18.84073 -22.57977,22.67362 -8.53858,3.08221 -18.25049,3.65799 -27.64264,4.21481 -0.91575,0.0543 -1.86264,0.11044 -2.79282,0.168 -1.55335,0.096 -3.37305,0.14184 -5.72751,0.14426 -1.74582,-0.001 -3.5228,-0.0265 -5.2413,-0.0511 -1.37323,-0.0197 -2.68018,-0.0384 -3.90842,-0.0441 0.28055,3.81775 0.41712,7.36151 0.41712,10.81641 0,9.62277 -1.0333,18.27523 -3.15894,26.45199 -0.79193,3.04096 -1.17688,6.44376 -1.17688,10.4028 0,3.93729 0.37723,8.06791 0.74201,12.06253 l 0.0189,0.20713 c 0.18487,2.02191 0.27862,4.14667 0.27862,6.31518 0,2.95841 -0.18085,6.10425 -0.55234,9.60221 12.77094,2.34079 23.21543,8.5108 30.22791,17.86288 6.84521,9.11957 10.46341,21.2395 10.46341,35.04956 0,5.53479 -0.60434,11.44351 -1.79669,17.57199 8.36538,-0.16345 15.45492,-3.3143 21.65832,-9.62185 2.71347,-2.76462 5.5011,-5.5354 8.1969,-8.21497 2.94412,-2.92633 5.98853,-5.9523 8.93106,-8.96542 4.9111,-5.04825 10.63657,-7.60791 17.01737,-7.60791 l 0.0364,3e-5 c 0.54691,0 1.11954,0.0207 1.70832,0.0616 V 507.06419 467.2488 c -2.30036,-0.24567 -4.42758,-1.19098 -6.0315,-2.68866 -1.9624,-1.82569 -3.04196,-4.26487 -3.03985,-6.86744 -0.002,-2.60232 1.07739,-5.04217 3.03943,-6.86987 1.60464,-1.49625 3.73175,-2.44137 6.03195,-2.68863 0.002,-28.45535 0.004,-57.04864 0.008,-85.56726 m 0.50006,-0.52392 c -0.004,28.84515 -0.006,57.7691 -0.008,86.54968 -2.396,0.15741 -4.57605,1.09003 -6.19092,2.59582 -1.76825,1.64716 -2.88251,3.95435 -2.88043,6.50379 -0.002,2.54742 1.11218,4.85669 2.88043,6.50177 1.61487,1.50787 3.79492,2.44043 6.19092,2.59588 0,13.47785 0,26.90937 0,40.27423 v 10.84772 c -0.74689,-0.0666 -1.48364,-0.1029 -2.20832,-0.1029 -0.012,-3e-5 -0.0245,-3e-5 -0.0364,-3e-5 -6.51047,0 -12.03894,2.70752 -16.659,7.45657 -5.63782,5.77301 -11.45129,11.39673 -17.12946,17.18195 -6.24951,6.35443 -13.58697,9.72943 -22.50891,9.77783 -0.0424,0.002 -0.0787,0.0202 -0.12115,0.0262 1.25757,-6.26764 1.91156,-12.3374 1.91156,-18.10443 0,-13.58887 -3.47394,-25.57104 -10.36328,-34.74939 -6.8429,-9.12591 -17.06684,-15.4198 -30.37525,-17.75323 0.36536,-3.3205 0.59955,-6.65723 0.59955,-10.01203 0,-2.08319 -0.0848,-4.17236 -0.27655,-6.26965 -0.37945,-4.15625 -0.763,-8.28821 -0.763,-12.31519 0,-3.60919 0.30884,-7.1336 1.19299,-10.5288 2.25068,-8.6576 3.14283,-17.47461 3.14283,-26.32599 0,-3.76868 -0.16748,-7.54541 -0.45618,-11.31806 2.91077,0.004 6.36249,0.0949 9.68909,0.0969 1.99023,-0.002 3.93414,-0.0344 5.69635,-0.14332 10.44195,-0.64593 20.99701,-0.99713 30.29651,-4.35406 9.30151,-3.34473 17.30108,-9.83234 22.28485,-22.38776 2.08514,-5.22808 6.00525,-9.23492 10.90826,-11.95593 4.49335,-2.49493 9.8042,-3.8736 15.18359,-4.08758 z"
     stroke="none"
     fill="#1a1818"
     id="path446"
     style="stroke-miterlimit:10" />
  <path
     d="m 318.97435,551.45261 c -1.26593,-5.04654 -1.9053,-10.34735 -1.90142,-15.76922 0,-5.22956 0.59256,-10.64164 1.76117,-16.0857 2.24966,-10.49481 6.69235,-19.05798 13.20456,-25.45154 6.30807,-6.19903 14.76974,-10.56689 25.15402,-12.98446 -0.52008,-5.90549 -0.56409,-11.77259 -0.56409,-17.76078 0,-0.54846 5.2e-4,-1.09637 9.8e-4,-1.64404 5.2e-4,-0.54687 9.7e-4,-1.0935 9.7e-4,-1.64014 0,-9.85723 -0.15112,-18.75048 -2.00824,-27.76925 -1.26721,-6.14853 -1.90973,-13.47647 -1.90973,-21.78031 0,-1.55233 0.0284,-3.22061 0.0889,-5.20001 -0.039,0.004 -0.0782,0.005 -0.11764,0.006 -0.45896,0.002 -0.91995,0.002 -1.37888,0.002 -13.83569,0 -26.02438,-0.9645 -37.26269,-2.94864 -4.96454,-0.87735 -8.75028,-2.21695 -11.91352,-4.21557 -3.65707,-2.30487 -6.43744,-5.49707 -8.50024,-9.75968 -1.43039,-2.96637 -3.51355,-5.65152 -5.71906,-8.49432 -1.38189,-1.78125 -2.81088,-3.62311 -4.08761,-5.56515 -1.24378,-1.90436 -2.7771,-3.63013 -4.55747,-5.12943 -1.70471,-1.43555 -3.64566,-2.67255 -5.76895,-3.67657 -3.9284,-1.85758 -8.46918,-2.9069 -13.16345,-3.04517 -0.004,28.55685 -0.006,57.19293 -0.008,85.68649 2.06555,0.34989 3.91186,1.2424 5.36151,2.59592 1.96096,1.82663 3.03976,4.26645 3.03769,6.86923 0.002,2.60455 -1.07682,5.04376 -3.03699,6.86737 -1.44904,1.35501 -3.29544,2.24832 -5.36225,2.5986 v 39.90632 10.27893 c 0.87024,-0.0964 1.72492,-0.14515 2.54804,-0.14515 h 0.0197 c 4.21497,0 8.27494,1.2215 12.06684,3.63044 3.02987,1.92257 5.92404,4.5664 9.1083,8.32052 5.10895,6.03037 10.42789,10.9238 15.80915,14.54444 3.07358,2.06799 6.2381,3.76919 9.40558,5.05633 3.16858,1.28757 6.42559,2.19553 9.69271,2.70279 m 0.67164,0.60333 c -14.78394,-2.02063 -26.69336,-11.64508 -35.96058,-22.58368 -2.65039,-3.12469 -5.58136,-6.05566 -8.99469,-8.22155 -3.40435,-2.16272 -7.30993,-3.55265 -11.79895,-3.55265 -0.007,0 -0.0131,3e-5 -0.0197,3e-5 -0.98712,0 -2.00446,0.0706 -3.04804,0.2099 v -10.84368 c 0,-13.38508 0,-26.83875 0,-40.3368 2.12958,-0.27856 4.05933,-1.16674 5.52076,-2.53332 1.76825,-1.64508 2.88049,-3.95435 2.87848,-6.50177 0.002,-2.54743 -1.11023,-4.85663 -2.87848,-6.50379 -1.46143,-1.3645 -3.38916,-2.25268 -5.52076,-2.53125 0.002,-28.80688 0.004,-57.75695 0.008,-86.62835 9.67902,0.14935 19.19049,4.09967 24.40839,12.08911 3.25397,4.94952 7.46057,9.18445 9.83844,14.11572 2.09729,4.33386 4.91522,7.41022 8.31646,9.55383 3.3993,2.14777 7.3476,3.37104 11.73389,4.14618 12.34754,2.18 24.72931,2.94104 37.17572,2.94104 0.45819,0 0.91846,0 1.37671,-0.002 0.25025,-0.002 0.46826,-0.10297 0.64392,-0.25232 -0.0666,2.00037 -0.11304,3.99066 -0.11304,5.94659 0,7.76136 0.54902,15.12714 1.89942,21.67939 1.91162,9.28332 2.01855,18.55651 2.01855,27.87017 0,1.09406 -0.002,2.18811 -0.002,3.28418 0,6.04554 0.0424,12.1073 0.60553,18.19733 -0.043,-10e-4 -0.0854,-0.005 -0.12811,-0.005 -0.0356,0 -0.0714,0.002 -0.1081,0.0107 -10.25421,2.35767 -18.68371,6.58448 -25.10882,12.8985 -6.42505,6.30799 -10.81134,14.68103 -13.0661,25.19971 -1.17078,5.4541 -1.75006,10.80133 -1.75006,15.9809 -0.004,5.68627 0.69842,11.1687 2.07306,16.37255 z"
     stroke="none"
     fill="#1a1818"
     id="path451"
     style="stroke-miterlimit:10" />
  <path
     id="Jaw-2"
     data-name="Jaw"
     d="m 307.743,63.989 c -4.417,-18.238 8.882,-32.244 -12.884,-45.373 -19.469,-11.742 -41.425,0.117 -60.254,-2.493 -11.169,-1.548 -28.534,6.506 -25.936,32.388 2.598,25.882 -3.884,22.7 0.587,38.554 1.34,6.312 2,9.473 3.343,15.789 0.977,6.619 -0.135,12.388 4.976,20.868 4.542,7.537 17.349,22.792 29.592,28.05 a 15.724,15.724 0 0 0 1.7,0.495 13.6,13.6 0 0 0 3.1,0.279 c 13.49,0.761 18.312,0.711 25.948,-6.5 7.636,-7.211 23.549,-17.475 25.5,-36.572 1.951,-19.097 8.743,-27.251 4.328,-45.485 z"
     fill="none"
     stroke="#1a1818"
     stroke-miterlimit="10"
     stroke-width="0.5"
     style="isolation:isolate;mix-blend-mode:multiply" />
  <path
     id="Hair-2"
     data-name="Hair"
     d="m 314.977,33.179 c -1.952,-5.694 -6.112,-10.262 -10.3,-14.485 A 67.864,67.864 0 0 0 287.307,6.124 C 274.13,-0.523 258.539,-1.016 244.156,1.148 233.878,2.694 223.946,6.1 216.348,12.829 a 14.036,14.036 0 0 0 -1.191,0.84 c 0.028,-0.042 0.065,-0.083 0.095,-0.121 0.206,-0.277 -0.236,-0.6 -0.468,-0.359 a 75.087,75.087 0 0 0 -10.605,13.177 c -3.1,5.089 -4.306,10.834 -4.633,16.691 a 88.343,88.343 0 0 0 0.509,17.592 c 0.824,5.48 2.677,10.49 4.578,15.6 a 39.075,39.075 0 0 0 2.317,9.417 c 0.2,0.519 0.422,1.06 0.674,1.607 a 23.618,23.618 0 0 0 1.27,3.139 47.261,47.261 0 0 1 3.409,10.874 c 0.02,0.137 0.273,0.107 0.256,-0.036 a 40.728,40.728 0 0 0 -1.395,-6.871 c 0.624,0.963 1.278,1.912 1.948,2.87 a 0.12,0.12 0 0 0 0.208,-0.119 c -0.8,-1.8 -1.687,-3.571 -2.519,-5.345 a 6.4,6.4 0 0 0 1.881,1.092 c 0.012,0.026 0.016,0.059 0.028,0.087 0.05,0.125 0.262,0.079 0.224,-0.063 v -0.02 a 0.178,0.178 0 0 0 0.032,-0.273 c -0.04,-0.036 -0.079,-0.079 -0.119,-0.111 a 66.707,66.707 0 0 1 -1.9,-14.283 c 0.311,1.72 0.858,3.434 2.027,4.164 a 0.113,0.113 0 0 0 0.161,-0.073 v 0 c 0.042,0.111 0.216,0.069 0.184,-0.042 -2.44,-8.228 0.533,-16.282 2.485,-24.277 a 20.3,20.3 0 0 1 -0.529,3.95 c -0.03,0.125 0.166,0.216 0.224,0.091 2.8,-5.977 0.45,-12.566 1.558,-18.849 1.538,-8.722 10.46,-11.205 17.891,-13.24 1.794,-0.008 3.585,-0.083 5.381,-0.19 a 24.316,24.316 0 0 0 11.768,1.34 c 0.1,-0.014 0.071,-0.178 -0.026,-0.17 a 20.062,20.062 0 0 1 -7.519,-0.89 66.427,66.427 0 0 0 11.966,0.894 55.243,55.243 0 0 0 7.426,-0.5 l 2.079,0.131 a 67.056,67.056 0 0 1 -6.655,1.118 0.111,0.111 0 0 0 0,0.222 42.179,42.179 0 0 0 7.959,-0.476 0.13,0.13 0 0 0 0.131,0.117 99.133,99.133 0 0 0 11.885,-0.277 q -0.53,0.118 -1.064,0.246 a 0.092,0.092 0 0 0 0.028,0.18 c 2.606,-0.275 5.325,-0.61 8.008,-1.122 3.864,2.255 7.485,4.009 10.325,7.731 3.161,4.144 1.97,10.759 2.586,15.624 0.634,5.091 2.267,10.018 3.516,14.986 1.385,5.492 1.637,11 2.089,16.578 a 29.59,29.59 0 0 1 -1.395,4.711 c -0.049,0.117 0.157,0.2 0.212,0.087 a 31.152,31.152 0 0 0 1.3,-3.434 c 0.016,0.149 0.028,0.3 0.04,0.452 a 28.8,28.8 0 0 1 -1.778,5.941 0.163,0.163 0 0 0 0.283,0.159 14.411,14.411 0 0 0 1.72,-3.018 12.06,12.06 0 0 1 -2.493,5.41 c -0.05,0.059 0.028,0.141 0.083,0.087 a 12.008,12.008 0 0 0 2.564,-4.025 c -0.224,1.195 -0.468,2.382 -0.753,3.565 l 0.008,0.01 c -0.2,0.434 -0.388,0.864 -0.6,1.31 a 0.132,0.132 0 0 0 0.153,0.186 c -0.166,0.335 -0.323,0.67 -0.5,1 A 0.076,0.076 0 0 0 303.804,98 c 0.3,-0.47 0.577,-0.955 0.856,-1.435 1.964,-1.562 2.886,-4.265 3.375,-7.152 a 78.677,78.677 0 0 0 4.649,-24.35 0.566,0.566 0 0 0 -0.012,-0.079 c 0.04,-0.2 0.075,-0.406 0.115,-0.6 0.82,-3.853 1.722,-7.725 2.459,-11.607 1.249,-6.55 1.929,-13.189 -0.269,-19.598 z"
     fill="#1a1818" />
  <path
     id="Path_38"
     data-name="Path 38"
     d="m 241.126,116.72 c 0,0 2.624,3.21 6.453,2.646 a 28.833,28.833 0 0 1 9.055,0.067 c 2.485,0.371 5.67,-0.682 9.083,0 3.413,0.682 7.8,-2.3 8.442,-3.119 0,0 -3.615,2.184 -7,1.084 -3.385,-1.1 -5.745,-0.448 -8.038,-0.149 -2.293,0.299 -5.418,-1.306 -9.368,0 -3.95,1.306 -7.757,0.389 -8.627,-0.529 z"
     fill="#1a1818"
     opacity="0.8"
     style="isolation:isolate;mix-blend-mode:multiply" />
  <path
     id="Path_39"
     data-name="Path 39"
     d="m 274.082,116.195 c -3.256,1.058 -3.623,1.058 -9.17,0.194 -2.729,-0.422 -5.476,0.587 -8.212,0.206 a 19.428,19.428 0 0 0 -5.918,-0.127 c -3.363,0.474 -5.874,1.542 -9.99,0.079 -0.131,-0.046 -0.008,0 0.095,0.075 a 7.926,7.926 0 0 0 6.126,1.575 c 1.982,-0.281 3.934,-0.723 5.937,-0.832 a 28.189,28.189 0 0 1 4.79,0.563 c 1.659,0.19 3.333,-0.375 4.98,-0.4 1.754,-0.028 3.421,0.634 5.153,0.761 a 8.976,8.976 0 0 0 6.288,-1.976 c 0.062,-0.05 -0.021,-0.142 -0.079,-0.118 z"
     fill="#1a1818"
     opacity="0.5"
     style="isolation:isolate;mix-blend-mode:multiply" />
  <path
     id="Path_40"
     data-name="Path 40"
     d="m 269.204,123.257 a 42.681,42.681 0 0 1 -23.171,0.141 c -0.133,-0.04 -0.182,0.153 -0.059,0.2 4.334,1.728 7.759,2.866 12.541,2.638 4.069,-0.2 7.329,-0.547 10.763,-2.8 a 0.1,0.1 0 0 0 -0.074,-0.179 z"
     fill="#1a1818"
     opacity="0.8"
     style="isolation:isolate;mix-blend-mode:multiply" />
  <path
     id="Path_41"
     data-name="Path 41"
     d="m 260.151,104.107 c -1.324,0.319 1.708,-2.957 4.768,-3.2 3.06,-0.243 2.806,1.688 0.8,2.134 -2.006,0.446 0.951,0.914 2.564,0.331 a 4.645,4.645 0 0 1 -3.742,0.567 7.166,7.166 0 0 0 -4.39,0.168 z"
     fill="#1a1818"
     opacity="0.8"
     style="isolation:isolate;mix-blend-mode:multiply" />
  <path
     id="Path_42"
     data-name="Path 42"
     d="m 255.708,104.107 c 1.326,0.319 -1.71,-2.957 -4.774,-3.2 -3.064,-0.243 -2.8,1.688 -0.793,2.134 2.007,0.446 -0.949,0.914 -2.566,0.331 a 4.619,4.619 0 0 0 3.734,0.567 7.2,7.2 0 0 1 4.399,0.168 z"
     fill="#1a1818"
     opacity="0.8"
     style="isolation:isolate;mix-blend-mode:multiply" />
  <path
     id="Path_43"
     data-name="Path 43"
     d="m 249.992,104.231 c -0.824,-0.458 -1.738,-0.715 -2.57,-1.167 -1.562,-0.836 -1.5,-2.6 -1.149,-4.029 a 27.158,27.158 0 0 1 2.283,-5.327 c 0.036,-0.071 -0.055,-0.127 -0.095,-0.059 -1.486,2.277 -3.456,4.463 -3.446,7.327 0.012,2.527 2.634,3.672 4.83,3.809 a 0.3,0.3 0 0 0 0.147,-0.554 z"
     fill="#1a1818"
     opacity="0.5"
     style="isolation:isolate;mix-blend-mode:multiply" />
  <path
     id="Path_44"
     data-name="Path 44"
     d="m 265.859,103.907 c 0.824,-0.458 1.738,-0.715 2.574,-1.165 1.56,-0.84 1.5,-2.6 1.143,-4.033 a 26.975,26.975 0 0 0 -2.281,-5.329 0.058,0.058 0 0 1 0.1,-0.057 c 1.522,2.283 3.45,4.463 3.438,7.333 -0.006,2.523 -2.62,3.672 -4.816,3.8 a 0.3,0.3 0 0 1 -0.158,-0.549 z"
     fill="#1a1818"
     opacity="0.5"
     style="isolation:isolate;mix-blend-mode:multiply" />
  <path
     id="right_eye_brow"
     data-name="right eye brow"
     d="m 292.666,61.659 -0.016,-0.008 a 11.569,11.569 0 0 0 -6.064,-1.934 0.06,0.06 0 0 0 0,-0.109 c -0.075,-0.034 -0.153,-0.055 -0.232,-0.083 -0.079,-0.028 -0.1,0.1 -0.028,0.131 0.05,0.02 0.1,0.038 0.155,0.054 a 28.111,28.111 0 0 0 -3.876,0.008 33.259,33.259 0 0 0 -7.41,1.476 c -0.083,-0.014 -0.17,-0.018 -0.25,-0.036 -0.08,-0.018 -0.089,0.1 -0.026,0.123 -0.186,0.061 -0.367,0.129 -0.553,0.192 a 2.86,2.86 0 0 0 -0.711,0.1 0.059,0.059 0 0 0 0.02,0.115 c 0.024,0 0.046,0 0.069,0 -0.222,0.079 -0.448,0.151 -0.668,0.234 h -0.04 c -0.012,0 -0.014,0.016 -0.022,0.026 -0.19,0.073 -0.371,0.151 -0.557,0.226 -0.04,-0.008 -0.083,-0.014 -0.121,-0.024 -0.038,-0.01 -0.067,0.067 -0.024,0.083 -0.085,0.032 -0.169,0.067 -0.252,0.1 -0.133,-0.006 -0.27,0 -0.4,-0.014 -0.071,0 -0.087,0.115 -0.024,0.127 0.034,0.006 0.073,0.008 0.107,0.016 -0.18,0.075 -0.363,0.147 -0.541,0.224 a 2.953,2.953 0 0 0 -0.8,0.186 c -0.069,0.026 -0.044,0.129 0.026,0.109 0.07,-0.02 0.123,-0.008 0.186,-0.02 -0.228,0.1 -0.456,0.21 -0.678,0.317 -0.036,0.006 -0.079,0 -0.113,0.008 -0.034,0.008 -0.04,0.034 -0.038,0.063 -0.168,0.085 -0.331,0.17 -0.5,0.254 -0.046,0 -0.095,0 -0.139,-0.01 -0.044,-0.01 -0.061,0.075 -0.016,0.083 h 0.016 c -0.125,0.065 -0.244,0.133 -0.367,0.2 -0.059,0 -0.119,0.008 -0.178,0 -0.059,-0.008 -0.063,0.085 -0.012,0.093 h 0.012 c -0.166,0.091 -0.337,0.178 -0.5,0.27 v 0 c -0.055,0.032 -0.111,0.059 -0.166,0.091 a 0.99,0.99 0 0 0 -0.488,0.807 2.053,2.053 0 0 1 -0.591,0.1 l -0.008,0.008 c -0.04,-0.012 -0.091,-0.026 -0.131,-0.042 a 0.06,0.06 0 0 0 -0.055,0.1 2.413,2.413 0 0 0 0.537,0.293 0.39,0.39 0 0 0 0.022,0.418 3.466,3.466 0 0 1 -1.076,-0.616 c -0.083,-0.071 -0.2,0.052 -0.133,0.143 a 4.409,4.409 0 0 0 4.384,1.34 c 0.129,-0.036 0.087,-0.24 -0.032,-0.26 -0.119,-0.02 -0.256,-0.04 -0.385,-0.059 a 15.923,15.923 0 0 0 6.056,-1.017 c 0.666,-0.244 1.324,-0.521 1.978,-0.809 1.116,-0.484 2.22,-1 3.343,-1.443 2.327,-0.914 7.378,-1.675 7.461,-1.776 1.375,0.161 2.763,0.41 4.211,0.7 0.129,0.028 0.18,-0.145 0.093,-0.224 -0.132,-0.118 -0.306,-0.218 -0.455,-0.334 z"
     fill="#1a1818" />
  <path
     id="left_Eye_brow"
     data-name="left Eye brow"
     d="m 248.79,65.336 a 3.5,3.5 0 0 1 -1.074,0.62 0.426,0.426 0 0 0 0.032,-0.422 2.634,2.634 0 0 0 0.525,-0.3 0.057,0.057 0 0 0 -0.052,-0.1 c -0.042,0.014 -0.091,0.026 -0.129,0.042 l -0.008,-0.012 a 1.8,1.8 0 0 1 -0.591,-0.095 1.008,1.008 0 0 0 -0.492,-0.811 c -0.21,-0.123 -0.44,-0.238 -0.656,-0.357 h 0.008 c 0.052,-0.008 0.04,-0.1 -0.01,-0.1 a 1.812,1.812 0 0 1 -0.182,0 c -0.121,-0.065 -0.238,-0.131 -0.361,-0.2 h 0.014 c 0.046,-0.008 0.028,-0.087 -0.016,-0.083 l -0.137,0.01 c -0.166,-0.087 -0.331,-0.172 -0.5,-0.256 a 0.054,0.054 0 0 0 -0.036,-0.063 c -0.034,0 -0.075,0 -0.111,-0.006 -0.22,-0.107 -0.448,-0.212 -0.674,-0.317 0.059,0.012 0.117,0 0.178,0.02 0.061,0.02 0.091,-0.083 0.028,-0.111 a 3.025,3.025 0 0 0 -0.8,-0.184 c -0.178,-0.079 -0.359,-0.149 -0.541,-0.226 0.034,-0.008 0.069,-0.008 0.1,-0.016 0.067,-0.01 0.046,-0.129 -0.02,-0.125 -0.131,0.014 -0.266,0.008 -0.4,0.014 -0.087,-0.036 -0.174,-0.071 -0.26,-0.1 0.042,-0.012 0.022,-0.091 -0.02,-0.079 l -0.119,0.022 c -0.19,-0.075 -0.373,-0.155 -0.563,-0.226 -0.008,-0.01 -0.01,-0.024 -0.024,-0.024 h -0.03 c -0.224,-0.085 -0.454,-0.159 -0.68,-0.238 0.026,0 0.048,0 0.073,0 a 0.059,0.059 0 0 0 0.024,-0.115 2.838,2.838 0 0 0 -0.717,-0.1 c -0.184,-0.063 -0.365,-0.131 -0.551,-0.19 0.057,-0.03 0.042,-0.133 -0.022,-0.121 -0.081,0.016 -0.166,0.02 -0.246,0.036 a 33.216,33.216 0 0 0 -7.414,-1.48 29.06,29.06 0 0 0 -3.835,-0.02 c 0.038,-0.012 0.077,-0.024 0.113,-0.038 0.075,-0.032 0.052,-0.166 -0.026,-0.135 -0.078,0.031 -0.155,0.052 -0.234,0.083 a 0.063,0.063 0 0 0 -0.018,0.1 c -2.436,0.182 -4.921,0.781 -6.522,2.3 -0.083,0.079 -0.034,0.248 0.091,0.224 1.447,-0.295 2.842,-0.545 4.219,-0.706 0.083,0.1 5.129,0.864 7.451,1.778 1.794,0.706 3.524,1.593 5.327,2.251 a 15.922,15.922 0 0 0 6.052,1.017 c -0.129,0.02 -0.26,0.036 -0.385,0.061 -0.125,0.025 -0.161,0.22 -0.028,0.26 a 4.42,4.42 0 0 0 4.384,-1.34 c 0.065,-0.092 -0.046,-0.219 -0.135,-0.142 z"
     fill="#1a1818" />
  <path
     id="Path_35"
     data-name="Path 35"
     d="m 320.533,82.999 c 0.038,-3.662 0.708,-12.406 -4.227,-12.907 -2.039,-0.21 -5.26,3.464 -6.486,4.633 -2.878,2.747 -1.32,3.712 -2.479,7.557 -2.039,8.381 -1.5,15.567 -3.545,23.954 3.5,1.1 5.006,2.184 7.566,-1.671 1.048,-1.581 1.391,-3.308 2.259,-5.024 a 30.58,30.58 0 0 1 3.666,-4.812 c 2.594,-3.296 3.205,-7.661 3.246,-11.73 z"
     fill="none"
     stroke="#1a1818"
     stroke-miterlimit="10"
     stroke-width="0.5" />
  <path
     id="Path_59"
     data-name="Path 59"
     d="m 317.779,75.67 c -1.155,-1.13 -3.244,0.293 -4.215,0.908 a 7.814,7.814 0 0 0 -3.728,5.717 c -0.19,1.465 0.686,3.125 0.878,4.542 0.236,1.738 -1.205,3.52 -2.049,4.947 -0.88,1.494 -1.344,3.252 0.121,4.489 a 1.821,1.821 0 0 0 1.4,0.41 c -0.777,0.86 -1.53,1.885 -2.757,2 a 0.094,0.094 0 0 0 0,0.188 c 1.179,0.077 2.154,-0.749 3.024,-1.431 a 26.1,26.1 0 0 0 2.079,-1.762 c 0.2,-0.145 0.4,-0.287 0.567,-0.418 3.615,-2.83 6.027,-8.633 3.482,-16.148 a 2.28,2.28 0 0 0 -1.641,-1.415 1.159,1.159 0 0 0 -0.3,-0.026 c 0.91,-0.789 3.212,-2.382 3.294,0.965 0.016,0.745 -0.1,1.447 -0.05,2.192 a 0.10071743,0.10071743 0 0 0 0.2,0.024 c 0.413,-1.377 0.894,-4.004 -0.305,-5.182 z m -1.205,6.5 a 13.012,13.012 0 0 1 -1.526,9.316 6.957,6.957 0 0 1 -2.39,2.406 c -0.095,0.067 -2.925,1.453 -2.574,-0.069 a 16.017,16.017 0 0 1 1.742,-3.224 c 1.211,-2.337 1.013,-4.3 0.269,-6.742 -0.39,-1.3 0.844,-4.186 1.51,2 a 10.077,10.077 0 0 1 -1.778,6.453 0.056,0.056 0 0 0 0.087,0.069 11.175,11.175 0 0 0 2.929,-8.88 c -0.059,-1.171 -0.038,-4.219 -1.6,-4.376 0.071,-0.091 0.147,-0.182 0.222,-0.268 1.464,-0.923 2.646,0.474 3.109,3.316 z"
     fill="#1a1818"
     opacity="0.5"
     style="isolation:isolate;mix-blend-mode:multiply" />
  <path
     id="Path_60"
     data-name="Path 60"
     d="m 238.713,74.387 a 4.32,4.32 0 0 1 -2.664,3.956 h -0.02 a 13.04,13.04 0 0 1 -1.776,0 15.483,15.483 0 0 1 -2.14,-0.262 4.269,4.269 0 0 1 -2.16,-3.694 4.058,4.058 0 0 1 0.727,-2.321 13.367,13.367 0 0 1 4.824,-0.242 l 0.908,0.121 h 0.02 c 0.343,0.081 0.706,0.141 1.05,0.222 h 0.02 c 0.182,0.04 0.363,0.1 0.545,0.141 a 2.9,2.9 0 0 1 0.666,2.079 z"
     fill="#1a1818" />
  <path
     id="Path_61"
     data-name="Path 61"
     d="m 236.383,74.37 a 2.118,2.118 0 1 1 -2.113,-2.081 2.094,2.094 0 0 1 2.113,2.081 z"
     fill="#3d3e40"
     opacity="0.5"
     style="isolation:isolate;mix-blend-mode:multiply" />
  <path
     id="Path_62"
     data-name="Path 62"
     d="m 236.044,74.37 a 1.777,1.777 0 1 1 -1.774,-1.742 1.757,1.757 0 0 1 1.774,1.742 z"
     fill="#1a1718" />
  <path
     id="Path_63"
     data-name="Path 63"
     d="m 237.928,73.034 a 1.155,1.155 0 0 1 -1.171,1.151 1.175,1.175 0 0 1 -0.383,-0.061 1.261,1.261 0 0 1 -0.4,-0.262 l -0.02,-0.02 a 0.967,0.967 0 0 1 -0.343,-0.606 v -0.02 a 0.558,0.558 0 0 1 -0.02,-0.182 1.024,1.024 0 0 1 0.04,-0.262 1.128,1.128 0 0 1 0.787,-0.828 h 0.02 c 0.343,0.081 0.706,0.141 1.05,0.222 h 0.02 a 1.1,1.1 0 0 1 0.42,0.868 z"
     fill="#ffffff"
     opacity="0.9" />
  <path
     id="Path_64"
     data-name="Path 64"
     d="m 236.125,71.467 c 0.244,0.04 0.741,0.119 0.741,0.119 l -0.945,-0.145 z"
     fill="url(#radial-gradient)"
     style="fill:url(#radialGradient505)" />
  <path
     id="Path_65"
     data-name="Path 65"
     d="m 235.923,71.442 -1.467,-0.161 z"
     opacity="0.8"
     fill="url(#radial-gradient-2)"
     style="isolation:isolate;mix-blend-mode:multiply;fill:url(#radialGradient507)" />
  <path
     id="Path_66"
     data-name="Path 66"
     d="m 236.907,71.599 0.111,0.016 -0.151,-0.028 z"
     opacity="0.8"
     fill="url(#radial-gradient-3)"
     style="isolation:isolate;mix-blend-mode:multiply;fill:url(#radial-gradient-3)" />
  <path
     id="Path_67"
     data-name="Path 67"
     d="m 223.807,74.023 a 16.348,16.348 0 0 1 7.352,-3.627 19.042,19.042 0 0 1 5.307,-0.426 c 3.773,0.252 7.049,1.952 10.06,4.061 0.061,0.042 0,0.137 -0.059,0.095 a 22.153,22.153 0 0 0 -15.317,-3.454 17.968,17.968 0 0 0 -2.457,0.8 c -1.718,0.715 -3.129,1.873 -4.79,2.677 -0.077,0.039 -0.168,-0.064 -0.096,-0.126 z"
     fill="#1a1818" />
  <path
     id="Path_68"
     data-name="Path 68"
     d="m 245.315,76.869 c -0.04,0 -0.061,0.02 -0.1,0.02 -1.474,-1.413 -2.119,-2.907 -4.017,-3.956 a 15.6,15.6 0 0 0 -5.067,-1.474 c -4.441,-0.666 -7,0.121 -10.84,2.3 a 16.633,16.633 0 0 1 -2.4,1.292 c 0,0.121 6.54,3.351 10.759,3.755 4.037,0.383 7.832,-0.686 11.829,-1.151 0.482,-0.06 0.341,-0.872 -0.164,-0.786 z m -5.268,1.009 a 37.839,37.839 0 0 1 -4,0.464 h -0.02 a 13.04,13.04 0 0 1 -1.776,0 15.483,15.483 0 0 1 -2.14,-0.262 24.251,24.251 0 0 1 -3.008,-0.747 14.375,14.375 0 0 1 -2.241,-0.888 7.754,7.754 0 0 1 -1.07,-0.565 0.924,0.924 0 0 1 -0.565,-0.626 0.15,0.15 0 0 0 0.061,-0.283 c -0.727,-0.545 3.876,-2.463 4.38,-2.624 0.323,-0.1 0.666,-0.2 1.009,-0.283 a 13.367,13.367 0 0 1 4.824,-0.242 l 0.908,0.121 h 0.02 c 0.343,0.081 0.706,0.141 1.05,0.222 h 0.02 c 0.182,0.04 0.363,0.1 0.545,0.141 a 9.732,9.732 0 0 1 2.947,1.332 c 0.828,0.565 2.362,1.534 1.716,2.806 -0.1,0.2 -0.081,0.2 0.04,0.4 0.02,0.061 0.081,0.061 0.121,0.02 -0.258,0.913 -2.135,0.913 -2.819,1.014 z"
     fill="#1a1818" />
  <path
     id="Path_69"
     data-name="Path 69"
     d="m 276.625,74.387 a 4.32,4.32 0 0 0 2.665,3.956 h 0.02 a 13.04,13.04 0 0 0 1.776,0 15.484,15.484 0 0 0 2.14,-0.262 4.269,4.269 0 0 0 2.16,-3.694 4.058,4.058 0 0 0 -0.727,-2.321 13.367,13.367 0 0 0 -4.824,-0.242 l -0.908,0.121 h -0.02 c -0.343,0.081 -0.707,0.141 -1.05,0.222 h -0.02 c -0.182,0.04 -0.363,0.1 -0.545,0.141 a 2.9,2.9 0 0 0 -0.667,2.079 z"
     fill="#1a1818" />
  <path
     id="Path_70"
     data-name="Path 70"
     d="m 278.956,74.37 a 2.117,2.117 0 1 0 2.113,-2.081 2.094,2.094 0 0 0 -2.113,2.081 z"
     fill="#3d3e40"
     opacity="0.5"
     style="isolation:isolate;mix-blend-mode:multiply" />
  <path
     id="Path_71"
     data-name="Path 71"
     d="m 279.295,74.37 a 1.776,1.776 0 1 0 1.774,-1.742 1.757,1.757 0 0 0 -1.774,1.742 z"
     fill="#1a1718" />
  <path
     id="Path_73"
     data-name="Path 73"
     d="m 279.213,71.467 c -0.244,0.04 -0.743,0.119 -0.743,0.119 l 0.947,-0.145 z"
     fill="url(#radial-gradient-4)"
     style="fill:url(#radial-gradient-4)" />
  <path
     id="Path_74"
     data-name="Path 74"
     d="m 279.416,71.442 1.468,-0.161 z"
     opacity="0.8"
     fill="url(#radial-gradient-5)"
     style="isolation:isolate;mix-blend-mode:multiply;fill:url(#radial-gradient-5)" />
  <path
     id="Path_75"
     data-name="Path 75"
     d="m 278.431,71.599 c -0.036,0 -0.111,0.016 -0.111,0.016 l 0.149,-0.028 z"
     opacity="0.8"
     fill="url(#radial-gradient-6)"
     style="isolation:isolate;mix-blend-mode:multiply;fill:url(#radial-gradient-6)" />
  <path
     id="Path_76"
     data-name="Path 76"
     d="m 291.531,74.023 a 16.358,16.358 0 0 0 -7.352,-3.627 19.048,19.048 0 0 0 -5.307,-0.426 c -3.773,0.252 -7.049,1.952 -10.063,4.061 -0.058,0.042 0,0.137 0.061,0.095 a 22.151,22.151 0 0 1 15.317,-3.454 17.851,17.851 0 0 1 2.455,0.8 c 1.72,0.715 3.131,1.873 4.79,2.677 0.076,0.039 0.17,-0.064 0.099,-0.126 z"
     fill="#1a1818" />
  <path
     id="Path_77"
     data-name="Path 77"
     d="m 269.863,77.656 c 4,0.464 7.792,1.534 11.829,1.151 4.219,-0.4 10.759,-3.633 10.759,-3.755 a 16.637,16.637 0 0 1 -2.4,-1.292 c -3.835,-2.18 -6.4,-2.967 -10.84,-2.3 a 15.6,15.6 0 0 0 -5.067,1.474 c -1.9,1.05 -2.543,2.543 -4.017,3.956 -0.04,0 -0.061,-0.02 -0.1,-0.02 -0.507,-0.087 -0.649,0.725 -0.164,0.786 z m 2.6,-0.787 c 0.04,0.04 0.1,0.04 0.121,-0.02 0.121,-0.2 0.141,-0.2 0.04,-0.4 -0.646,-1.272 0.888,-2.241 1.716,-2.806 a 9.731,9.731 0 0 1 2.947,-1.332 c 0.182,-0.04 0.363,-0.1 0.545,-0.141 h 0.02 c 0.343,-0.081 0.706,-0.141 1.05,-0.222 h 0.02 l 0.908,-0.121 a 13.367,13.367 0 0 1 4.824,0.242 c 0.343,0.081 0.686,0.182 1.009,0.283 0.5,0.161 5.107,2.079 4.38,2.624 a 0.15,0.15 0 0 0 0.061,0.283 0.923,0.923 0 0 1 -0.565,0.626 7.751,7.751 0 0 1 -1.07,0.565 14.372,14.372 0 0 1 -2.241,0.888 24.257,24.257 0 0 1 -3.008,0.747 15.484,15.484 0 0 1 -2.14,0.262 13.04,13.04 0 0 1 -1.776,0 h -0.02 a 37.841,37.841 0 0 1 -4,-0.464 c -0.678,-0.106 -2.555,-0.106 -2.817,-1.014 z"
     fill="#1a1818" />
  <path
     id="Path_78"
     data-name="Path 78"
     d="m 277.412,73.034 a 1.154,1.154 0 0 0 1.171,1.151 1.175,1.175 0 0 0 0.384,-0.061 1.261,1.261 0 0 0 0.4,-0.262 l 0.02,-0.02 a 0.967,0.967 0 0 0 0.343,-0.606 v -0.02 a 0.558,0.558 0 0 0 0.02,-0.182 1.022,1.022 0 0 0 -0.04,-0.262 1.128,1.128 0 0 0 -0.787,-0.828 h -0.02 c -0.343,0.081 -0.707,0.141 -1.05,0.222 h -0.02 a 1.1,1.1 0 0 0 -0.421,0.868 z"
     fill="#ffffff"
     opacity="0.9" />
  <path
     id="Path_79"
     data-name="Path 79"
     d="m 195.212,82.999 c -0.036,-3.662 -0.706,-12.406 4.229,-12.907 2.039,-0.21 5.264,3.464 6.486,4.633 2.878,2.743 1.32,4.532 2.481,8.371 2.037,8.381 2.515,14.748 4.552,23.135 -3.5,1.1 -6.011,2.19 -8.571,-1.665 -1.052,-1.581 -1.391,-3.308 -2.259,-5.024 a 30.576,30.576 0 0 0 -3.666,-4.812 c -2.606,-3.297 -3.206,-7.662 -3.252,-11.731 z"
     fill="none"
     stroke="#1a1818"
     stroke-miterlimit="10"
     stroke-width="0.5" />
  <path
     id="Path_80"
     data-name="Path 80"
     d="m 197.666,80.855 a 0.1,0.1 0 0 0 0.194,-0.024 c 0.055,-0.745 -0.063,-1.447 -0.042,-2.192 0.083,-3.347 2.376,-1.754 3.29,-0.963 a 1.1,1.1 0 0 0 -0.307,0.024 2.285,2.285 0 0 0 -1.639,1.415 c -2.539,7.511 -0.131,13.31 3.484,16.148 0.17,0.131 0.367,0.272 0.571,0.418 a 25.346,25.346 0 0 0 2.075,1.762 4.713,4.713 0 0 0 3.02,1.431 0.094,0.094 0 0 0 0,-0.188 c -1.223,-0.119 -1.972,-1.145 -2.751,-2 a 1.8,1.8 0 0 0 1.395,-0.41 c 1.47,-1.237 1.009,-3 0.125,-4.489 -0.844,-1.427 -2.277,-3.21 -2.041,-4.947 0.192,-1.417 1.064,-3.076 0.878,-4.542 a 7.818,7.818 0 0 0 -3.728,-5.717 c -0.979,-0.616 -3.068,-2.039 -4.223,-0.908 -1.203,1.175 -0.71,3.781 -0.301,5.182 z m 4.629,-2 c 0.073,0.087 0.139,0.178 0.21,0.264 -1.562,0.157 -1.538,3.21 -1.6,4.38 a 11.2,11.2 0 0 0 2.937,8.884 c 0.04,0.042 0.119,-0.016 0.083,-0.073 a 10.067,10.067 0 0 1 -1.782,-6.453 c 0.666,-6.189 1.906,-3.3 1.514,-2.006 -0.741,2.449 -0.951,4.409 0.268,6.746 a 15.979,15.979 0 0 1 1.734,3.224 c 0.351,1.522 -2.475,0.135 -2.57,0.069 a 6.9,6.9 0 0 1 -2.39,-2.41 12.972,12.972 0 0 1 -1.522,-9.312 c 0.461,-2.835 1.648,-4.236 3.114,-3.309 z"
     fill="#1a1818"
     opacity="0.5"
     style="isolation:isolate;mix-blend-mode:multiply" />
</svg>
