<?xml version="1.0" encoding="UTF-8" standalone="no"?>
<svg
   xmlns:dc="http://purl.org/dc/elements/1.1/"
   xmlns:cc="http://creativecommons.org/ns#"
   xmlns:rdf="http://www.w3.org/1999/02/22-rdf-syntax-ns#"
   xmlns:svg="http://www.w3.org/2000/svg"
   xmlns="http://www.w3.org/2000/svg"
   xmlns:sodipodi="http://sodipodi.sourceforge.net/DTD/sodipodi-0.dtd"
   xmlns:inkscape="http://www.inkscape.org/namespaces/inkscape"
   width="645"
   height="1226"
   viewBox="0 0 645 1226"
   version="1.1"
   id="svg170"
   sodipodi:docname="Male Front.svg"
   inkscape:version="1.0.1 (c497b03c, 2020-09-10)">
  <metadata
     id="metadata174">
    <rdf:RDF>
      <cc:Work
         rdf:about="">
        <dc:format>image/svg+xml</dc:format>
        <dc:type
           rdf:resource="http://purl.org/dc/dcmitype/StillImage" />
      </cc:Work>
    </rdf:RDF>
  </metadata>
  <sodipodi:namedview
     pagecolor="#ffffff"
     bordercolor="#666666"
     borderopacity="1"
     objecttolerance="10"
     gridtolerance="10"
     guidetolerance="10"
     inkscape:pageopacity="0"
     inkscape:pageshadow="2"
     inkscape:window-width="1360"
     inkscape:window-height="691"
     id="namedview172"
     showgrid="false"
     inkscape:zoom="1.2619491"
     inkscape:cx="322.5"
     inkscape:cy="333.16536"
     inkscape:window-x="0"
     inkscape:window-y="23"
     inkscape:window-maximized="1"
     inkscape:current-layer="Male_Front" />
  <defs
     id="defs13">
    <clipPath
       id="clip-Male_Front">
      <rect
         width="645"
         height="1226"
         id="rect10" />
    </clipPath>
  </defs>
  <g
     id="Male_Front"
     data-name="Male Front"
     clip-path="url(#clip-Male_Front)">
    <rect
       width="645"
       height="1226"
       fill="#fff"
       id="rect15" />
    <path
       id="Path_4663"
       data-name="Path 4663"
       d="M1756.26,246c7.51,1.32,10.128,4.367,10.351,11.674a44.747,44.747,0,0,1-6.065,23.745c-1.407,2.5-3.179,5.62-5.743,5.935-6.348.777-6.422,4.99-7.132,9.7-1.059,7.021-2.3,13.814-6.315,20.3-3.315,5.359.13,12.315.552,18.563.48,7.112,4.3,11.178,11.122,13.568a96.055,96.055,0,0,1,31.523,17.944c2.891,2.506,6.145,3.056,9.728,2.846,38.948-2.272,64.974,29.066,69.16,63.5,1.085,8.931,1.505,17.761.018,26.669-1.05,6.295.936,12.127,3.632,17.64,5.929,12.129,8.705,24.936,9.5,38.358.849,14.35.726,28.724,1.883,43.076.922,11.432,7.492,20.321,11.779,30.194a129.042,129.042,0,0,1,10.932,46.076c.757,17.2.188,34.418-.7,51.627a155.486,155.486,0,0,0,2.533,35.133,16.724,16.724,0,0,0,7.128,11.187c8.484,5.884,12.784,14.209,16.82,23.881,5.044,12.091,5.634,24.384,7.608,36.721.489,3.042,1.814,6.3-1.173,8.439-2.953,2.12-6.223,1.171-9.194-.672a21.957,21.957,0,0,0-2.826-1.177c.938,8.035,1.677,15.549,2.736,23.021.822,5.806-.534,10.117-6.992,10.876-2.933.344-2.622,2.182-3.044,4.05-.737,3.261-1.812,6.362-5.7,7.186-4.141.878-6.737-1.22-8.294-4.666-.829-1.834-1.664-2.209-3.456-1.523-2.9,1.108-4.992-.643-7.079-2.267-1.582-1.367-1.675-3.516-2.709-5.171-10.626-1.307-12.161-9.118-13.858-17.819a253.084,253.084,0,0,0-10.135-37.067c-3.782-10.537-3.368-21.4-.563-32.186,2.752-10.577.252-20.627-2.658-30.784-5.586-19.512-14.048-37.932-21-56.919-6.244-17.05-11.379-34.548-10.159-52.855,1.336-20.064-7.153-37.367-13.287-55.42-1.948-5.734-3.809-11.495-6.138-18.54-7.063,19.063-17.43,35.354-21.156,54.43-2.435,12.458,1.7,23.609,5.044,35.079,4.687,16.09,5.689,32.459,4.066,49.168-1.546,15.887,2.43,31.326,6.994,46.241,10.633,34.769,8.986,70.225,7.613,105.722a444.8,444.8,0,0,1-5.772,57.16c-3.36,19.829-8.2,39.209-17.175,57.3-4.347,8.761-7.289,17.635-6.73,27.558a38.415,38.415,0,0,1-3.188,17.9c-7.577,16.615-5.658,33.27-.927,49.8,7.785,27.194,8.363,54.207,2.486,81.966-7.032,33.2-12.295,66.765-18.429,100.153a28.891,28.891,0,0,0,.949,13.555c2.129,7.282,2.819,14.473.181,21.793-1.452,4.034-.5,7.593,2.441,10.84a39.057,39.057,0,0,1,8.976,16.454c.918,3.5,3.545,5.882,5.7,8.6,5.4,6.806,2.267,13.121-4.995,17.341-7.016,4.077-14.575,4.747-21.379,4.6-7.106-.156-14.185,4.331-21.252.4-1.635-.909-2.79.619-4.15,1.188-6.29,2.631-14.146,1.452-18.243-2.969-4.387-4.733-4.063-10.079-1.957-15.86,4-10.981,4.385-22.954,9.055-33.795,1.394-3.237.1-6.659-.99-9.563-2.464-6.538-1.125-12.415,1.8-18.225a39.355,39.355,0,0,0,3.958-16.318c1.32-28.809-3.4-56.885-9.681-84.8-4.754-21.127-8.806-42.317-3.494-63.973,2.02-8.231,4.1-16.469,6.668-24.538,3.029-9.5,4.86-18.748,1.608-28.722-6.264-19.21-5.89-38.986-4.213-58.876,1.617-19.2-.53-38.3-3.054-57.3-4.309-32.441-8.015-64.882-4.841-97.681.1-1.083.09-2.178.159-3.266.161-2.484-.3-4.418-3.46-4.112-2.823.273-2.669,2.122-2.517,4.267.588,8.258,1.338,16.519,1.477,24.788.416,24.9-2.526,49.556-5.774,74.19-3.078,23.347-5.674,46.751-2.844,70.335a103.277,103.277,0,0,1-4.077,44.544c-3.766,11.642-2.546,22.7,1.682,33.786,10.9,28.583,9.885,57.428,2.643,86.677-6.773,27.35-10.874,55.1-9.737,83.454.268,6.668,1.244,12.929,4.365,18.862,2.75,5.225,3.527,10.671,1.4,16.4-2.243,6.036-1.528,11.908,1.146,17.723,4.579,9.958,4.834,21.031,7.687,31.478,2.8,10.246-9.047,18.011-20.1,13.834-2.962-1.119-5.356-2.468-8.271-.281a2.822,2.822,0,0,1-2.509.333c-6.3-3.835-13.472-1.343-20.156-2.348a74.486,74.486,0,0,1-16.812-4.331c-7.838-3.1-10.961-10.414-5.325-16.785,7.613-8.609,8.839-20.783,17.2-28.9,2.093-2.028.98-5.368.1-8.144-1.733-5.5-2.562-11.1-.57-16.677,3.625-10.157,1.588-20.209-.313-30.268-6.708-35.5-13.452-70.985-19.3-106.638-3.436-20.944-.018-41.177,5.046-61.377,2.113-8.433,4.39-16.849,4.575-25.677.147-7.068-.568-13.919-3.143-20.52a68.669,68.669,0,0,1-5.068-28.1c.306-7.228-2.357-13.726-5.482-19.965-13.6-27.149-19.052-56.412-21.907-86.206-2.846-29.718-4.242-59.521-2.908-89.42.815-18.243,5.459-35.669,9.777-53.217,3.748-15.232,6.784-30.446,5.138-46.438a114.178,114.178,0,0,1,7.324-52.646c5.9-15.511,1.821-30.04-3.534-44.441-4.318-11.611-10.8-22.3-15.313-35.539-3.422,9.737-5.973,18.306-9.411,26.5a138.646,138.646,0,0,0-10.807,57.211c.364,19.461-7.1,37.507-14.254,55.3-6.9,17.164-13.635,34.351-18.357,52.284a47.538,47.538,0,0,0-.384,23.892c2.9,11.765,2.607,23.372-1.736,34.693-4.78,12.455-7.168,25.494-10.126,38.419-1.316,5.754-2.209,12.7-11.077,11.573-2.819,6.753-9.217,8.464-15.013,11.439-2.671,1.371-4.4,4.774-8.157,4.083-3.858-.708-5.1-3.815-5.81-7.106-.456-2.118-.2-4.072-3.442-4.425-6.616-.719-7.514-5.549-6.9-11.055.411-3.675.8-7.356,1.316-11.017.509-3.617,1.168-7.211,1.742-10.7-2.1-1.258-3.073.467-4.347,1-2.768,1.164-5.627,1.615-8.055-.29s-1.481-4.729-1.106-7.322c.5-3.44,1.311-6.922,1.173-10.354-.547-13.588,6.326-25.052,10.452-37.273a16.76,16.76,0,0,1,7.124-9.165c12.511-6.994,14.354-18.824,14.962-31.306.8-16.572.239-33.151-.471-49.7-1.148-26.812,2.363-52.692,15.522-76.422,6.158-11.109,8.209-22.782,8.491-35.1.382-16.758-.123-33.592,3.92-50.057.827-3.375,1.28-7.065,3-9.958,7.177-12.069,6.967-24.9,6.454-38.432-.78-20.466,4.53-39.529,18.638-55.427,12.886-14.52,28.746-22.271,48.2-21.8,6.261.152,11.2-1.318,16.021-5.508,8.808-7.655,19.559-12.179,30.334-16.311,5.129-1.966,7.825-5.147,8.477-10.407.646-5.185,1.394-10.356,2-15.543.228-1.941.436-4.025-.9-5.678-5.093-6.317-5.837-13.943-6.465-21.554-.335-4.063-1.065-7.063-6.112-7.57-3.136-.317-5.1-3.337-6.521-6.007-3.286-6.17-5.611-12.623-5.986-19.789-.393-7.438.009-14.039,8.846-16.351.373-.1.5-1.133.742-1.731,4.1,1.416,3.42,4.564,2.788,7.693-5.111,3.065-5.884,7.7-4.671,13.027,1.707,7.508,3.136,15.053,12.2,17.7,3.114.909,4.175,4.246,4.968,7.275a33.486,33.486,0,0,1,1.074,7.762c.234,11.256,6.527,17.258,16.682,20.691,15.482,5.234,30.656,5.439,45.866-.934,7.662-3.21,12.78-8.113,13.309-16.861.186-3.047,1.128-6,1.483-9.033.525-4.494,2.85-7.508,6.987-9.5,6.894-3.313,12.844-17.238,10.928-24.551-.755-2.877-3.458-3.8-5.051-5.808C1753.273,248.941,1753.575,246.989,1756.26,246Z"
       transform="translate(-1380.135 -126.202)"
       fill="#e47a5e" />
    <path
       id="Path_4720"
       data-name="Path 4720"
       d="M1790.831,433.528c1.448-.4,3.214-4.318,3.96.878,1.85,12.878,5.006,25.557,7.106,38.363,1.49,9.08-2.933,17.859-6.728,26.178-5.864,12.858-12.587,25.373-15.214,39.464-1.921,10.322-2.073,20.365,1.432,30.676,5.75,16.914,9.188,34.177,6.971,52.442-2.4,19.789,2.942,38.883,8.254,57.723,8.466,30.024,7.961,60.522,6.239,91.236-.777,13.883-1.389,27.739-2.761,41.6-2.85,28.776-8.886,56.617-21.6,82.737a51.531,51.531,0,0,0-5.18,21.288c-.382,11.12-3.237,21.784-6.92,32.329-3.473,9.94-1.633,20.14.346,30.243,3.619,18.489,10,36.6,9.4,55.7-.507,16.28-4.108,32.233-7.074,48.216-5.3,28.565-10.841,57.089-16.007,85.678-1.123,6.221-.311,12.545,1.483,18.726,1.584,5.459,2.008,10.961-.013,16.57-2.038,5.647-1.18,10.733,2.841,15.73,4.036,5.019,7.787,10.407,9.087,17.126.616,3.179,3.2,5.589,5.468,7.99a6.184,6.184,0,0,1,1.5,6.681c-1.03,2.578-3.219,1.36-5.084,1.061a3.338,3.338,0,0,0-3.357,1.541c-.371.523-.46,1.262-.869,1.742-3.764,4.418-7.405-4.78-10.827-.288-3.221,4.224-5.792,4.468-9.136.31-1.825-2.272-3.547-1.691-5.051.849-2.634,4.445-5.719,4.112-8.573.181-2.419-3.326-4.124-3.65-5.71.655-1.934,5.249-6.507,3.641-10.072,3.02-4.4-.768-6.538-4.807-5.017-8.446,3.983-9.52,2.625-20.22,7.213-29.506,3.319-6.724,4.148-13.749,1.477-20.854-2.125-5.647-.867-10.838,1.925-15.646,2.623-4.517,3.371-9.255,3.659-14.309,1.887-32.915-3.46-64.98-11.187-96.769a128.646,128.646,0,0,1,4.9-77.97c4.05-10.624,4.881-21.42,1.483-32.557-5.89-19.3-5.281-39.033-3.357-58.849,1.226-12.628-.442-25.23-1.57-37.766-1.595-17.7-4.425-35.274-6.2-52.976-2.051-20.466-.728-40.914-1.093-61.366-.08-4.418.958-7.407,5.8-8.739,6.212-1.707,7.68-7.617,9.869-12.73,1.5-4.3-.253-8.569-.617-12.737-1.11-12.7,2.96-23.392,10.173-33.484a135.543,135.543,0,0,0,16.2-29.957c-3.069,9.806-11.343,22.887-19.807,35.763a41.438,41.438,0,0,0-6.94,24.627c.078,3.532,1.3,7.481-1.854,10.53-1.83,1.939-.9,4.358-1.144,6.572-.913,1.313-1.253,3-2.6,4.03-9.688,5.082-20.106,2.83-30.035,1.975-6.2-.534-6.768-7.673-7.622-13.014a28.942,28.942,0,0,1-.145-7.812c.974-8.343-1.606-15.786-5.35-22.992-8.307-10.173-14.7-21.522-20.3-33.33-1.57-3.308-3.509-6.511-3.98-8.913,4.088,12.038,11.269,23.881,18.712,35.593,1.628,2.562,3.588,4.957,4.191,8.055,3.829,8.5,2.732,17.519,2.645,26.392-.1,10.152,2.234,18.654,13.17,22.141,1.983.632,2.473,2.153,2.68,4.025a301.716,301.716,0,0,1,.4,58.677c-1.8,21.6-4.251,43.168-7.161,64.648-2.571,18.972-.139,37.8.313,56.682a113.6,113.6,0,0,1-4.816,35.365,47.374,47.374,0,0,0,1.3,31.268c10.633,28,10.93,56.291,3.75,85.142-5.984,24.051-10.557,48.488-10.114,73.348.214,12.134-1.613,24.98,5.723,36.247,1.8,2.763,1.637,6.127.435,9.467-2.792,7.76-1.849,15.284,1.53,22.789,2.223,4.939,3.956,10.173,3.319,15.808-.393,3.478,1.573,6.246,2.777,9.261,1.809,4.53,2.728,9.371-2.835,11.676-4.329,1.792-9.281,3.192-11.81-3.48-1.157-3.051-3.431-2.873-5.176.016q-4.349,7.2-8.781.036c-1.677-2.71-3.755-3.076-5.642-.422-3.1,4.36-5.772,3.833-8.567-.235a4.159,4.159,0,0,0-2.044-1.3c-5.169,5.6-8.906-.94-13.316-1.456-6.018-.7-7.818-3.319-3.846-7.622,7.838-8.491,9.154-20.6,17.146-28.965,3-3.143,2.363-8.14,1.088-11.955a28.694,28.694,0,0,1,.36-19.05c2.808-8.249.717-16.367-.784-24.442-7.342-39.444-15.263-78.8-21.069-118.5-2.627-17.948,1.968-35.591,6.741-52.726,5.26-18.889,5.844-37.1-1.749-55.42a34.354,34.354,0,0,1-2.562-15.985c.74-8.593-1.655-16.418-5.39-23.895-12.413-24.844-17.7-51.511-21.044-78.81-3.527-28.807-3.894-57.692-3.889-86.641,0-18,3.44-35.336,7.894-52.641,4.269-16.588,9.746-33.285,7.613-50.6a110.282,110.282,0,0,1,5.562-51.973c7.879-21.538,2.676-40.983-6.069-60.457-3.478-7.742-7.1-15.431-10.2-23.327-2.618-6.681-4.39-13.443-2.272-20.951,3.478-12.328,4.825-25.112,6.771-37.755,2.41-.889,3.663.938,4.946,2.3,8.6,9.1,19.7,12.706,31.637,13.829,12,1.13,23.97.386,35.555-3.413,5.54-1.816,10.266-4.774,12.911-10.345-2.72,5.712-7.727,8.714-13.335,10.253-19.24,5.283-38.312,5.526-56.74-3.384-6.627-3.2-12.185-7.595-14.95-14.759l-1.244-2.533c-4.363-6.679-8.245-13.852-17.374-16.441,1.4.556.136.165.424.3,7.105,3.208,13.861,6.61,13.047,16.184-2.888,34.23-12.031,66.946-24.12,98.923-4.244,11.229-8.1,22.55-7.334,34.731,1.637,25.93-6.688,49.55-16.349,72.9-7.713,18.652-14.609,37.57-18.712,57.4-1.184,5.719-.177,11.685,1.434,16.72,4.687,14.665-.223,27.647-4.168,41.264-2.5,8.631-6.98,16.852-6.88,26.189-1.054.7-.067,3.462-2.649,2.614.471-3.927-.827-8.064,1.4-11.783,1.508-8.685.851-9.828-5.171-9,.592,4.617-3.429,8.292-2.64,12.949-2.187.424-3.029-.5-2.671-2.647l0,0c1.508-4.356,1.135-8.7-.121-13.025-3.438.335-4.514,2.593-5.207,5.674-2.752,12.266-5.669,24.493-8.669,36.7-.36,1.463.292,4.362-2.133,4.032s-1.955-2.707-1.53-4.8c2.327-11.455,4.5-22.943,6.73-34.42a5.529,5.529,0,0,0,.286-1.264c-.147-2.663,1.76-6.65-1.644-7.51-3.682-.929-3.889,3.4-4.6,5.893-2.424,8.546-4.477,17.2-6.882,25.746-.48,1.707-.985,4.733-3.161,4.284-2.9-.6-.793-3.19-.677-4.93.9-13.427,3.7-26.6,5.428-39.913.614-4.727,2.531-8.477,7.432-9.5a26.948,26.948,0,0,0,17.339-11.531c1.271-1.459.324-3.17.753-5.077-.967,1.405-2.385,1.611-3.2,2.607-4.322,6.194-10.99,8.258-17.8,9.958-6.916,1.727-12.748,7.966-13.713,14.971-1.153,8.379-1.443,8.986-7.514,13.849,3.1-11.066-.076-21.578,5.381-31.1,1.7-2.964,2.531-6.489,3.4-9.851a28.057,28.057,0,0,1,11.546-16.773c7.374-5.075,11.6-11.879,12.324-21.149.878-11.227,2.207-22.311,1.785-33.7-1.119-30.355-4.1-61.038,8.392-90.151,3.5-8.153,7.425-16.123,11.084-24.212,2.649-5.859,3.167-12.152,3.277-18.455.322-18.467.288-36.935,3.938-55.185,1.859-9.3,7.593-17.066,9.614-26.312a38.54,38.54,0,0,0,.621-13.6c-3.411-24.79,3.087-46.742,19.932-64.96,10.2-11.03,23.591-17.187,39.031-16.7,8.654.27,15.931-1.24,22.653-7.394,7.244-6.632,16.476-10.5,25.737-13.7,9.677-3.351,14.365-9.911,14.663-20a38.236,38.236,0,0,1,1.128-7.052c.387-1.751-.967-4.82,1.584-4.957a6.215,6.215,0,0,1,6.482,4.434c.71,2.267,1.711,4.445,2.584,6.663,6.029,11.448,6.42,24.511,9.9,34.95-2.028-11.057-6.6-23.283-7.3-36.31l-.2-2.634c-.677-2.607.042-3.695,2.8-2.567,10.233,3.833,20.687,2.949,30.967.715,4.628-1.005,6.091-.071,5.613,4.412-1.132,13-5.529,25.32-7.829,38.068a8.007,8.007,0,0,1-.386,1.762c-.3.818-.092-.3-.195.556-.022.174.146-.25.331-.348,2.028-10.689,4.792-21.156,7.052-31.735.646-3.016,2.7-5.363,3.764-8.178,4.108-8.613,4.108-8.613,10.054-10.736.554,4.745,1.206,9.424,1.628,14.124.815,9.08,4.952,15.451,13.9,18.529a91.4,91.4,0,0,1,30.5,17.146,15.606,15.606,0,0,0,11.966,4.159c39.323-3.248,63.395,30.839,65.716,62.4.614,8.345-.666,16.423-.471,24.638a41.151,41.151,0,0,0,4.028,17.613,85.952,85.952,0,0,1,9.154,38.314,354.329,354.329,0,0,0,2.665,46.831c.815,6.161,3.746,11.642,6.684,16.885,16.2,28.909,17.008,60.08,14.647,91.958-1.24,16.711-.717,33.486,2.625,50.03,1.437,7.11,6.2,11.884,11.817,15.8a24.885,24.885,0,0,1,10.595,15.815c.541,2.531.963,5.365,2.4,7.376,6.605,9.252,3.782,20.287,6.138,30.312.226.958.326,2.31-1.039,2.727-1.316.4-1.979-.672-2.5-1.586a25.718,25.718,0,0,1-2.922-8.6c-1.57-9.281-5.766-16.03-15.983-17.877-8.035-1.452-14.669-5.4-18.23-13.3a4.938,4.938,0,0,0-1.19-1.53c-.284-.257-.773-.284-1.845-.632.271,8.01,4.952,14.805,10.865,16.105,16.429,3.619,18.038,15.514,19.365,28.514.925,9.06,2.18,18.087,3.337,27.123.167,1.313.695,2.844-1.037,3.223-1.834.4-1.885-1.427-2.209-2.569-2.529-8.966-4.892-17.98-7.548-26.906-.777-2.609-.583-7.347-4.508-6.471-3.851.858-2.053,5.245-1.593,7.968,2.024,11.973,4.356,23.892,6.659,35.816.306,1.586.82,3.277-1.061,3.867-2.413.755-2.212-1.7-2.5-2.882-3.033-12.656-5.788-25.378-8.969-37.994-.684-2.716-1.26-8.37-6.31-2.951-3.042-.824-6.083-1.211-9.1.092l.042-.038c-1.582,3.219-.494,6.623-.659,9.938-.073,1.494.264,3.089-2.008,3.08-2.337-16.72-11.839-31.679-11.913-48.989-.027-6.19,1.9-11.982,2.8-17.973,2.31-15.306-3.679-29.008-8.048-42.973-6.482-20.723-17.278-39.9-22.226-61.185-1.764-7.593-4.423-15.134-3.811-23.021,1.644-21.145-3.82-40.784-11.348-60.227a325.181,325.181,0,0,1-18.8-74.26q-.694-5.15-1.378-10.3a11.684,11.684,0,0,1,.069-7.847v-.013c2.017-6.444,6.866-10.023,12.143-12.2-6.616.536-9.279,7.541-14.618,10.957-1.144,5.611-5.533,9.375-8.075,14.191-2.287,3.927-5.819,6.411-9.824,8.267-18.656,8.649-37.827,8.736-57.278,3.239-5.2-1.468-9.48-4.307-12.194-9.159,2.522,4.724,6.576,7.523,11.573,9.036,17.5,5.3,34.983,5.9,52.547.083C1780.482,441.339,1784.867,436.157,1790.831,433.528Z"
       transform="translate(-1376.921 -83.167)"
       fill="#f5bf9b" />
    <ellipse
       id="Ellipse_3"
       data-name="Ellipse 3"
       cx="22.5"
       cy="48"
       rx="22.5"
       ry="48"
       transform="translate(343.736 909.931)"
       fill="#f5bf9b" />
    <path
       id="Path_4666"
       data-name="Path 4666"
       d="M1656.16,507.363a9.386,9.386,0,0,1,2.709,5.171C1656.33,511.667,1655.944,509.673,1656.16,507.363Z"
       transform="translate(-1149.451 198.873)"
       fill="#f2cfc3" />
    <path
       id="Path_4721"
       data-name="Path 4721"
       d="M1553.5,272.022l5.124,12.708c2.578-11.12,7.157-20.388,5.85-30.935-.4-3.223-.871-6.639-.246-9.753,2.716-13.488,9.366-19.26,21.658-15.9a76.451,76.451,0,0,0,39.212.331c14.513-3.541,23.356,4.579,22.813,19.747-.567,15.837.5,22.738,5.671,35.553,1.733-4.284,3.268-8.082,4.8-11.877,4.6.087,6.692,2.473,6.558,7.027a49.452,49.452,0,0,1-4.51,18.851c-1.238,2.768-3.161,5.151-6.585,5.716-4.829.8-6.9,3.952-7.28,8.649-.281,3.449-1.018,6.86-1.369,10.3-.748,7.383-4.606,12.254-11.285,15.426-20.158,9.572-39.9,8.546-59.34-1.919a14.471,14.471,0,0,1-7.635-11.486c-.531-4.083-.777-8.218-1.566-12.25-.831-4.251-1.577-8.805-7.6-8.89-2.683-.04-4.24-2.252-5.372-4.269a39.4,39.4,0,0,1-5.223-21.234C1547.341,273.8,1549.581,271.984,1553.5,272.022Z"
       transform="translate(-1283.892 -146.776)"
       fill="#f5bf9b" />
    <path
       id="Path_4722"
       data-name="Path 4722"
       d="M1530.794,344.432c15.782,19.892,37.4,21.4,60.209,19.067a46.67,46.67,0,0,0,7.668-1.311c8.448-2.334,15.744-6.2,18.308-15.871,1.713,6.447-2.567,13.988-9.487,16.387-20.98,7.266-41.944,8.417-62.7-1.253-5.734-2.672-8.886-8.243-14.021-11.5C1531.933,348.118,1530.763,346.273,1530.794,344.432Z"
       transform="translate(-1304.088 -2.147)"
       fill="#e08163" />
    <path
       id="Path_4723"
       data-name="Path 4723"
       d="M1660.909,350.707c-8.256,10.7-20.207,14.042-32.665,15.353a85.286,85.286,0,0,1-36.066-3.6c-5.484-1.82-10.371-4.568-13.42-9.737-1.15-1.952-2.546-3.978-1.088-6.829,13.253,20.7,33.686,16.84,52.842,15.65,10.689-.663,20.276-5.832,28.867-12.382Q1660.143,349.933,1660.909,350.707Z"
       transform="translate(-1246.999 -0.347)"
       fill="#e18264" />
    <path
       id="Path_4724"
       data-name="Path 4724"
       d="M1582.83,523.648c.632-8.832-1.646-18.172,2.533-26.394,9-17.721,21.27-33.674,28.161-54.131,2.137,4.086.7,6.123-.074,8.14a137.362,137.362,0,0,1-16.977,32.166c-7.041,9.661-10.97,19.957-9.683,32.189.456,4.316,1.468,9.063-1.117,13.289C1585.837,526.552,1585.209,524.627,1582.83,523.648Z"
       transform="translate(-1239.941 119.615)"
       fill="#e08265" />
    <path
       id="Path_4725"
       data-name="Path 4725"
       d="M1575.208,492.842c-11.343-14.843-20.624-30.737-25.4-48.933,4.01,2.048,4.331,6.183,5.841,9.572,5.393,12.114,12.65,23.151,19.472,34.445a25.24,25.24,0,0,1,1.472,3.511Z"
       transform="translate(-1280.602 120.585)"
       fill="#e2886a" />
    <path
       id="Path_4726"
       data-name="Path 4726"
       d="M1653.22,492.876c.741-1.007.581-3.451,2.553-2.54,1.89.871,3.319,3.465,4.36-.82.119-.491.382,2.884,2.191,3.268,1.2,12.339,4.818,24.373,4.552,36.942-4.162-9.009-5.115-18.8-7.429-28.257C1658.621,498.1,1660.026,492.244,1653.22,492.876Z"
       transform="translate(-1153.015 176.795)"
       fill="#f5b693" />
    <path
       id="Path_4727"
       data-name="Path 4727"
       d="M1566.175,283.546l10.613,43.518-2.341.616c-4.9-13.89-6.974-28.595-10.865-42.774q.985.747,1.97,1.5Z"
       transform="translate(-1263.608 -77.266)"
       fill="#e08466" />
    <path
       id="Path_4728"
       data-name="Path 4728"
       d="M1578.475,322.8c2.191-13.293,4.8-26.493,9.149-39.283.719,4.269,1.847-.447,2.734.123l-10.44,41.923C1577.425,325.69,1577.751,324.347,1578.475,322.8Z"
       transform="translate(-1245.879 -77.306)"
       fill="#e08567" />
    <path
       id="Path_4729"
       data-name="Path 4729"
       d="M1538.717,352.951c-2.142-9.6-9.156-14.035-18.538-16.394,8.506-4.1,19.425,4.32,22.438,16.354C1541.306,351.624,1539.995,350.692,1538.717,352.951Z"
       transform="translate(-1317.158 -13.158)"
       fill="#e38a6c" />
    <path
       id="Path_4730"
       data-name="Path 4730"
       d="M1491.064,495.641l2.671,2.645a84.608,84.608,0,0,1-6.141,24.341A97.8,97.8,0,0,1,1491.064,495.641Z"
       transform="translate(-1357.368 184.411)"
       fill="#f5b18f" />
    <path
       id="Path_4731"
       data-name="Path 4731"
       d="M1617.517,347.845c7.014-10.988,12.567-14.292,20.457-11.4-8.216,1.249-13.181,6.833-17.98,12.641A2.47,2.47,0,0,0,1617.517,347.845Z"
       transform="translate(-1197.065 -13.226)"
       fill="#e48c6e" />
    <path
       id="Path_4732"
       data-name="Path 4732"
       d="M1652.045,504c3.357-3.835-.871-9.221,2.667-13.018q1.029,13.962,2.06,27.927C1653.282,514.391,1652.833,509.146,1652.045,504Z"
       transform="translate(-1154.465 178.656)"
       fill="#f6af8e" />
    <path
       id="Path_4733"
       data-name="Path 4733"
       d="M1489.21,478.145c1.6-2.216,2.165-5.392,6.2-6.444-.851,3.625-1.776,6.465-3.75,8.915A2.183,2.183,0,0,0,1489.21,478.145Z"
       transform="translate(-1355.366 154.874)"
       fill="#e79073" />
    <path
       id="Path_4734"
       data-name="Path 4734"
       d="M1493.85,501.777q1.327-1.307,2.649-2.614-1.022,4.838-2.039,9.679C1492.4,506.27,1492.07,503.987,1493.85,501.777Z"
       transform="translate(-1351.069 188.757)"
       fill="#f8b291" />
    <path
       id="Path_4735"
       data-name="Path 4735"
       d="M1491.522,491.922c1.807-2.267,4.19-2.03,5.43-.033a7.7,7.7,0,0,1-.259,9.036C1495.9,497.386,1499.092,491.564,1491.522,491.922Z"
       transform="translate(-1352.514 177.828)"
       fill="#f8b291" />
    <path
       id="Path_4736"
       data-name="Path 4736"
       d="M1489.092,489.808c1.863,4.324,3.295,8.654.121,13.025Q1489.152,496.319,1489.092,489.808Z"
       transform="translate(-1355.512 177.214)"
       fill="#f5b18f" />
    <path
       id="Path_4737"
       data-name="Path 4737"
       d="M1619.433,341.562q-.034,3.924-.067,7.847C1617.543,346.778,1617.445,344.16,1619.433,341.562Z"
       transform="translate(-1196.506 -5.688)"
       fill="#e48c6e" />
    <path
       id="Path_4738"
       data-name="Path 4738"
       d="M1568.071,282.262a2.59,2.59,0,0,0-2.794,2.569c-1.586-1.432-1.452-3.027.13-4.126C1566.876,279.682,1567.452,281.248,1568.071,282.262Z"
       transform="translate(-1262.906 -81.182)"
       fill="#e08466" />
    <path
       id="Path_4739"
       data-name="Path 4739"
       d="M1581.116,486.144a4.759,4.759,0,0,1,2.6-4.03C1583.819,484.082,1583.895,486.036,1581.116,486.144Z"
       transform="translate(-1241.975 167.721)"
       fill="#e08265" />
    <path
       id="Path_4802"
       data-name="Path 4802"
       d="M1614.017,543.568c-4.343,9.478-9.668,17.133-15.141,24.652-5.6,7.7-8.457,16.5-10.939,26.1-3.087-2.77-1.966-5.381-1.307-8.033,2.629-10.577,8.567-19.552,14.614-28.246a66.865,66.865,0,0,0,12.163-34.483c2.54,1.921,2.26,4.2,2.5,6.344.261,2.361.931,4.684,1.121,7.048.583,7.3,3.237,13.831,6.722,20.187,4.365,7.961,8.032,16.184,5.767,25.758C1629.227,568.135,1617.623,558.068,1614.017,543.568Z"
       transform="translate(-1236.098 218.852)"
       fill="#e18164" />
    <path
       id="Path_4803"
       data-name="Path 4803"
       d="M1584.424,593.47c-2.7-8.975-5.609-17.814-11.08-25.44-5.316-7.409-11.267-14.381-15.3-24.475-4.03,14.437-15.075,24.654-14.982,40.534-4.595-6.456-1.338-11.937.623-16.3,6.393-14.211,13.083-28.19,14.459-44.264,1.135,5.73,1.655,11.669,3.534,17.142,3.7,10.767,10.635,19.872,16.624,29.423C1582.8,577.262,1586.052,584.62,1584.424,593.47Z"
       transform="translate(-1291.813 218.814)"
       fill="#e28165" />
    <path
       id="Path_4804"
       data-name="Path 4804"
       d="M1557.223,603.885a777.8,777.8,0,0,0,4.785,117.8C1554.35,712.58,1550.7,615.907,1557.223,603.885Z"
       transform="translate(-1275.622 317.959)"
       fill="#e08769" />
    <path
       id="Path_4805"
       data-name="Path 4805"
       d="M1547.775,444.906c0-8.307,3.6-15.149,8.109-21.252a214.77,214.77,0,0,1,17.381-20.2c10.307-10.823,19.186-22.353,22.047-37.507.138-.735.829-1.367,2.146-3.427.112,9.737-1.95,17.26-6.047,24.221-5.654,9.61-13.224,17.718-20.837,25.74-8.533,8.989-17.157,17.843-21.015,30.087C1549.282,443.447,1548.385,444.131,1547.775,444.906Z"
       transform="translate(-1283.11 20.17)"
       fill="#e18165" />
    <path
       id="Path_4806"
       data-name="Path 4806"
       d="M1625.636,443.411c-7.4-21.663-26.854-33.9-39.4-51.468-6.806-9.534-9.963-18.022-8.549-28.735.664,2.017,1.494,4,1.961,6.056,2.694,11.9,9.659,21.227,17.794,29.861,9.542,10.128,19.519,19.919,25.831,32.6C1625.055,435.3,1626.782,438.947,1625.636,443.411Z"
       transform="translate(-1246.613 21.017)"
       fill="#e07f63" />
    <path
       id="Path_4807"
       data-name="Path 4807"
       d="M1593.528,603.818c5.667,12.071,2.978,102.807-3.641,117.2C1593.325,682.009,1595.525,642.971,1593.528,603.818Z"
       transform="translate(-1231.154 317.876)"
       fill="#e28265" />
    <path
       id="Path_4809"
       data-name="Path 4809"
       d="M1575.07,315.793c1.113-6.107,6.442-9.688,14.455-10.385,7.018-.61,13.927.659,20.756,1.622,11.872,1.671,23.363,2.162,34.244-3.938.465-.259,1.2-.034,1.943.543-8.524,6.241-17.991,9.053-28.635,7.778-9.853-1.182-19.626-2.772-29.671-2.341C1582.573,309.311,1579.6,313.508,1575.07,315.793Z"
       transform="translate(-1249.435 -53.282)"
       fill="#e1896b" />
    <path
       id="Path_4810"
       data-name="Path 4810"
       d="M1612.056,315.912c-10.262-11.093-22.8-6.232-34.541-5.294-10.4.829-20.7,2.033-30.717-2.086-2.4-.987-4.95-1.7-7.32-5.926,11.93,6.509,23.332,6.876,34.916,5.388,7.523-.967,14.993-2.471,22.639-2.08C1603.878,306.264,1609.42,308.688,1612.056,315.912Z"
       transform="translate(-1293.346 -53.752)"
       fill="#e08668" />
    <path
       id="Path_4811"
       data-name="Path 4811"
       d="M1649.629,418.1c-3.473-22.045-2.882-44.7-10.423-66.12C1649.541,372.918,1650.556,395.361,1649.629,418.1Z"
       transform="translate(-1170.305 7.167)"
       fill="#e28b6d" />
    <ellipse
       id="Ellipse_2"
       data-name="Ellipse 2"
       cx="366.23599"
       cy="849.43103"
       rx="24.5"
       ry="31.5"
       fill="#f5bf9b" />
    <ellipse
       id="Ellipse_2-2"
       data-name="Ellipse 2"
       cx="279.23599"
       cy="849.43103"
       rx="24.5"
       ry="31.5"
       fill="#f5bf9b" />
    <path
       id="Path_4812"
       data-name="Path 4812"
       d="M1504.125,418.107c-4.36-15.386,1.877-55.324,10.255-66.044C1507.2,373.507,1506.258,395.865,1504.125,418.107Z"
       transform="translate(-1338.729 7.268)"
       fill="#e1876a" />
    <path
       id="Path_4813"
       data-name="Path 4813"
       d="M1571.044,601.877a13.636,13.636,0,0,1-20.278-.965c-6.151-7.445-8.868-33.37-3.862-43.663-.476,9.4.574,17.528,1.144,25.688C1549.1,598.09,1554.8,603.074,1571.044,601.877Z"
       transform="translate(-1287.397 260.42)"
       fill="#e0886a" />
    <path
       id="Path_4816"
       data-name="Path 4816"
       d="M1590.7,601.027c15.638,2.694,22.3-3.545,23.146-20.394.382-7.626.918-15.246,1.935-22.816.838,13.45,2.951,27.026-3.565,39.783A13.286,13.286,0,0,1,1590.7,601.027Z"
       transform="translate(-1230.148 261.122)"
       fill="#e28668" />
    <path
       id="Path_4817"
       data-name="Path 4817"
       d="M1525.474,354.469c-1.514-14.16,19.49-39.261,38.876-41.984-9.543,5.984-18.431,10.077-24.627,17.656A81.746,81.746,0,0,0,1525.474,354.469Z"
       transform="translate(-1310.721 -41.562)"
       fill="#e28f71" />
    <path
       id="Path_4818"
       data-name="Path 4818"
       d="M1642.538,353.736c-7.324-18.393-19.563-32.274-37.69-40.791C1620.277,313.414,1639.755,334.369,1642.538,353.736Z"
       transform="translate(-1212.695 -40.994)"
       fill="#e08d6e" />
    <path
       id="Path_4823"
       data-name="Path 4823"
       d="M1593.268,596.205c-8.712-6.458-8.461-26.484.268-36.274C1589.352,571.975,1587.507,584.02,1593.268,596.205Z"
       transform="translate(-1234.888 263.73)"
       fill="#e18669" />
    <path
       id="Path_4824"
       data-name="Path 4824"
       d="M1560.211,561.277c6.413,15.543,5.761,27.417-3.494,34.588,5.294-11.457,6.067-21.665,2.158-31.95C1558.17,562.452,1557.754,561.136,1560.211,561.277Z"
       transform="translate(-1272.077 265.377)"
       fill="#e1876a" />
    <path
       id="Path_4825"
       data-name="Path 4825"
       d="M1649.712,386.735c-1.454,8.908-6.241,16.5-4.935,25.939C1639.352,407.88,1642.725,391.558,1649.712,386.735Z"
       transform="translate(-1166.746 50.046)"
       fill="#e48a6d" />
    <path
       id="Path_4826"
       data-name="Path 4826"
       d="M1506.632,407.885c-.21-7.642,8.705-17.821,17.26-19.914C1517.747,394.243,1511.345,400.3,1506.632,407.885Z"
       transform="translate(-1333.876 51.571)"
       fill="#e2896b" />
    <path
       id="Path_4827"
       data-name="Path 4827"
       d="M1501.521,387.071c6.737,5.307,9.183,15.149,6.288,26.49C1505.687,403.487,1504.42,395.075,1501.521,387.071Z"
       transform="translate(-1340.177 50.46)"
       fill="#e4886b" />
    <path
       id="Path_4828"
       data-name="Path 4828"
       d="M1650.751,409.372c-5.884-8.642-11.1-15.766-18.192-21.225C1640,388.538,1649.757,399.528,1650.751,409.372Z"
       transform="translate(-1178.506 51.788)"
       fill="#e3886a" />
    <path
       id="Path_4830"
       data-name="Path 4830"
       d="M1569.579,293.441c5.533,3.465,10.908,4.144,16.474.127-.82,5.444-2.549,7.083-7.7,7.112C1573.562,300.71,1570.626,298.282,1569.579,293.441Z"
       transform="translate(-1256.209 -65.058)"
       fill="#e4876b" />
    <path
       id="Path_4832"
       data-name="Path 4832"
       d="M1560.256,563.146a2.792,2.792,0,0,0-1.336,2.638c-.433-.693-1.144-1.349-1.242-2.086-.174-1.3-2.062-3.172-.139-3.813C1559.655,559.183,1560.093,561.39,1560.256,563.146Z"
       transform="translate(-1272.121 263.508)"
       fill="#e99c7c" />
    <path
       id="Path_4833"
       data-name="Path 4833"
       d="M1579.005,301.1c.081,1.13.288,2.191,1.441,2.761-.239,1.217-.746,3.447-1.774,2.694C1576.744,305.145,1577.506,302.867,1579.005,301.1Z"
       transform="translate(-1246.409 -55.608)"
       fill="#e1896b" />
    <path
       id="Left_Eye_Brow"
       data-name="Left Eye Brow"
       d="M1555.927,248.019c4.222-7.421,8.752-9.415,16.275-7.789,3.8.82,7.619,1.519,11.448,2.165,2.537.427,4,1.691,3.612,4.354-.433,2.937-2.864,2.272-4.6,1.986a37.866,37.866,0,0,1-8.093-2.16C1568.123,243.956,1561.991,243.715,1555.927,248.019Z"
       transform="translate(-1273.053 -131.361)"
       fill="#653a1b" />
    <path
       id="Path_4836"
       data-name="Path 4836"
       d="M1566.248,269.969a46.941,46.941,0,0,1,33,.264C1588.266,273.263,1577.269,272.792,1566.248,269.969Z"
       transform="translate(-1260.319 -97.553)"
       fill="#e4876a" />
    <path
       id="Path_4842"
       data-name="Path 4842"
       d="M1568.183,270.083c8.191,3.744,15.308,2.96,23.763.337C1583.839,278.433,1574.726,278.323,1568.183,270.083Z"
       transform="translate(-1257.932 -93.876)"
       fill="#e38e70" />
    <path
       id="Path_4858"
       data-name="Path 4858"
       d="m 385.614,271.951 c 0,0 -103.436,-4.563 -119.843,0 -16.407,4.563 -41.731,20.613 -44.584,35.237 -2.853,14.624 13.2,29.961 15.337,36.381 2.137,6.42 7.133,12.484 26.037,12.484 18.904,0 38.521,3.567 41.374,-6.42 2.853,-9.987 28.534,-11.77 31.031,-7.847 2.497,3.923 13.91,14.98 23.9,14.267 9.99,-0.713 33.528,3.923 41.731,-2.853 8.203,-6.776 16.05,-22.114 21.757,-28.177 5.707,-6.063 2.14,-16.05 -3.923,-24.254 -6.063,-8.204 -19.26,-18.547 -20.687,-19.261 -1.427,-0.714 -12.13,-9.557 -12.13,-9.557 z"
       fill="#f5bf9b" />
    <path
       id="Path_4821"
       data-name="Path 4821"
       d="m 267.316,342.786 c -0.038,5.223 -2.129,7.606 -6.7,7.564 -4.164,-0.04 -6.652,-2.066 -6.425,-6.288 0.194,-3.619 1.452,-6.775 6.018,-6.914 4.486,-0.135 6.803,1.965 7.107,5.638 z"
       fill="#e58467" />
    <path
       id="Path_4848"
       data-name="Path 4848"
       d="m 260.308,342.599 a 1.647,1.647 0 0 1 1.429,1.841 c -0.01,1.081 -0.788,1.657 -1.68,1.28 a 2.861,2.861 0 0 1 -1.494,-1.825 c -0.193,-1.135 0.854,-1.262 1.745,-1.296 z"
       fill="#f5b18b" />
    <path
       id="Path_4822"
       data-name="Path 4822"
       d="m 385.026,350.403 c -5.54,-0.112 -7.876,-2.075 -7.977,-6.326 -0.094,-4.063 1.637,-6.764 5.951,-6.842 4.36,-0.078 7.146,2.3 7.059,6.659 -0.076,3.746 -1.926,6.659 -5.033,6.509 z"
       fill="#e37f63" />
    <path
       id="Path_4849"
       data-name="Path 4849"
       d="m 383.958,346.135 c -1.39,-0.279 -2.426,-0.945 -1.979,-2.54 0.271,-0.963 0.729,-2.14 2.089,-1.914 a 2.41,2.41 0 0 1 2.048,2.73 1.777,1.777 0 0 1 -2.158,1.724 z"
       fill="#f3a481" />
    <path
       id="Path_4837"
       data-name="Path 4837"
       d="m 286.714,126.264 c 8.24,-9.42 21.839,-9.007 25.7,0.2 1.081,2.584 1.07,3.456 -2.1,4.347 -8.546,2.409 -15.523,-1.789 -23.6,-4.547 z"
       fill="#67432a" />
    <path
       id="Path_4850"
       data-name="Path 4850"
       d="m 296.2,123.845 c 3.891,-2.792 7.584,-4.052 10.4,1.36 1.631,3.226 -1.53,2.846 -2.879,3.829 -2.254,-0.123 -4.588,0.138 -6.558,-1.354 -1.341,-1.023 -2.832,-2.008 -0.963,-3.835 z"
       fill="#201c1b" />
    <path
       id="Path_4851"
       data-name="Path 4851"
       d="m 296.2,123.844 q 0.483,1.917 0.963,3.835 c -2.122,0.462 -4.4,-0.342 -4.64,-2.138 -0.259,-1.938 1.741,-2.557 3.677,-1.697 z"
       fill="#dbd0c5" />
    <path
       id="Path_4852"
       data-name="Path 4852"
       d="m 303.722,129.037 c 0.6,-1.544 3.053,-1.7 2.879,-3.826 1.957,-0.248 2.964,0.907 2.43,2.531 -0.954,2.895 -3.433,1.203 -5.309,1.295 z"
       fill="#ede2d8" />
    <path
       id="Path_4838"
       data-name="Path 4838"
       d="m 344.535,130.636 c -4.023,2.325 -8.066,0.2 -12.062,-0.087 -2.924,-0.208 -1.749,-2.2 -0.976,-3.811 1.877,-3.893 4.2,-6.659 9.188,-6.958 6.2,-0.373 11.68,0.672 16.141,5.042 1.057,1.036 -0.346,1.783 -1.506,1.979 -1.171,0.413 -2.182,-0.248 -3.261,-0.467 -1.68,-1.041 -3.916,0.1 -5.49,-1.369 -3.058,-3.525 -5.384,1.628 -8.2,0.721 -2.167,4.541 1.8,1.637 2.8,2.305 a 4.546,4.546 0 0 1 3.489,0.907 1.511,1.511 0 0 1 -0.123,1.738 z"
       fill="#6b472c" />
    <path
       id="Path_4844"
       data-name="Path 4844"
       d="m 344.535,130.636 -0.038,-1.338 a 3.188,3.188 0 0 1 2.153,-2.522 c 1.932,-0.4 3.6,-1.747 5.689,-1.606 l 2.978,1.631 c -3.579,1.319 -6.742,3.81 -10.782,3.835 z"
       fill="#7c593f" />
    <path
       id="Path_4853"
       data-name="Path 4853"
       d="m 346.945,127.802 -2.448,1.494 q -2.054,-0.04 -4.113,-0.087 c -2.544,-0.145 -3.677,-1.293 -2.761,-3.9 0.5,-1.2 1.018,-4.215 1.64,-3.21 2.138,3.469 9.353,-6.067 8.222,3.442 a 1.713,1.713 0 0 1 -0.54,2.261 z"
       fill="#3d322c" />
    <path
       id="Path_4854"
       data-name="Path 4854"
       d="m 337.624,125.313 c 0.194,1.814 1.456,2.87 2.761,3.9 a 3.645,3.645 0 0 1 -5.636,-1.273 c -0.616,-1.16 0.358,-3.407 2.875,-2.627 z"
       fill="#dbcfc4" />
    <path
       id="Path_4855"
       data-name="Path 4855"
       d="m 346.945,127.803 q 0.268,-1.126 0.541,-2.254 c 1.414,-2.779 3.091,-2.113 4.854,-0.378 a 6.3,6.3 0 0 1 -5.395,2.632 z"
       fill="#e4d8ce" />
    <ellipse
       id="Ellipse_1"
       data-name="Ellipse 1"
       cx="321.23599"
       cy="96.93"
       rx="24.5"
       ry="9"
       fill="#f5bf9b"
       opacity="0.5" />
    <path
       id="Path_4856"
       data-name="Path 4856"
       d="m 328.122,192.087 c -4.129,-1.887 -7.717,-1.492 -11.979,-0.17 4.087,-4.039 8.679,-3.984 11.979,0.17 z"
       fill="#e38e70" />
    <path
       id="Path_4857"
       data-name="Path 4857"
       d="m 278.327,562.739 23.643,45.663 5.1,15.3 h 30.6 l 6.955,-19.011 23.184,-41.953 z"
       fill="#f5bf9b" />
    <path
       id="Path_4859"
       data-name="Path 4859"
       d="m 371.943,657.551 c 0,0 -34.266,3.709 -36.121,9.737 -1.855,6.028 5.564,86.708 5.564,103.4 0,16.692 3.709,22.72 8.81,9.274 5.101,-13.446 18.084,-33.385 19.475,-42.658 1.391,-9.273 6.491,-26.43 14.374,-8.346 7.883,18.084 7.419,27.821 12.056,41.731 4.637,13.91 12.983,18.547 16.229,-7.419 3.246,-25.966 8.346,-51 8.346,-63.988 0,-12.988 0.927,-25.039 0,-31.994 -0.927,-6.955 -5.1,-15.3 -5.1,-15.3 z"
       fill="#f5bf9b" />
    <path
       id="Path_4860"
       data-name="Path 4860"
       d="m 272.981,657.551 c 0,0 34.266,3.709 36.121,9.737 1.855,6.028 -5.564,86.708 -5.564,103.4 0,16.692 -3.709,22.72 -8.81,9.274 -5.101,-13.446 -18.084,-33.385 -19.475,-42.658 -1.391,-9.273 -6.492,-26.43 -14.374,-8.346 -7.882,18.084 -7.419,27.821 -12.056,41.731 -4.637,13.91 -12.983,18.547 -16.229,-7.419 -3.246,-25.966 -8.346,-51 -8.346,-63.988 0,-12.988 -0.927,-25.039 0,-31.994 0.927,-6.955 5.1,-15.3 5.1,-15.3 z"
       fill="#f5bf9b" />
    <circle
       id="Ellipse_4"
       data-name="Ellipse 4"
       cx="321.23599"
       cy="619.43103"
       r="15.5"
       fill="#f5bf9b" />
    <circle
       id="Ellipse_5"
       data-name="Ellipse 5"
       cx="321.23499"
       cy="228.431"
       r="11.5"
       fill="#f5bf9b" />
    <ellipse
       id="Ellipse_10"
       data-name="Ellipse 10"
       cx="545.73602"
       cy="663.92999"
       rx="6"
       ry="7"
       fill="#f5bf9b" />
    <ellipse
       id="Ellipse_10-2"
       data-name="Ellipse 10"
       cx="96.736"
       cy="666.43103"
       rx="6"
       ry="6.5"
       fill="#f5bf9b" />
    <ellipse
       id="Ellipse_10-3"
       data-name="Ellipse 10"
       cx="108.236"
       cy="697.43103"
       rx="5.5"
       ry="6.5"
       fill="#f5bf9b" />
    <ellipse
       id="Ellipse_10-4"
       data-name="Ellipse 10"
       cx="501.23599"
       cy="690.92999"
       rx="5.5"
       ry="7"
       fill="#f5bf9b" />
    <ellipse
       id="Ellipse_10-5"
       data-name="Ellipse 10"
       cx="512.23499"
       cy="699.43103"
       rx="5.5"
       ry="6.5"
       fill="#f5bf9b" />
    <ellipse
       id="Ellipse_10-6"
       data-name="Ellipse 10"
       cx="525.73602"
       cy="708.43103"
       rx="6"
       ry="6.5"
       fill="#f5bf9b" />
    <ellipse
       id="Ellipse_10-7"
       data-name="Ellipse 10"
       cx="537.23602"
       cy="697.43103"
       rx="5.5"
       ry="6.5"
       fill="#f5bf9b" />
    <ellipse
       id="Ellipse_10-8"
       data-name="Ellipse 10"
       cx="119.236"
       cy="708.43103"
       rx="5.5"
       ry="6.5"
       fill="#f5bf9b" />
    <ellipse
       id="Ellipse_10-9"
       data-name="Ellipse 10"
       cx="132.23599"
       cy="699.43103"
       rx="5.5"
       ry="6.5"
       fill="#f5bf9b" />
    <ellipse
       id="Ellipse_10-10"
       data-name="Ellipse 10"
       cx="143.73599"
       cy="690.92999"
       rx="6"
       ry="7"
       fill="#f5bf9b" />
    <ellipse
       id="Ellipse_12"
       data-name="Ellipse 12"
       cx="322.23599"
       cy="209.431"
       rx="16.5"
       ry="5.5"
       fill="#f5bf9b" />
    <ellipse
       id="Ellipse_13"
       data-name="Ellipse 13"
       cx="192.01848"
       cy="495.09698"
       rx="13.404508"
       ry="30.159393"
       transform="rotate(-36.010525)"
       fill="#f5bf9b"
       style="stroke-width:1.00011" />
    <ellipse
       id="Ellipse_13-2"
       data-name="Ellipse 13"
       cx="-331.43048"
       cy="-114.64284"
       rx="13.404508"
       ry="30.159393"
       transform="rotate(-143.98947)"
       fill="#f5bf9b"
       style="stroke-width:1.00011" />
    <ellipse
       id="Ellipse_14"
       data-name="Ellipse 14"
       cx="364.80481"
       cy="478.94553"
       rx="12.284452"
       ry="34.618637"
       transform="rotate(-12.006708)"
       fill="#f5bf9b"
       style="stroke-width:0.999874" />
    <ellipse
       id="Ellipse_14-2"
       data-name="Ellipse 14"
       cx="-268.14011"
       cy="-344.34213"
       rx="12.284452"
       ry="34.618637"
       transform="rotate(-167.99329)"
       fill="#f5bf9b"
       style="stroke-width:0.999874" />
    <ellipse
       id="Ellipse_16"
       data-name="Ellipse 16"
       cx="369.86246"
       cy="621.60889"
       rx="13.401311"
       ry="56.953819"
       transform="rotate(-12.006708)"
       fill="#f5bf9b"
       style="stroke-width:0.999874" />
    <ellipse
       id="Ellipse_16-2"
       data-name="Ellipse 16"
       cx="-260.90228"
       cy="-487.4762"
       rx="13.401311"
       ry="56.953819"
       transform="rotate(-167.99329)"
       fill="#f5bf9b"
       style="stroke-width:0.999874" />
    <ellipse
       id="Ellipse_19"
       data-name="Ellipse 19"
       cx="341.23599"
       cy="1168.931"
       rx="6.5"
       ry="7"
       fill="#f5bf9b" />
    <ellipse
       id="Ellipse_19-2"
       data-name="Ellipse 19"
       cx="303.23599"
       cy="1168.931"
       rx="6.5"
       ry="7"
       fill="#f5bf9b" />
    <ellipse
       id="Ellipse_20"
       data-name="Ellipse 20"
       cx="283.23599"
       cy="1143.931"
       rx="15.5"
       ry="11"
       fill="#f5bf9b" />
    <ellipse
       id="Ellipse_20-2"
       data-name="Ellipse 20"
       cx="361.23599"
       cy="1143.931"
       rx="15.5"
       ry="11"
       fill="#f5bf9b" />
    <ellipse
       id="Ellipse_21"
       data-name="Ellipse 21"
       cx="360.23599"
       cy="1112.931"
       rx="12.5"
       ry="9"
       fill="#f5bf9b" />
    <ellipse
       id="Ellipse_21-2"
       data-name="Ellipse 21"
       cx="284.23499"
       cy="1112.931"
       rx="12.5"
       ry="9"
       fill="#f5bf9b" />
    <path
       id="Path_4665"
       data-name="Path 4665"
       d="m 269.605,125.25 c -0.534,-2.582 -0.7,-5.272 -2.2,-7.573 -1.106,-3.753 -2.1,-7.55 -3.342,-11.263 C 257.409,86.54 264,69.648 275.799,53.927 c 2.479,-3.3 6.132,-4.872 9.929,-5.931 a 134.135,134.135 0 0 1 72.926,0.118 c 5.229,1.441 9.04,4.608 12.3,9.06 10.916,14.895 14.428,30.962 9,48.8 -1.394,4.573 -2.562,9.214 -3.835,13.825 a 8.805,8.805 0 0 0 -1.633,5.321 c 0.684,3.194 -0.639,6 -1.792,8.808 -0.559,1.363 -1.126,3.071 -3.011,2.978 -1.736,-0.085 -2.6,-1.537 -3.089,-3 -2.864,-8.466 -5.589,-17 -4.707,-26.111 0.6,-6.179 0.424,-12.154 -2.49,-17.83 -2.672,-5.2 -6.769,-7.782 -12.664,-7.378 a 15.324,15.324 0 0 0 -3.241,0.353 c -14.165,4.09 -28.179,3.605 -42.524,0.179 -11.019,-2.631 -18.572,4.392 -18.713,16.628 -0.116,10.258 0.288,20.477 -3.547,30.261 -1,2.549 -1.03,6.637 -4.2,6.652 -3.55,0.018 -3.731,-4.2 -4.763,-6.951 a 5.9,5.9 0 0 1 -0.14,-4.459 z"
       fill="#e47a5e" />
    <path
       id="Path_4808"
       data-name="Path 4808"
       d="m 321.793,445.988 c -0.284,11.779 -1.4,23.392 0.268,35.113 1.206,8.488 0.382,17.26 4.291,25.318 2.375,4.89 -0.308,8.774 -2.931,12.594 -0.688,1 -1.928,1.778 -2.7,0.909 a 13.407,13.407 0 0 1 -3.011,-11.573 c 3.261,-12.583 1.5,-24.985 0.69,-37.527 -0.541,-8.411 1.061,-16.725 3.393,-24.834 z"
       fill="#e18064" />
    <path
       id="Path_4814"
       data-name="Path 4814"
       d="m 332.723,497.253 c 7.376,-0.154 14.647,-0.02 21.263,-4.443 8.082,-5.4 3.152,-12.958 3.511,-19.923 5.734,5.091 6.632,14.227 2.377,20.515 -4.769,7.05 -17.088,9.04 -27.151,3.851 z"
       fill="#e38568" />
    <path
       id="Path_4815"
       data-name="Path 4815"
       d="m 286.797,472.354 c 0.125,7.447 -4.668,15.292 3.438,20.631 6.552,4.316 13.912,4.137 21.681,3.815 -6.9,5.45 -20.517,4.126 -26.656,-2.223 -5.153,-5.336 -4.727,-15.149 1.537,-22.223 z"
       fill="#e38265" />
    <path
       id="Path_4819"
       data-name="Path 4819"
       d="m 328.266,467.163 c 7.874,-0.728 14.439,0.065 20.522,-2.6 8.479,-3.715 3.138,-10.841 3.951,-17.437 4.354,5.446 6.239,10.838 4.072,16.336 -1.964,4.981 -7.217,6.078 -12.176,5.881 -4.959,-0.197 -10.211,1.454 -16.369,-2.18 z"
       fill="#e3896b" />
    <path
       id="Path_4820"
       data-name="Path 4820"
       d="m 315.259,466.736 c -7.218,4.249 -20.962,3.458 -26.012,-0.947 -3.84,-3.346 -3.2,-11.289 1.872,-17.381 0.366,6.268 -3.094,13.5 4.733,16.644 5.904,2.37 12.324,1.773 19.407,1.684 z"
       fill="#e08266" />
    <path
       id="Path_4829"
       data-name="Path 4829"
       d="m 293.902,440.274 c 7.72,-1.97 14.529,0.339 20.312,-3.284 a 1.4,1.4 0 0 1 2.073,0.853 c 0.355,1.3 -0.641,2.082 -1.617,2.466 -6.307,2.48 -12.675,4.093 -20.768,-0.035 z"
       fill="#e49070" />
    <path
       id="Path_4831"
       data-name="Path 4831"
       d="m 347.51,440.768 c -5.522,1.414 -11.028,1.905 -16.481,0.168 -1.3,-0.413 -3.4,-0.907 -2.535,-2.966 0.619,-1.477 2.245,-1.072 3.4,-0.322 4.824,3.145 10.638,0.37 15.616,3.12 z"
       fill="#e38566" />
    <path
       id="Path_4835"
       data-name="Path 4835"
       d="m 361.328,116.277 c -7.338,-4.776 -14.481,-3.116 -21.67,-0.078 a 16.776,16.776 0 0 1 -5.048,1.182 c -1.794,0.15 -4.2,0.936 -4.613,-2.028 -0.375,-2.687 1.157,-3.907 3.675,-4.367 4.479,-0.818 8.915,-1.874 13.4,-2.634 6.677,-1.13 10.809,2.6 14.256,7.925 z"
       fill="#653a1b" />
    <path
       id="Path_4839"
       data-name="Path 4839"
       d="m 359.477,147.407 c 1.2,4.313 -0.134,8.511 -3.194,10.039 -7.528,3.757 -9.232,10.215 -10.3,17.421 -0.23,1.557 0.188,3.4 -1.4,4.765 -2.959,-7.682 -0.583,-17.638 5.734,-21.2 a 18.6,18.6 0 0 0 9.16,-11.025 z"
       fill="#e59778" />
    <path
       id="Path_4841"
       data-name="Path 4841"
       d="m 284.934,148.611 c 1.144,7.727 9.951,8.14 12.887,14.086 2.828,5.73 2.339,11.647 2.942,18.259 -2.915,-1.392 -2.52,-3.261 -2.585,-4.468 -0.433,-8.345 -2.4,-15.518 -10.8,-19.664 -2.705,-1.335 -3.239,-4.853 -2.444,-8.213 z"
       fill="#e59779" />
    <path
       id="Path_4840"
       data-name="Path 4840"
       d="m 311.697,155.243 c 2.14,-1.448 4.1,-0.59 6.118,0.384 5.413,2.611 10.608,-0.768 15.954,-0.842 2.6,-0.038 -0.74,-2.712 0.23,-4.233 3.007,0.668 2.947,2.966 2.259,4.988 -0.835,2.462 -2.947,3.652 -5.614,3.65 q -9.462,-0.01 -18.929,-0.025 c -1.993,-1.297 -2.246,-2.604 -0.018,-3.922 z"
       fill="#e18166" />
    <path
       id="Path_4843"
       data-name="Path 4843"
       d="m 311.699,155.243 a 3.4,3.4 0 0 0 0.018,3.923 5.194,5.194 0 0 1 -4.89,-3.57 4.432,4.432 0 0 1 1.356,-5.247 c 1.528,-1.383 2.645,-1.389 2.6,1.016 -0.013,0.755 -0.98,1.584 -0.835,2.227 0.145,0.643 1.132,1.108 1.751,1.651 z"
       fill="#e59878" />
    <ellipse
       id="Ellipse_4-2"
       data-name="Ellipse 4"
       cx="321.23599"
       cy="648.43103"
       rx="15.5"
       ry="6.5"
       fill="#f5bf9b" />
  </g>
</svg>
